<mxfile host="app.diagrams.net" modified="2024-03-26T09:44:24.706Z" agent="Mozilla/5.0 (Windows NT 10.0; Win64; x64) AppleWebKit/537.36 (KHTML, like Gecko) Chrome/122.0.0.0 Safari/537.36" etag="zF5q9nxl1rGBMFcvo0Xk" version="24.1.0" type="github">
  <diagram name="Seite-1" id="fuNw8Iyw4zK68aFTg1xD">
    <mxGraphModel dx="2518" dy="1324" grid="1" gridSize="10" guides="1" tooltips="1" connect="1" arrows="1" fold="1" page="1" pageScale="1" pageWidth="827" pageHeight="1169" math="0" shadow="0">
      <root>
        <mxCell id="0" />
        <mxCell id="1" parent="0" />
        <mxCell id="WWFOWXg0JfWwrn1Fm2mf-1" value="" style="group" parent="1" vertex="1" connectable="0">
          <mxGeometry x="170" y="149" width="650" height="450" as="geometry" />
        </mxCell>
        <mxCell id="WWFOWXg0JfWwrn1Fm2mf-2" value="" style="group" parent="WWFOWXg0JfWwrn1Fm2mf-1" vertex="1" connectable="0">
          <mxGeometry width="650" height="450" as="geometry" />
        </mxCell>
        <mxCell id="WWFOWXg0JfWwrn1Fm2mf-3" value="" style="rounded=1;whiteSpace=wrap;html=1;strokeColor=#000000;fillColor=#EBF8FF;arcSize=32;absoluteArcSize=1;imageWidth=64;imageHeight=64;strokeWidth=1.5;" parent="WWFOWXg0JfWwrn1Fm2mf-2" vertex="1">
          <mxGeometry width="650.0000000000001" height="450" as="geometry" />
        </mxCell>
        <mxCell id="WWFOWXg0JfWwrn1Fm2mf-4" value="" style="shape=image;verticalLabelPosition=bottom;labelBackgroundColor=default;verticalAlign=top;aspect=fixed;imageAspect=0;image=data:image/svg+xml,PHN2ZyB4bWxuczp4bGluaz0iaHR0cDovL3d3dy53My5vcmcvMTk5OS94bGluayIgeG1sbnM9Imh0dHA6Ly93d3cudzMub3JnLzIwMDAvc3ZnIiB2aWV3Qm94PSIwIDAgMTQ0Ljc0NyAzOS44MzIiIGlkPSJhIj48ZGVmcz48bGluZWFyR3JhZGllbnQgZ3JhZGllbnRVbml0cz0idXNlclNwYWNlT25Vc2UiIHkyPSIzOS44MzIiIHgyPSI0MC4yNTgiIHkxPSIwIiB4MT0iNDAuMjU4IiBpZD0iYiI+PHN0b3Agc3RvcC1jb2xvcj0iIzAwYjhmMSIgb2Zmc2V0PSIwIi8+PHN0b3Agc3RvcC1jb2xvcj0iIzAwYjVlZiIgb2Zmc2V0PSIuMDE2Ii8+PHN0b3Agc3RvcC1jb2xvcj0iIzBkOTBkOCIgb2Zmc2V0PSIuMzA4Ii8+PHN0b3Agc3RvcC1jb2xvcj0iIzE2NzVjOCIgb2Zmc2V0PSIuNTc4Ii8+PHN0b3Agc3RvcC1jb2xvcj0iIzFjNjRiZSIgb2Zmc2V0PSIuODE3Ii8+PHN0b3Agc3RvcC1jb2xvcj0iIzFlNWZiYiIgb2Zmc2V0PSIxIi8+PC9saW5lYXJHcmFkaWVudD48L2RlZnM+PHBvbHlsaW5lIGZpbGwtcnVsZT0iZXZlbm9kZCIgZmlsbD0idXJsKCNiKSIgcG9pbnRzPSIwIDM5LjgzMiA0MC42OTIgMzkuODMyIDgwLjUxNyAwIDAgMCAwIDM5LjgzMiIvPjxwYXRoIGZpbGwtcnVsZT0iZXZlbm9kZCIgZmlsbD0iI2ZmZiIgZD0ibTQ3Ljc4Miw3LjQ4OWwtNy45MjUtLjAwNXYxOC44NDVsLTYuOTI0LTE4Ljg0NWgtNi44NjVsLTUuOTEyLDE1Ljc1OWMtLjYzLTMuOTczLTQuNzQtNS4zNDUtNy45NzQtNi4zNzQtMi4xMzUtLjY4Ni00LjQwMS0xLjY5NC00LjM4LTIuODA5LjAxNy0uOTE1LDEuMjE1LTEuNzY1LDMuNTg5LTEuNjM3LDEuNTk1LjA4NCwzLjAwMS4yMTMsNS44LDEuNTYzbDIuNzUzLTQuNzk1Yy0yLjU1NS0xLjMtNi4wODYtMi4xMjEtOC45NzgtMi4xMjRoLS4wMTdjLTMuMzc0LDAtNi4xODUsMS4wOTMtNy45MjgsMi44OTQtMS4yMTQsMS4yNTgtMS44NjksMi44NTYtMS44OTYsNC42MjMtLjA0NCwyLjQzMi44NDgsNC4xNTcsMi43MjEsNS41MzMsMS41ODMsMS4xNiwzLjYwNiwxLjkxMiw1LjM5LDIuNDY1LDIuMjAxLjY4MSwzLjk5NiwxLjI3NCwzLjk3NSwyLjUzOS0uMDE2LjQ1OS0uMTkxLjg4OC0uNTIxLDEuMjM2LS41NDguNTY2LTEuMzkxLjc3OS0yLjU1NS43OTktMi4yNDQuMDQ4LTMuOTEtLjMwMy02LjU2Mi0xLjg3bC0yLjQ0OCw0Ljg2MWMyLjY0NCwxLjUwNiw1Ljc3NiwyLjM4OCw4Ljk3MiwyLjM4OGwuNDExLS4wMDZjMi43ODItLjA1LDUuMDI2LS44NDIsNi44Mi0yLjI4Ni4xMDMtLjA4MS4xOTYtLjE2Ni4yOTEtLjI1bC0uNzk1LDIuMTIzaDcuMmwxLjIwOC0zLjY3NGMxLjI2NS40MzMsMi43MDQuNjcxLDQuMjMyLjY3MSwxLjQ4NywwLDIuODg5LS4yMjksNC4xMzEtLjYzNWwxLjE2NCwzLjYzN2gxMS43NDJ2LTcuNjA3aDIuNTYxYzYuMTg4LDAsOS44NTEtMy4xNTQsOS44NTEtOC40MzYsMC01Ljg4NS0zLjU1Ny04LjU4NS0xMS4xMzItOC41ODVabS0xOC4zMTcsMTYuMTI0Yy0uOTI1LDAtMS43OTItLjE2LTIuNTM5LS40NDNsMi41MTItNy45MjZoLjA0OGwyLjQ2OCw3Ljk0OGMtLjc0Mi4yNjMtMS41ODkuNDIxLTIuNDg4LjQyMVptMTguNzgzLTQuNTUzaC0xLjc0NnYtNi4zODZoMS43NDZjMi4zMjgsMCw0LjE4NS43NzMsNC4xODUsMy4xNTEsMCwyLjQ2MS0xLjg1NywzLjIzNi00LjE4NSwzLjIzNiIvPjxwYXRoIGZpbGw9IiMwMDJhODYiIGQ9Im04MC4yMTcsNy40MDFoMTAuMDYzYzUuNTk1LDAsOC42NzQsMS45MTcsOC42NzQsNi4xNTgsMCwyLjkwMy0xLjUxMyw1LjAxNC00LjMxMSw1LjcsMy4yOS40NTgsNS4yNzgsMi41ODYsNS4yNzgsNS44OTQsMCw1LjAxNC00LjA2NCw3LjAzNy05LjE4NCw3LjAzN2gtMTAuNTIxVjcuNDAxWm0xMy45NjksNi44MjZjMC0yLjE2NC0xLjQ5Ni0yLjk3My00LjI0LTIuOTczaC01LjA0OXY2LjI5OGg0Ljg5MWMzLjIwMiwwLDQuMzk4LTEuMTYxLDQuMzk4LTMuMzI1Wm0xLjAyMSwxMC41MjFjMC0yLjM1Ny0xLjc3Ny0zLjQ2Ni00LjgzOS0zLjQ2NmgtNS40NzF2Ny4wNTVoNS41MDZjMi44MTUsMCw0LjgwNC0uNzc0LDQuODA0LTMuNTg5WiIvPjxwYXRoIGZpbGw9IiMwMDJhODYiIGQ9Im0xMDkuMDUxLDExLjVoLTcuNTgzdi00LjA5OWgxOS44NDZ2NC4wOTloLTcuNTY1djIwLjY5aC00LjY5N1YxMS41WiIvPjxwYXRoIGZpbGw9IiMwMDJhODYiIGQ9Im0xMjUuMTQ4LDcuNDAxaDEwLjUwNGM2LjE5MiwwLDkuMDk2LDMuMTg1LDkuMDk2LDcuODk5LDAsNC4zOTgtMi44MzMsOC4xNDYtOC44NSw4LjE0NmgtNi4wN3Y4Ljc0NGgtNC42OFY3LjQwMVptMTQuOTAyLDcuOTUyYzAtMi41NTEtMS42ODktMy45MjMtNC45NDQtMy45MjNoLTUuMjc4djguMDRoNS40MTljMy4yNzIsMCw0LjgwNC0xLjU4Myw0LjgwNC00LjExN1oiLz48L3N2Zz4=;strokeWidth=1.5;" parent="WWFOWXg0JfWwrn1Fm2mf-2" vertex="1">
          <mxGeometry x="41.866319444444336" y="33.39000000000012" width="97.13888888888889" height="26.794444444444448" as="geometry" />
        </mxCell>
        <mxCell id="OfAU59fTZWmp4iSplw8R-5" value="" style="group" parent="WWFOWXg0JfWwrn1Fm2mf-2" vertex="1" connectable="0">
          <mxGeometry x="212.5" y="321.42857142857144" width="162.50000000000003" height="102.85714285714285" as="geometry" />
        </mxCell>
        <mxCell id="OfAU59fTZWmp4iSplw8R-6" value="" style="shape=image;verticalLabelPosition=bottom;verticalAlign=top;imageAspect=0;aspect=fixed;image=data:image/svg+xml,PHN2ZyB4bWxucz0iaHR0cDovL3d3dy53My5vcmcvMjAwMC9zdmciIGZpbGw9Im5vbmUiIHZpZXdCb3g9IjAgMCA0OSA0OSIgaGVpZ2h0PSI0OSIgd2lkdGg9IjQ5Ij4mI3hhOzxjaXJjbGUgc3Ryb2tlLXdpZHRoPSIwLjg1NzE0MyIgc3Ryb2tlPSIjRDVEQUREIiBmaWxsPSJ1cmwoI3BhaW50MF9saW5lYXJfMjYyMl8zMTYyKSIgcj0iMjMuNTcxNCIgY3k9IjI0LjAzNDkiIGN4PSIyNC41Ii8+JiN4YTs8ZyBjbGlwLXBhdGg9InVybCgjY2xpcDBfMjYyMl8zMTYyKSI+JiN4YTs8cGF0aCBmaWxsPSJ1cmwoI3BhaW50MV9yYWRpYWxfMjYyMl8zMTYyKSIgZD0iTTE3LjA4MjQgMTkuNjE4NkMxNi43OTA3IDE1Ljc0MzQgMTkuODk2MiAxMS41MzQ5IDI0LjMzMjcgMTEuNTM0OUMyNy43Njk1IDExLjUzNDkgMzAuMjkxNCAxMy42MTgzIDMxLjQ5NSAxNi44NTE2QzM0LjgzMzIgMTYuNjE4NCAzOC4wMDAxIDE5LjQ1ODEgMzguMDAwMSAyMy41MzU0QzM4LjAwMDEgMjYuMTI4NyAzNi43Njc4IDI4LjA5ODMgMzQuOTg2NyAyOS4yMDE0VjI1Ljc1MTNDMzQuOTg2NyAyNS42Mjg4IDM0Ljk3NTMgMjUuNTMxNiAzNC45NzIxIDI1LjUwMzZDMzQuOTY3IDI1LjQ2MDMgMzQuOTYxNCAyNS40MjM3IDM0Ljk1NzQgMjUuMzk5MkMzNC45NDk0IDI1LjM0OTUgMzQuOTQwNiAyNS4zMDM3IDM0LjkzMzMgMjUuMjY4MUMzNC45MTg2IDI1LjE5NTggMzQuOSAyNS4xMTUxIDM0Ljg3OTcgMjUuMDM2NkMzNC44NjMzIDI0Ljk3MzUgMzQuODI5NiAyNC44NDggMzQuNzc5NyAyNC43MTU2TDM0Ljc3ODIgMjQuNzExNkMzNC43Njk0IDI0LjY4ODIgMzQuNzQ1MSAyNC42MjM0IDM0LjcwMzcgMjQuNTM3MkMzNC4xMzAzIDIzLjAzODkgMzIuNzc3NCAyMi4wNjA0IDMxLjQzOTIgMjEuNDc3NEMyOS45NjU5IDIwLjgzNTUgMjguMTQ2OSAyMC41MDA0IDI2LjIwNTcgMjAuNTAwNEMyNC4yNjYzIDIwLjUwMDQgMjIuNDQ3NyAyMC44MzMgMjAuOTczMiAyMS40NzM2QzE5LjU5ODkgMjIuMDcwNiAxOC4yMTM5IDIzLjA4MTkgMTcuNjYxMyAyNC42NDIzQzE3LjU0MDIgMjQuOTIxMyAxNy40MjQ3IDI1LjMwMDMgMTcuNDI0NyAyNS43NTkzVjMwLjE4NTVIMTYuNTExNkMxMi44Nzc2IDMwLjE4NTUgMTEgMjcuOTUzOSAxMSAyNC44MzQzQzExIDIxLjU2MDQgMTMuMzkxMiAxOC45NzY2IDE3LjA4MjQgMTkuNjE4NloiIGNsaXAtcnVsZT0iZXZlbm9kZCIgZmlsbC1ydWxlPSJldmVub2RkIi8+JiN4YTs8cGF0aCBmaWxsPSJ1cmwoI3BhaW50Ml9yYWRpYWxfMjYyMl8zMTYyKSIgZD0iTTI2LjIwNTcgMjIuNTI1N0MyOS42NTU4IDIyLjUyNTcgMzIuMzM3NCAyMy43MjY0IDMyLjg1NzcgMjUuMzkxNEMzMi44ODM3IDI1LjM2NTQgMzIuOTYxNyAyNS43MDc1IDMyLjk2MTcgMjUuNzUxNlYzNS4wNzcyQzMyLjk2MTcgMzcuMDQ2MyAzMC4wNTYgMzguNTM1MiAyNi4yMDU3IDM4LjUzNTJDMjIuMzU1NCAzOC41MzUyIDE5LjQ0OTcgMzcuMDQ2MyAxOS40NDk3IDM1LjA3NzJWMjUuNzU5NkMxOS40NDk3IDI1LjYyMzUgMTkuNDg5NyAyNS41MDM1IDE5LjU0NTggMjUuMzkxNEMyMC4wNzQxIDIzLjcxODQgMjIuNzU1NyAyMi41MjU3IDI2LjIwNTcgMjIuNTI1N1pNMzEuMzYwOCAyNS45ODM4QzMxLjM2MDggMjUuMjQ3MyAyOS4zMDM2IDI0LjEyNjcgMjYuMjA1NyAyNC4xMjY3QzIzLjEwNzkgMjQuMTI2NyAyMS4wNTA2IDI1LjI0NzMgMjEuMDUwNiAyNS45ODM4QzIxLjA1MDYgMjYuNzIwMiAyMy4xMDc5IDI3Ljg0MDkgMjYuMjA1NyAyNy44NDA5QzI5LjMwMzYgMjcuODQwOSAzMS4zNjA4IDI2LjcyMDIgMzEuMzYwOCAyNS45ODM4Wk0zMS41NTU0IDMwLjA5NzdDMzEuNTU1NCAyOS41Mzg1IDMxLjEwMjEgMjkuMDg1MiAzMC41NDI5IDI5LjA4NTJDMjkuOTgzNyAyOS4wODUyIDI5LjUzMDQgMjkuNTM4NSAyOS41MzA0IDMwLjA5NzdWMzQuNzc3QzI5LjUzMDQgMzUuMzM2MiAyOS45ODM3IDM1Ljc4OTUgMzAuNTQyOSAzNS43ODk1QzMxLjEwMjEgMzUuNzg5NSAzMS41NTU0IDM1LjMzNjIgMzEuNTU1NCAzNC43NzdWMzAuMDk3N1oiIGNsaXAtcnVsZT0iZXZlbm9kZCIgZmlsbC1ydWxlPSJldmVub2RkIi8+JiN4YTs8L2c+JiN4YTs8ZGVmcz4mI3hhOzxsaW5lYXJHcmFkaWVudCBncmFkaWVudFVuaXRzPSJ1c2VyU3BhY2VPblVzZSIgeTI9IjQ0LjI3OTIiIHgyPSI0MS41NjQ1IiB5MT0iNi44NDc3NSIgeDE9IjQuODUyODciIGlkPSJwYWludDBfbGluZWFyXzI2MjJfMzE2MiI+JiN4YTs8c3RvcCBzdG9wLWNvbG9yPSJ3aGl0ZSIvPiYjeGE7PHN0b3Agc3RvcC1jb2xvcj0iI0VBRUNFRSIgb2Zmc2V0PSIxIi8+JiN4YTs8L2xpbmVhckdyYWRpZW50PiYjeGE7PHJhZGlhbEdyYWRpZW50IGdyYWRpZW50VHJhbnNmb3JtPSJ0cmFuc2xhdGUoMTUuMTg3IDE1LjQ5OTQpIHJvdGF0ZSg0NS4zMTgzKSBzY2FsZSgyNi41ODQ1IDUwLjIyOTQpIiBncmFkaWVudFVuaXRzPSJ1c2VyU3BhY2VPblVzZSIgcj0iMSIgY3k9IjAiIGN4PSIwIiBpZD0icGFpbnQxX3JhZGlhbF8yNjIyXzMxNjIiPiYjeGE7PHN0b3Agc3RvcC1jb2xvcj0iIzAxOTVGRiIvPiYjeGE7PHN0b3Agc3RvcC1jb2xvcj0iIzExNDdFOSIgb2Zmc2V0PSIxIi8+JiN4YTs8L3JhZGlhbEdyYWRpZW50PiYjeGE7PHJhZGlhbEdyYWRpZW50IGdyYWRpZW50VHJhbnNmb3JtPSJ0cmFuc2xhdGUoMTUuMTgwOSAxNS41OTY3KSByb3RhdGUoNDUuMDAwMykgc2NhbGUoMjYuNTk4IDI0LjIzNzcpIiBncmFkaWVudFVuaXRzPSJ1c2VyU3BhY2VPblVzZSIgcj0iMSIgY3k9IjAiIGN4PSIwIiBpZD0icGFpbnQyX3JhZGlhbF8yNjIyXzMxNjIiPiYjeGE7PHN0b3Agc3RvcC1jb2xvcj0iIzEzNDhGRiIvPiYjeGE7PHN0b3Agc3RvcC1jb2xvcj0iIzA2MjM4RCIgb2Zmc2V0PSIxIi8+JiN4YTs8L3JhZGlhbEdyYWRpZW50PiYjeGE7PGNsaXBQYXRoIGlkPSJjbGlwMF8yNjIyXzMxNjIiPiYjeGE7PHJlY3QgdHJhbnNmb3JtPSJ0cmFuc2xhdGUoMTEgMTEuNTM0OSkiIGZpbGw9IndoaXRlIiBoZWlnaHQ9IjI3IiB3aWR0aD0iMjciLz4mI3hhOzwvY2xpcFBhdGg+JiN4YTs8L2RlZnM+JiN4YTs8L3N2Zz4=;points=[[0,0,0,0,0],[0,0.25,0,0,0],[0,0.5,0,0,0],[0,0.75,0,0,0],[0.25,0,0,0,0],[0.5,0,0,0,0],[0.75,0,0,0,0],[1,0,0,0,0],[1,0.25,0,0,0],[1,0.5,0,0,0],[1,0.75,0,0,0]];" parent="OfAU59fTZWmp4iSplw8R-5" vertex="1">
          <mxGeometry x="60.025" y="9.398571428571428" width="35.027777777777786" height="35.027777777777786" as="geometry" />
        </mxCell>
        <mxCell id="OfAU59fTZWmp4iSplw8R-7" value="&lt;font color=&quot;#1d2d3e&quot; size=&quot;1&quot; face=&quot;arial&quot; style=&quot;&quot;&gt;&lt;b style=&quot;font-size: 12px;&quot;&gt;SAP HANA Cloud&lt;br&gt;&lt;/b&gt;&lt;/font&gt;" style="text;html=1;align=center;verticalAlign=top;resizable=1;points=[[0,0.5,0,0,0],[0.21,1,0,0,0],[0.5,1,0,0,0],[0.85,1,0,0,0],[1,0.5,0,0,0]];autosize=0;strokeColor=none;fillColor=none;fontSize=12;fontColor=default;fontFamily=Helvetica;fixedWidth=1;imageWidth=24;whiteSpace=wrap;labelBackgroundColor=none;" parent="OfAU59fTZWmp4iSplw8R-5" vertex="1">
          <mxGeometry y="53.05263157894737" width="162.49999999999997" height="49.80451127819549" as="geometry" />
        </mxCell>
        <mxCell id="OfAU59fTZWmp4iSplw8R-12" value="" style="endArrow=blockThin;html=1;strokeColor=#000000;bendable=1;rounded=0;endFill=1;endSize=4;startArrow=blockThin;startFill=1;startSize=4;jumpStyle=none;jumpSize=0;targetPerimeterSpacing=15;strokeWidth=1.5;exitX=0.5;exitY=0;exitDx=0;exitDy=0;exitPerimeter=0;entryX=0.5;entryY=1;entryDx=0;entryDy=0;" parent="WWFOWXg0JfWwrn1Fm2mf-2" source="OfAU59fTZWmp4iSplw8R-6" target="m9YYBKn2A9ynQCPHmd28-12" edge="1">
          <mxGeometry width="50" height="50" relative="1" as="geometry">
            <mxPoint x="125" y="167.14285714285714" as="sourcePoint" />
            <mxPoint x="291" y="241" as="targetPoint" />
          </mxGeometry>
        </mxCell>
        <mxCell id="OfAU59fTZWmp4iSplw8R-19" value="" style="group" parent="WWFOWXg0JfWwrn1Fm2mf-2" vertex="1" connectable="0">
          <mxGeometry x="350.00000000000006" y="176.78571428571428" width="180" height="254.21428571428572" as="geometry" />
        </mxCell>
        <mxCell id="OfAU59fTZWmp4iSplw8R-20" value="" style="shape=image;verticalLabelPosition=bottom;verticalAlign=top;imageAspect=0;aspect=fixed;image=data:image/svg+xml,PHN2ZyB4bWxucz0iaHR0cDovL3d3dy53My5vcmcvMjAwMC9zdmciIGZpbGw9Im5vbmUiIHZpZXdCb3g9IjAgMCA0OSA0OSIgaGVpZ2h0PSI0OSIgd2lkdGg9IjQ5Ij4mI3hhOzxnIGNsaXAtcGF0aD0idXJsKCNjbGlwMF8yNjIyXzM1NjgpIj4mI3hhOzxjaXJjbGUgc3Ryb2tlLXdpZHRoPSIwLjg1NzE0MyIgc3Ryb2tlPSIjRDVEQUREIiBmaWxsPSJ1cmwoI3BhaW50MF9saW5lYXJfMjYyMl8zNTY4KSIgcj0iMjMuNTcxNCIgY3k9IjI0LjAzNDkiIGN4PSIyNC41Ii8+JiN4YTs8ZyBjbGlwLXBhdGg9InVybCgjY2xpcDFfMjYyMl8zNTY4KSI+JiN4YTs8cGF0aCBmaWxsPSJ1cmwoI3BhaW50MV9yYWRpYWxfMjYyMl8zNTY4KSIgZD0iTTE3LjE3MTggMTkuODE2M0gxMy43OTY4QzEzLjU3MyAxOS44MTYzIDEzLjM1ODQgMTkuNzI3NCAxMy4yMDAyIDE5LjU2OTJDMTMuMDQyIDE5LjQxMDkgMTIuOTUzMSAxOS4xOTYzIDEyLjk1MzEgMTguOTcyNUMxMi45NTMxIDE4Ljc0ODggMTMuMDQyIDE4LjUzNDEgMTMuMjAwMiAxOC4zNzU5QzEzLjM1ODQgMTguMjE3NyAxMy41NzMgMTguMTI4OCAxMy43OTY4IDE4LjEyODhIMTcuMTcxOEMxNy4zOTU2IDE4LjEyODggMTcuNjEwMiAxOC4yMTc3IDE3Ljc2ODQgMTguMzc1OUMxNy45MjY3IDE4LjUzNDEgMTguMDE1NiAxOC43NDg4IDE4LjAxNTYgMTguOTcyNUMxOC4wMTU2IDE5LjE5NjMgMTcuOTI2NyAxOS40MTA5IDE3Ljc2ODQgMTkuNTY5MkMxNy42MTAyIDE5LjcyNzQgMTcuMzk1NiAxOS44MTYzIDE3LjE3MTggMTkuODE2M1pNMTUuNDg0NCAyNC44Nzg4SDEyLjEwOTRDMTEuODg1NiAyNC44Nzg4IDExLjY3MSAyNC43ODk5IDExLjUxMjggMjQuNjMxN0MxMS4zNTQ1IDI0LjQ3MzQgMTEuMjY1NiAyNC4yNTg4IDExLjI2NTYgMjQuMDM1QzExLjI2NTYgMjMuODExMyAxMS4zNTQ1IDIzLjU5NjYgMTEuNTEyOCAyMy40Mzg0QzExLjY3MSAyMy4yODAyIDExLjg4NTYgMjMuMTkxMyAxMi4xMDk0IDIzLjE5MTNIMTUuNDg0NEMxNS43MDgyIDIzLjE5MTMgMTUuOTIyOCAyMy4yODAyIDE2LjA4MSAyMy40Mzg0QzE2LjIzOTIgMjMuNTk2NiAxNi4zMjgxIDIzLjgxMTMgMTYuMzI4MSAyNC4wMzVDMTYuMzI4MSAyNC4yNTg4IDE2LjIzOTIgMjQuNDczNCAxNi4wODEgMjQuNjMxN0MxNS45MjI4IDI0Ljc4OTkgMTUuNzA4MiAyNC44Nzg4IDE1LjQ4NDQgMjQuODc4OFpNMTUuNDU1NiAyOS45NDEzSDE3LjE3MThDMTcuMzk1NiAyOS45NDEzIDE3LjYxMDIgMjkuODUyNCAxNy43Njg0IDI5LjY5NDJDMTcuOTI2NyAyOS41MzU5IDE4LjAxNTYgMjkuMzIxMyAxOC4wMTU2IDI5LjA5NzVDMTguMDE1NiAyOC44NzM4IDE3LjkyNjcgMjguNjU5MSAxNy43Njg0IDI4LjUwMDlDMTcuNjEwMiAyOC4zNDI3IDE3LjM5NTYgMjguMjUzOCAxNy4xNzE4IDI4LjI1MzhIMTUuNDU1NkMxNS4yMzE5IDI4LjI1MzggMTUuMDE3MyAyOC4zNDI3IDE0Ljg1OSAyOC41MDA5QzE0LjcwMDggMjguNjU5MSAxNC42MTE5IDI4Ljg3MzggMTQuNjExOSAyOS4wOTc1QzE0LjYxMTkgMjkuMzIxMyAxNC43MDA4IDI5LjUzNTkgMTQuODU5IDI5LjY5NDJDMTUuMDE3MyAyOS44NTI0IDE1LjIzMTkgMjkuOTQxMyAxNS40NTU2IDI5Ljk0MTNaIiBjbGlwLXJ1bGU9ImV2ZW5vZGQiIGZpbGwtcnVsZT0iZXZlbm9kZCIvPiYjeGE7PHBhdGggZmlsbD0idXJsKCNwYWludDJfcmFkaWFsXzI2MjJfMzU2OCkiIGQ9Ik0xOS4yODI5IDIxLjUwMzlIMjAuMzg5OUwyMC44NjU4IDIwLjM2MzJMMjAuMDc0NCAxOS41NzE3QzE5Ljg0MzQgMTkuMzI1NCAxOS43MTU5IDE4Ljk5OTggMTkuNzE4MyAxOC42NjIyQzE5LjcxNDggMTguNTAwNCAxOS43NDQ3IDE4LjMzOTYgMTkuODA1OSAxOC4xODk4QzE5Ljg2NzIgMTguMDQgMTkuOTU4NSAxNy45MDQ0IDIwLjA3NDQgMTcuNzkxNEwyMS44ODY3IDE1Ljk2NzJDMjEuOTk5NyAxNS44NTE0IDIyLjEzNTMgMTUuNzYgMjIuMjg1MSAxNS42OTg4QzIyLjQzNDkgMTUuNjM3NSAyMi41OTU3IDE1LjYwNzcgMjIuNzU3NSAxNS42MTEyQzIyLjkyNTQgMTUuNjA1NCAyMy4wOTI2IDE1LjYzNCAyMy4yNDkxIDE1LjY5NTJDMjMuNDA1NSAxNS43NTY0IDIzLjU0NzcgMTUuODQ5IDIzLjY2NyAxNS45NjcyTDI0LjQ1NjggMTYuNzU4N0wyNS42MDQzIDE2LjI4MjhWMTUuMTc1OEMyNS41OTc2IDE1LjAwNzggMjUuNjI1OCAxNC44NDAzIDI1LjY4NzEgMTQuNjgzN0MyNS43NDgzIDE0LjUyNzEgMjUuODQxMyAxNC4zODQ5IDI1Ljk2MDIgMTQuMjY2MUMyNi4wNzkxIDE0LjE0NzIgMjYuMjIxMyAxNC4wNTQyIDI2LjM3NzggMTMuOTkyOUMyNi41MzQ0IDEzLjkzMTcgMjYuNzAxOSAxMy45MDM1IDI2Ljg2OTkgMTMuOTEwMkgyOS40MDEyQzI5LjU2OTIgMTMuOTAzNSAyOS43MzY3IDEzLjkzMTcgMjkuODkzMyAxMy45OTI5QzMwLjA0OTggMTQuMDU0MiAzMC4xOTIgMTQuMTQ3MiAzMC4zMTA5IDE0LjI2NjFDMzAuNDI5OCAxNC4zODQ5IDMwLjUyMjggMTQuNTI3MSAzMC41ODQgMTQuNjgzN0MzMC42NDUzIDE0Ljg0MDMgMzAuNjczNCAxNS4wMDc4IDMwLjY2NjggMTUuMTc1OFYxNi4yODI4TDMxLjgxNDMgMTYuNzU4N0wzMi42MDU3IDE1Ljk2NzJDMzIuNzI0OCAxNS44NDg3IDMyLjg2NyAxNS43NTU5IDMzLjAyMzUgMTUuNjk0NkMzMy4xOCAxNS42MzM0IDMzLjM0NzQgMTUuNjA1IDMzLjUxNTMgMTUuNjExMkMzMy42NzY4IDE1LjYwNzkgMzMuODM3MiAxNS42Mzc5IDMzLjk4NjcgMTUuNjk5MUMzNC4xMzYyIDE1Ljc2MDQgMzQuMjcxNSAxNS44NTE2IDM0LjM4NDQgMTUuOTY3MkwzNi4yMTg3IDE3Ljc4NjRDMzYuMzM0NSAxNy44OTk0IDM2LjQyNTkgMTguMDM1IDM2LjQ4NzEgMTguMTg0OEMzNi41NDg0IDE4LjMzNDUgMzYuNTc4MiAxOC40OTUzIDM2LjU3NDcgMTguNjU3MUMzNi41NzcxIDE4Ljk5NDcgMzYuNDQ5NiAxOS4zMjA0IDM2LjIxODcgMTkuNTY2N0wzNS40Mjg5IDIwLjM1ODFMMzUuOTAzMSAyMS41MDM5SDM3QzM3LjE2OCAyMS40OTczIDM3LjMzNTUgMjEuNTI1NCAzNy40OTIxIDIxLjU4NjdDMzcuNjQ4NiAyMS42NDc5IDM3Ljc5MDggMjEuNzQwOSAzNy45MDk3IDIxLjg1OThDMzguMDI4NiAyMS45Nzg3IDM4LjEyMTYgMjIuMTIwOSAzOC4xODI4IDIyLjI3NzRDMzguMjQ0MSAyMi40MzQgMzguMjcyMyAyMi42MDE2IDM4LjI2NTYgMjIuNzY5NVYyNS4zMDA4QzM4LjI2OTMgMjUuNDY0NyAzOC4yNDA2IDI1LjYyNzggMzguMTgxMyAyNS43ODA3QzM4LjEyMTkgMjUuOTMzNiAzOC4wMzMgMjYuMDczMyAzNy45MTk3IDI2LjE5MThDMzcuODAzMSAyNi4zMTUgMzcuNjYxOCAyNi40MTIgMzcuNTA1IDI2LjQ3NjZDMzcuMzQ4MyAyNi41NDEyIDM3LjE3OTYgMjYuNTcxOCAzNy4wMTAxIDI2LjU2NjRIMzUuOTAzMUwzNS40MjA1IDI3LjcwNzJMMzYuMjEwMiAyOC40OTg2QzM2LjQzODggMjguNzM4NiAzNi41NjYyIDI5LjA1NzMgMzYuNTY2MiAyOS4zODg4QzM2LjU2NjIgMjkuNzIwMiAzNi40Mzg4IDMwLjAzODkgMzYuMjEwMiAzMC4yNzg5TDM0LjM5MTEgMzIuMTExNUMzNC4yNzgzIDMyLjIyNzIgMzQuMTQzIDMyLjMxODQgMzMuOTkzNSAzMi4zNzk3QzMzLjg0NCAzMi40NDA5IDMzLjY4MzUgMzIuNDcwOCAzMy41MjIgMzIuNDY3NkMzMy4zNTQxIDMyLjQ3MzggMzMuMTg2NyAzMi40NDU0IDMzLjAzMDIgMzIuMzg0MUMzMi44NzM4IDMyLjMyMjkgMzIuNzMxNiAzMi4yMzAxIDMyLjYxMjUgMzIuMTExNUwzMS44MjEgMzEuMjgxM0wzMC42NzM1IDMxLjc4NzVWMzIuODk2MkMzMC42NzU2IDMzLjA2MDYgMzAuNjQ1MyAzMy4yMjM4IDMwLjU4NDIgMzMuMzc2NEMzMC41MjMxIDMzLjUyOSAzMC40MzI0IDMzLjY2OCAzMC4zMTc1IDMzLjc4NTVDMzAuMjAwOSAzMy45MDg3IDMwLjA1OTYgMzQuMDA1OCAyOS45MDI5IDM0LjA3MDRDMjkuNzQ2MSAzNC4xMzQ5IDI5LjU3NzQgMzQuMTY1NSAyOS40MDc5IDM0LjE2MDJIMjYuODc2N0MyNi43MDcyIDM0LjE2NDMgMjYuNTM4OSAzNC4xMzI1IDI2LjM4MjcgMzQuMDY2N0MyNi4yMjY0IDM0LjAwMSAyNi4wODYgMzMuOTAyOCAyNS45NzA1IDMzLjc3ODhDMjUuODU1NSAzMy42NjEzIDI1Ljc2NDkgMzMuNTIyMiAyNS43MDM4IDMzLjM2OTZDMjUuNjQyNyAzMy4yMTcgMjUuNjEyMyAzMy4wNTM5IDI1LjYxNDQgMzIuODg5NVYzMS43ODA4TDI0LjQ2NjkgMzEuMjc0NUwyMy42NzcyIDMyLjEwNDhDMjMuNTU3OCAzMi4yMjMgMjMuNDE1NiAzMi4zMTU2IDIzLjI1OTIgMzIuMzc2OEMyMy4xMDI4IDMyLjQzODEgMjIuOTM1NSAzMi40NjY3IDIyLjc2NzYgMzIuNDYwOUMyMi42MDU4IDMyLjQ2NDMgMjIuNDQ1IDMyLjQzNDUgMjIuMjk1MyAzMi4zNzMyQzIyLjE0NTUgMzIuMzEyIDIyLjAwOTkgMzIuMjIwNiAyMS44OTY5IDMyLjEwNDhMMjAuMDcyNyAzMC4yODU3QzE5Ljg0NDEgMzAuMDQ1NiAxOS43MTY3IDI5LjcyNjkgMTkuNzE2NyAyOS4zOTU1QzE5LjcxNjcgMjkuMDY0MSAxOS44NDQxIDI4Ljc0NTQgMjAuMDcyNyAyOC41MDU0TDIwLjg2NDEgMjcuNzEzOUwyMC4zODgyIDI2LjU2NjRIMTkuMjgxMkMxOS4xMTE3IDI2LjU3MTkgMTguOTQzIDI2LjU0MTMgMTguNzg2MiAyNi40NzY4QzE4LjYyOTQgMjYuNDEyMiAxOC40ODgxIDI2LjMxNSAxOC4zNzE3IDI2LjE5MThDMTguMjU2NSAyNi4wNzQxIDE4LjE2NTggMjUuOTM0OCAxOC4xMDQ2IDI1Ljc4MTlDMTguMDQzNSAyNS42Mjg5IDE4LjAxMzMgMjUuNDY1NCAxOC4wMTU2IDI1LjMwMDhWMjIuNzY5NUMxOC4wMDg5IDIyLjYwMTQgMTguMDM3MiAyMi40MzM3IDE4LjA5ODUgMjIuMjc3QzE4LjE1OTkgMjIuMTIwNCAxOC4yNTMgMjEuOTc4MSAxOC4zNzIxIDIxLjg1OTJDMTguNDkxMSAyMS43NDAzIDE4LjYzMzUgMjEuNjQ3MyAxOC43OTAzIDIxLjU4NjJDMTguOTQ3MSAyMS41MjUgMTkuMTE0OCAyMS40OTcgMTkuMjgyOSAyMS41MDM5Wk0yNS42OTcxIDI3LjI3MDJDMjUuNzk4NCAyNy4zNjE1IDI1LjkzMDMgMjcuNDExNSAyNi4wNjY3IDI3LjQxMDNDMjYuMTY0OSAyNy40MDkgMjYuMjYxNCAyNy4zODQ4IDI2LjM0ODUgMjcuMzM5NEwzMi4wMDg0IDI0LjU5NzJDMzIuMDkzMSAyNC41NTA0IDMyLjE2MzggMjQuNDgxNyAzMi4yMTMgMjQuMzk4M0MzMi4yNjIyIDI0LjMxNDkgMzIuMjg4MiAyNC4yMTk5IDMyLjI4ODIgMjQuMTIzQzMyLjI4ODIgMjQuMDI2MiAzMi4yNjIyIDIzLjkzMTEgMzIuMjEzIDIzLjg0NzdDMzIuMTYzOCAyMy43NjQzIDMyLjA5MzEgMjMuNjk1NyAzMi4wMDg0IDIzLjY0ODlMMjYuMzQ4NSAyMC43MzEyQzI2LjI2MTQgMjAuNjg1OCAyNi4xNjQ5IDIwLjY2MTUgMjYuMDY2NyAyMC42NjAzQzI1Ljk5NzUgMjAuNjYwMSAyNS45MjkgMjAuNjc0IDI1Ljg2NTUgMjAuNzAxM0MyNS44MDE5IDIwLjcyODYgMjUuNzQ0NiAyMC43Njg2IDI1LjY5NzEgMjAuODE4OUMyNS42NDQ3IDIwLjg3MTggMjUuNjAzNSAyMC45MzQ5IDI1LjU3NjMgMjEuMDA0MkMyNS41NDkgMjEuMDczNiAyNS41MzYxIDIxLjE0NzggMjUuNTM4NSAyMS4yMjIyVjI2Ljg4MzhDMjUuNTM1MSAyNi45NTU5IDI1LjU0NzYgMjcuMDI3OCAyNS41NzUgMjcuMDk0NkMyNS42MDI0IDI3LjE2MTMgMjUuNjQ0MSAyNy4yMjEzIDI1LjY5NzEgMjcuMjcwMloiIGNsaXAtcnVsZT0iZXZlbm9kZCIgZmlsbC1ydWxlPSJldmVub2RkIi8+JiN4YTs8L2c+JiN4YTs8L2c+JiN4YTs8ZGVmcz4mI3hhOzxsaW5lYXJHcmFkaWVudCBncmFkaWVudFVuaXRzPSJ1c2VyU3BhY2VPblVzZSIgeTI9IjQ0LjI3OTIiIHgyPSI0MS41NjQ1IiB5MT0iNi44NDc3NSIgeDE9IjQuODUyODciIGlkPSJwYWludDBfbGluZWFyXzI2MjJfMzU2OCI+JiN4YTs8c3RvcCBzdG9wLWNvbG9yPSJ3aGl0ZSIvPiYjeGE7PHN0b3Agc3RvcC1jb2xvcj0iI0VBRUNFRSIgb2Zmc2V0PSIxIi8+JiN4YTs8L2xpbmVhckdyYWRpZW50PiYjeGE7PHJhZGlhbEdyYWRpZW50IGdyYWRpZW50VHJhbnNmb3JtPSJ0cmFuc2xhdGUoMTIuMzEwOCAxOS45MDU4KSByb3RhdGUoNjAuMjU1MSkgc2NhbGUoOS40NzY5MyA3LjQ0MDIxKSIgZ3JhZGllbnRVbml0cz0idXNlclNwYWNlT25Vc2UiIHI9IjEiIGN5PSIwIiBjeD0iMCIgaWQ9InBhaW50MV9yYWRpYWxfMjYyMl8zNTY4Ij4mI3hhOzxzdG9wIHN0b3AtY29sb3I9IiMxMzQ4RkYiLz4mI3hhOzxzdG9wIHN0b3AtY29sb3I9IiMwNjIzOEQiIG9mZnNldD0iMSIvPiYjeGE7PC9yYWRpYWxHcmFkaWVudD4mI3hhOzxyYWRpYWxHcmFkaWVudCBncmFkaWVudFRyYW5zZm9ybT0idHJhbnNsYXRlKDIxLjE1NTIgMTYuODgyNykgcm90YXRlKDQ1LjMxNzYpIHNjYWxlKDE5LjkzOTkgMzcuNjc1KSIgZ3JhZGllbnRVbml0cz0idXNlclNwYWNlT25Vc2UiIHI9IjEiIGN5PSIwIiBjeD0iMCIgaWQ9InBhaW50Ml9yYWRpYWxfMjYyMl8zNTY4Ij4mI3hhOzxzdG9wIHN0b3AtY29sb3I9IiMwMTk1RkYiLz4mI3hhOzxzdG9wIHN0b3AtY29sb3I9IiMxMTQ3RTkiIG9mZnNldD0iMSIvPiYjeGE7PC9yYWRpYWxHcmFkaWVudD4mI3hhOzxjbGlwUGF0aCBpZD0iY2xpcDBfMjYyMl8zNTY4Ij4mI3hhOzxyZWN0IHRyYW5zZm9ybT0idHJhbnNsYXRlKDAuNSAwLjAzNDkxMjEpIiBmaWxsPSJ3aGl0ZSIgaGVpZ2h0PSI0OCIgd2lkdGg9IjQ4Ii8+JiN4YTs8L2NsaXBQYXRoPiYjeGE7PGNsaXBQYXRoIGlkPSJjbGlwMV8yNjIyXzM1NjgiPiYjeGE7PHJlY3QgdHJhbnNmb3JtPSJ0cmFuc2xhdGUoMTEuMjY2MSAxMC41MzQ5KSIgZmlsbD0id2hpdGUiIGhlaWdodD0iMjciIHdpZHRoPSIyNyIvPiYjeGE7PC9jbGlwUGF0aD4mI3hhOzwvZGVmcz4mI3hhOzwvc3ZnPg==;points=[[0,0,0,0,0],[0,0.25,0,0,0],[0,0.5,0,0,0],[0,0.75,0,0,0],[0.25,0,0,0,0],[0.5,0,0,0,0],[0.75,0,0,0,0],[1,0,0,0,0],[1,0.25,0,0,0],[1,0.5,0,0,0],[1,0.75,0,0,0]];" parent="OfAU59fTZWmp4iSplw8R-19" vertex="1">
          <mxGeometry x="38.324999999999996" width="39.90793650793651" height="39.90793650793651" as="geometry" />
        </mxCell>
        <mxCell id="OfAU59fTZWmp4iSplw8R-21" value="&lt;font color=&quot;#1d2d3e&quot; size=&quot;1&quot; face=&quot;arial&quot; style=&quot;&quot;&gt;&lt;b style=&quot;font-size: 13px;&quot;&gt;Cloud Foundry Runtime&lt;br&gt;&lt;/b&gt;&lt;/font&gt;" style="text;html=1;align=center;verticalAlign=top;resizable=1;points=[[0,0.5,0,0,0],[0.21,1,0,0,0],[0.5,1,0,0,0],[0.85,1,0,0,0],[1,0.5,0,0,0]];autosize=0;strokeColor=none;fillColor=none;fontSize=12;fontColor=default;fontFamily=Helvetica;fixedWidth=1;imageWidth=24;whiteSpace=wrap;labelBackgroundColor=none;" parent="OfAU59fTZWmp4iSplw8R-19" vertex="1">
          <mxGeometry y="49.73684210526316" width="125" height="46.69172932330827" as="geometry" />
        </mxCell>
        <mxCell id="m9YYBKn2A9ynQCPHmd28-9" value="" style="rounded=1;whiteSpace=wrap;html=1;strokeColor=#475E75;fillColor=#F5F6F7;arcSize=24;absoluteArcSize=1;imageWidth=64;imageHeight=64;strokeWidth=1.5;" vertex="1" parent="OfAU59fTZWmp4iSplw8R-19">
          <mxGeometry x="20" y="100" width="110" height="140" as="geometry" />
        </mxCell>
        <mxCell id="m9YYBKn2A9ynQCPHmd28-10" value="" style="group" vertex="1" connectable="0" parent="OfAU59fTZWmp4iSplw8R-19">
          <mxGeometry x="38.329999999999984" y="112.21428571428572" width="125" height="111.28999999999999" as="geometry" />
        </mxCell>
        <mxCell id="OfAU59fTZWmp4iSplw8R-8" value="" style="shape=image;verticalLabelPosition=bottom;labelBackgroundColor=default;verticalAlign=top;aspect=fixed;imageAspect=0;image=data:image/png,iVBORw0KGgoAAAANSUhEUgAAAMAAAADACAYAAABS3GwHAAAACXBIWXMAACxLAAAsSwGlPZapAAAAAXNSR0IArs4c6QAAAARnQU1BAACxjwv8YQUAAHx4SURBVHgB7b0JtGZXdR649//eq3nSWCVUJSQkISMVSLJ7dVSAV2SwEfGwkA3CQ2wLDB7S3WkkQZy0kwVSu5e7jUESmdqOwYg4sWPARiTEzZAEkQSEV1YsAZIIGpCEBEIC1Ty+V+/ffc89e/j2ufeVSvN4pFf/f+8994x7+PZw70/0QnmhPI8L0wvlCSk33XTThrm51afSDJ1HzBuE+FSe8HoW2dAt86ldlQ19Re4/NyzRzE6S7q8rwnJPPcX3iEzv5e78dDq9h3my8/DBvTeff/75O+mF8rjLCwzwKIsT+ixfWImczmXi82hpon6yyk4huVmm9BUm6ZiEbn75y868gV4oj6q8wACPUHqCX7H6YuHJeRPmv9mt2Hn0TC4dI0xFviDTxRsWeXrz+S972T30QlmyvMAATSkEP7tiTYExF3cE/4ZuhU6lx1BmZ2dpZjKhyYRpbm62EGb97JdcuvPl2kxfdzpdpOnitN7ILAuHF/p9WVg43F2b0sLhxf7zMZWOIboub148fPiTi4f23/ACdMrlBQYglfIr17yFJvyGRwNnCpEvX7aMlneEvaz7nJmZdMdzNNedL4RMIpXauyPBG/GAy/+dpVBOSjkSO9l9rbd21/p9Onz4MM13THFofp4WO6Y42H0udOcOd9+PuohcvzidfnKRFm94QTs8jxnAoE0npi/tCPDCR6pfJPaqFSto1coVtGL5sp7QqwSvBMsdEJdC8D3hV0JWUu6ZoVwrJztq5lJXm+We7CujdBcm3fUpa4t95Z4XapskWq/eabqEeu1RmOHgwUP954GDBzuNIY80pdLxDd29H1k8uO/656tmeN4xwNe+fseFPbyZ8KV0BElfCL5I9zWrV9FqJXqqMtkJOYvyUmw5g76L9Ga9D4S73k/1rDKFSGqEQnmIMUVlJFaNYW1G92K3HZw/xAc6hijMUD4fgSEK8V9fmOH5Zkg/LxiggTgXLlWvEP2GtWt6oi8EX46tiIlz/9KfrR8u9Xs5rReN+LnebtIbJDdVbupbVMLW9qNP54y8U9affrEulWOck9iuy/6DB3n33n09QxwRMgndszhdvOoVL3vpdfQ8KM9pBiiEv2zVund0s7yMlpD2PdGv64h+1SpatWqlSdAgIrYzbBBEJTb3cMXIudSe9JK5HFYolCBLbaU5CBNB1UpqDyoN22hkf1UpymzKeADCKmPqHYUJdu/b12uGJZmhY4Tu1hvmF+evei7bCs9JBrjp618/dZbnLjsSzCl4/vjjNkj36WvgRFyp2KmTALs79FFpbdAEYUrfGIh5vdelfrpuDFaJvxJvGcNUeIio/B7QAMqkAmxTWcF653QP9FvmuW///u7vAO3Zt5+OUK57rjLCc4oBCuHPTeau7Ajo0rHrRdofs34dHbdhvcKbLESJwnjtzyTjVQkzMQIpYQHxmgQXNV4pGa8GlBihizS2BIPnx3B/U0Gc8rFtUoLHNmTgdPI+3bjuTnceJtl/4CDv2L37SBDpOccIzwkGeCSoUzw3xx+zof/MLsZSWHE7O36XIfBA87cyRk+GmXAFviQmwTJgGIrKjwSbVIob8wARO86p8Iuokfo6XGGCe5zjCd20Qrv37KNde/Z2LtcFWqI8ZxjhWc8At37jrvcckfCP3dB5cVY2BIt7b6fCbw8mp3EGWsFEifiE0ERFw7PeNmViztyhNSnwevLucNgbaYimKRigklJ9g/kldeX8DFCptlHXgAncR34DF1tBtu/cxQcPzdOgdDaCLE4/sPXsM6+lZ3F51jJAcWd2MObDNBKpNcJftWIlDexIx8/ZIh3g9OTxCXdkbcOhESXcLuDy1HbJm1IbIRiNaAQCOeSJS8nbIw3Bor2gRJ27FqfnjLp6eTBVBQRQLdkllYsPHjpE23fu7j8H5VnuNXrWMUCBO8vXrPtwt9MXt9d6w7YQ/sqVeWYOX/qDdE9IxyrNtaglzEoc4l6hjG0CZxufqFtTe1NKcoIH6a8Ce4DZKbQISGsagz2oEcj5DINlimyM+cjHCR5W0DQ5YhHGu65F8Rp97+HtdHhx1EZ4VsKiZxUD3PI/7rqMJ/QeauBOybEpGH/DurUI1X2zDborhaIErqI9yWzJEpET5NabwgImJSKlE5XEeRhGgP0d2r+yVyP9rf6Q5rPRKiP75vjGKD20FBCxVWCFX2RHBJpIUR4a/Bio29PFE3bs2j1khGehNnhWMEDv3ZmZ+/BYEKtI/GPXr+/zcHKwKkpjXLqMY5B9FEQLxEJNioObBO4+wfZdOSSYFWkSqG1sPM6VZqXo+QlPOmQzZQxySYJOGa8H+YfnxzWbsYCovWH2EDfwTrIiiJ5iPazfbnCyc/fe3ms0Up412uAZzwC3fOPuS5mnxdBKUr/g/JNOPEETz+q5IF4rzQYHjgfIENif/diCXMg8AVGCeQKqOAYfZQTS27IUd0OZJLGi5wGN3eO2BqRDRAfU9klOy2ooN1HllIjnK2NiHwduWhQcA933krn6vYd30MBQfpZog2csA/RYf/W693QLfRmeL/77Ezq4c8wx6xX7isObkkxWj1Fip5LkXimpDTAUHeezHYb0NQpDpiGUklilVnBaQlsD3aTqAQqBS+juJEoGb+3DBpwQWWuBG9RJ8YSuHeV+9vG69ULhIgV7gUJy9KenyiBmeHewiMdgUVfl2kP7dl/1TE22e0YyQIE8yybLPk+Nh6cYuSdtPIGW9Xn1fTF40h9kYly6IEA3yhT7hwkIXpmDiDOFRzP2nQbpEVbHpbXhbbAvQmt4q0Dv4a4ccXl6PEKlN9wf8KoxjkPCO+QhX7iwT6jxilJGXMYW3BrZi4cX5aHtO3jgLeq0wfx0/keeiZDoGccAY5AnS/20LUq4gbXroUs6AmnrdzHyQDBQUHqt7IYqlExIBCMRoXCPJk3gYyVlCGAlEO7J/ZkwVB0XZ3iXxbxDuVgSYXJU4zPx/kHj1Klq3435RCn9g5LUyGsNdYsm2Ll7DzVlpxyeXvVMixs8oxjg1m/c/R7i6ZV4rnh4Nm/aSCuWL1dpSpT98H0BgnZkANi7FqDCdKWNwLrY9HvCdpDG02ONWRveF7gqUQNAB9nDCd2pOrHOUGMoMhkZLyevj3tsxrRhhkO6JMFALjPifh+e6QG0IpJBL3pPSad44KHvj3mKrjznrNOvomdIeUYwQJ+uvHrtJ1ovz/q1a2jTicfLxJ15CYZk776mEysmYCfa7Hbszw1dpaFBpM3ITJoj4fQgrjF/Oxi4TXBLR5+WoA3HsgwIN6QuWVZqIHigTsl9GN7PmifBQFzcfHO9UqpNq3FvbVJqRVrTupbyGOfDO3bS3v0HqGn6+vn9u9/6TLALnnYGWArvbzz+WDp2w3rfBQl87s5yLzzU3cgpeBxQloKEEOVTZaBGaxjScqkZGsArOi42GDSI8GJmpvWfvwOkybYDTML/TdKgLgMEyDwjlCOolqVImiPrMqegXch0h0l1vZOQgahaXcapULhfSTpIxANI9AyxC55WBhgj/oL3N590YsnPFwFvCWBzLUlmgeBlkJKRcCYZd3OIPm6YgczorBtpvWFCmXc9UCUUfaYUaXc/gvvSERgQfMJFqTjZe+eMUK73gIFmkOQKFUoGPww7ML5rzrhLF95lvC2YyNAmae/XWaryli6KzN/fviNDomcAEzxtDHDL7befxzTzeQJjt+D9F5/8IpqdnUmS3rIvQR4lN14j7R0ORBvkBjKRRX45NglVCybFqXGqcIgTBHImYnR4InAYen7C8xL3DL02ZH24ehABI5lRBZq70mmy1wAJkECiXWOwkuQsUBs5RZt2or9xijEOKOb9svFPtT9fa22kEP+IXbBT5hd/ZOvWl95MT0N5WhhgjPjLI4gvPvkkfwwxEzBKYm787pLrt501J5K3OwXHlOYr0ZNkleA9YJDM4Q589q0qXlbO4Rh3GJ7o5RmV+KRMZMavJ8XlyWlHbnyGtmkMVoBqIgmxDNo06CM6boM5BGtsmbD9gk6nEXcB6FPXLqd8F+P4oYcf7t9uAeVpY4IJPcWld3PSzE0ExF+M3VOU+EXC+IwN0E8nIsvXSYxBSgNVkgqlTWcml+StyiAIhmk9J3nvhM3NqsRVN5STJuqDVIKEyu1DMTY7ZgYAI4THZPN3m4KSAZ1sGyB+v1IHxQ4D60IquTvE17kqnkq+f2mhZA16cSypebwk3MgWMWSfL2ho5Top2n3TCcfTmtUrcbYbeNnMTV/vaIOe4vKUagD18V+H5wrxv2jjiUJh7IXwR0mfXJtVwACDACBlyNw0WUYOUeJ+F3U+FjC0g+jwFodIGTObFCeTvYjzre8kxSU0mYPzEJzJYMZFQbikr1BZMlcIRoDSngh1ZqwlJbkNV93nb/xgGs2HLLH8bgOIC4fcLAGMpe07d1F5UB/LRCZvedlZp32EnqLylDGAwp6b8FxJZDvxuGMJjF0P0AT8UKjLGKMaMktVxZLgfGYeUrs2oIpLSgI2QO2QcFiznaaNvIuhxwZhT3L6N+nMRM39QIStBmGMjRlbJ8GgtzbJdwTPI2BbAgl+raXcMhCNF1gUCZHDEK3GSDfZc6P1/M7dJWi2Nzc4v3j+UwWHnhIIBJjfywkd8Z9w7DEqKlTdVlJh0+u2gHau1kgBIPvOBIZfck44kUsYZ/WYQ11HVbgtBKWzY8+IQgQRX0cUYj4aY66kBRLkCeMTYVCS+BVy9cTEIpI873q5n3Fh+mp8uhIUG0L0J7lzP03sUItMP4W0x1uYx9Rl/4WRY83+CKHmBnEsrYS22rBuXY8CsHRw6PO33HL7U/IO1iddA/SuzpllCfMX4j/+2GP9VSBjnpryjwMKokaKRJBLiUOlpONaCggjgzE1yh9klgt7M2r9BHpFAPIQ0UDCEQ2jvAoViFpY4x4e/d4qGho1VgejjjWpDAtw0cdDSb47do/OzJ9PYETD3Fyh4HezqJe4Z4kSTdn9JX2iPIcMZef84vz5T7aL9EnVAO7nB+I/dsO6jviPIZTAzPHQiiTXHDnxZ7oxqOASnI3glaE4CTKuEpJyu2lHGd3qRAaTxMY3rX15agMlBaQNccI0bitIFXk239IGK9wxIqqaraVyjv7jFOWkHUHliRNkszAIx1knJWBUR1uOMU0Ta9+clwoL+lVTnbJ+A8PeR2jTduNfjlm/TlavyoZxoZ1CQ/QklieNAfo3NTRBrqLqNh5/nBIPkdmroJVJ9SihCvVGzbdcv/uuoHODxkyvQZ5P2MmGrKpBCcU9L0xT9J9ThSv6F0Mz3ki0qiPq0xGyy10DZUgyEB8TXRN2xnHAYY9nVrdMT+Sl/WnK7QmarTaDgPRnchvI1phiLYyRFIKaQNLFhD3RhavNSPTssQIQcK7sYB9MwxL5HMtTfYkJOtrpmaCjJXqSypPGAOW5XST+4uffdMJxBOQqo7gdydBtAy75QBHpVKwJXBMS0DfVG3QAIV7bjWU9BTDEKBzgS4PfowEfJxHGBsgMXFYpXo/ZxxWms0ATXp/JLX7kyXDtmg++GuFqB+D4rLVwSbJqIq1T56/tuBfT18DdnlKZN0nuVGC7APdTI0t8HfXQb0iNluvHrl+H6e49EyxfvfYT9CSVJ4UBSlanwEPrfUbnSRvtZVRGpiYd+sJqQuaVC6NVUnTWMa0tdv/V2sB2VXAZkvcNM2jlVcy8JTYRBoJLMIrQS/equkwa1hZ1UBxuzhEPE6UIaZKIOgaPZUXpO2VVd4ZNBDVAxEvqIkleHx25QTfSIWRoGeth866Iq94bLwZgHQfFRla2ZNuHFvoITohxcmH/VcO50EhBCbMzM3A3X9i//uZJKExPcNEH16+x45recFL/Ln2qE+wCh7qHkyqB1CBT8U7uP2lBMVFKwmokZFuXiDil6vr9jjSUXgwCWS1w9GvLcd5kt1dLBjOc1CoMD7KksYXGs+FYUpm7LGFm4oMV87VLzCfLZ9Cr2F9dU3t/qUIVWFfXFLE4hCsaq+HaN7lUlzSA0/mWOZYymEvE+DsPfS9JgicjRvCEMsCYx+eUkzeVF1PZoQoiquFzE6eMIs9RKFNKKPNNEYEAGQaHwvthjOKdkoHg1I1dULitlQ3vsjFhUjtAE2wYncLl4+fju/v3R0R7Q08xhuAPhQppeYCH3csUUXLrVzmHYxV0AcBzJCkmQDzit6eQ/EPfvgF+uOyjbO8l0DIm8bVDgnN+6uChQ/zg9x/GoTzhnqEnDAK50QvE3xs1HfHDlvcbVIm/FMGFaOIB/fWemCv2Id1vpcW+PhB/3dxRtwN7z9A2kHE9rnga+3WJDn5tMoTcnZ72P2bRBLjIfaBihNrDKoMfZhfUC9ioMYLDEMN8PtyUngBpBuTSWyAy3BK/UZlqXdMCDK+NaSSyQqFSZzJhzxWpp6yKr6rRM9yeiB+1gH4Yx6gt7bdVRi524zHr1hKUDU+0UfyEMUB5gJ3Q47NuDZ1w3DH9d6YxTMvkwJ/C21F1NQaoKjyq1ZUolYxcnYCynmgkWQjVtxJgPtkXl9QpN6dCFlfrjYsSJ6MEJ+pZ4tRBZUhGNyijCFeCV+oxAiS3NdwuiofYq2RXoVntV1FXZV9ZCSrZRqAR69oaC3u/YIxzg9Sqx0efxzBBoDb+wNXpsFRsTZNaYHZhkglCXcLGTNDmurVrpPUM9bT2BJUnhAG++vXb3yLw9oaC+zcdf5xfrxhfN1fdZCbOXbT3hf0fKEJhhHLwDYV4t3wU0lRc21DTGuCS8yYp2KfduH4Q6nI1icqR9lyvhRQnZTjOmAulrzcCRrNXS6ihvtlCr0/DpQhNM0HwrBK9+VTJ5mQ9GGG5kHEPEq54s96hicEzpDEMRTLm/nTnBDetmWZwDRafieGa4trPvpe5dZ4hmUlGMV32RCXOMT3OMvZQyxmnbsEfiuv7STjSxJH52t3opdHPxB92wnzZRGhzksEXNDqrWqGQgHUgAFg5ta1ClAb5OZzGgoEuYxSwR/R+kRR06oxtcr1BoYFS423/bZ9oN1AMN1OVDTjWF4uvcYv51UZArA8QJu4fsRX6eEQHb9v6Y7bDeEHbDecu/ZuqH/r+9v51LFqeEHvgcWuA8j5+JP6C+zviFw6/vcnNRHRusEkSkUnU+RYqOvfveh3VuoAhLOj5EQosLAiQVaqTDUdjpBJibkD8wSIk6u6UeOY3YJPLfp+OuPOXiEJ6jxA/HLq0rLJXQEAyc6Zp8VmJz46cm8n7Zejf9gFgjLN0YH2mIWQhGiNkI3IKCLQk8ac+R3SmQi+/tGxuroPVa3EQG5bPzH2YHmd5XAxQoA/Dj1HYW5lVNSZNr0DXqoLAAq8AAQxJQtnShoQoFtFwjrclljQXgq/RcXjChlV7MfuiejMlmAW3icLHX3F3OGsoj1zIbA63j81Pb48umvqr6DBjaYZxCyOMQwpgpvCASijEqcM5iJ2RtkFD4s3HnGfeEP4I1fs3uGwaX7LAG+3ThGTA0J5hQmhaWbt6FZcfLowO+cJbbrvjMnoc5TEzQIE+M5OZ99hxwf0nnXi8Dpgd64qF012quKQyMUv1E41OO0cmjYCsUUckdCSaz4MOzeDBtE9G/uQmpxuh0KhCEK0virw4mCNgTl/FNAep4UgeBcaRknLERJw8Qy4KVElicaJMZ3MVD5xpMiBz5liPF1DTO5SQsDI4TdQmR8loO1mrOxGbp6e9v3U2LFXUVgRtVO89rrwbCpiCZyfveTxeocfMAC30OXbdul5NkbsnuKHV0Nkpt6ZReyiE/W5Xh9EWag5SIxTxN7nDMQSTqyJ20ai7xLGoIMcM0tifjpHMq0ND4Sh1SIy4AzgLvoRHqPKnP00Gc7OLXJPxRCLz1eGiaU5xsx4INdzLw7QGcmGV/jEelwhOwD2SiI+Tsw1doKpwBD1BWcrDMoMAyQa/YT0x+ujovTOGN+T06fLrQB+mx1geEwN89Rt3Xpygz4oVdGzHmbASgtK7nrV9CRxq94MUH6pYKDL2HZfSjgVPqValkFJkuINcTwfGZb0YbfX+/ipjo02IDvcbb9rCe2LjeoRsQtmjA/CAM45KsllwLtq9eDJeaCNua1bqAS0chgRZ186Q0bPo/pjLMoRLSmOYejzH11Vanz/eA3ve4FB128rg2QEznty+KWXtmtWEUKi7eHH/+8+PoTwmBpghvgaPT9p4vI6DUjDLOb8J4JQD0AJBy2IBGuK0TUl9Vo9fQHWLxA40qtKPmBQzSS/96056SmB2ZhTXRpL88BXrA1/14jGNmxSSkJG9GeVVHwi6q2JwKh3rQimNCdK/f5FGlyZlWDVcvXWqsgUbSFjEsDVeTfzAunFiNkdLkBwpD34PGLucDWYmZJjGDnBYK2Rqn2KoREQ5JsFwX3lnFF6j/teCHkN51AxQcn1o4PWZ8+tmaLGhBTLMDETEHhZQBW/Ewa2P3xknvEpuCCb3p1hAli0pDqkNeSx7agjSAVzYWKsGoygISGtYhYhPtGMmjzTFMMhVD1ngzDWSYPBOMVwTZLIB+5dJCmDV5LjqxpJwZGWOqsiGk9Ax6R9269DD45K9k/oGTVR8OEMY3EHYRcMSZEDk8FZ8uLB1/QGaItY198ly6xAKdTT5tW/ccSU9ysKPpnLr8y+G72lbTqb+1YVO1MN30GBx2WBJX1I3Mr1ag5yHhsM1/K6Qgl36NtK1dlLH08YFqsTnL3yH6D8/wPSVh7u/7Sz37gbi4kS7IYZFN7uRwuznffMiwC/QmIl0kUSVNB0R84L167n1y4lO2cD0io1Erz6V6Mdf1oHgFZHZGYLChUBliZDqvja16yWS4pr5N3saamekHGH//b54lb0pjxG3qk6gjy+IMG5O0eIlpvLA9x6mxXjP0M75fbtPezSvXHxUDHDLN+68DrF/gT7r16xxX28QKLg20bvjhOqgMBmTZnwBI3h1lZ4SQSfxvdRq2pf+sgoGynQ5bbsK0f9f/31CX/jOI0+/H9PUhiEBgZw4x4nfcZy9XW5KNoza1lRC/yNDTalhlrbd+Cz3rF/B9OM/IPQPXjOhLRv8rsTsYjEXcp+8sUUSWElojBOxXYt2iMBYdfHtco5i2khsft0UlEopXaC6/8600JhJRhvbvv0HafuuXd5wt/dXvfysM6+koyxHzQCa6Xm3HRfpf/qLtzgqyPO21jmINyQT2R2pesAWjBKbbhz1ncE+hBbQ740G6Bu6dw/R278wQ//5OzyU8EcqJoUpE+4YIXva0FTxlOT7nSHa84pWuJH8JNh+cw6Y6pSO+H/nxztmONtZtGJPdqGPm1T5OgemSJJcAuIFZwZHYIyRAY64fGEEx3G4xG12kbAEe+6sSlDR26zTeejhHXRo3n+h5lFFiI/aBujdnlB6n7+BZjbszu4rUZHv9SW5t8bxjVaoBqRrEomkF3KZrtiHGBSlNk4YbfB1+8rDRD/2qUr8zdAGAyAaSgYNasQEChGMEDNBvQHxW58S39nby8TPPitO9ZEhxPrq/r61Q+iX/tWU3vsfgisiQS8JYHeZGl6vzTqRGs62qZtjo/JctQEYXKCi9offb1PC1WMzSpz9BIm/DilOsa2NEb/Jl5BbbEIz2wLFLTqz7D10lOWoNEAr/UvE95QXnaRONrf22maNoduLDoVC0oQAYEbj0ZgpVYKGvLtGlTtU6j+/qsS/89BRK7zUvmN5O2dSGL4TQKPA/ng/gZTP7S1dP8671JPxe+Ic0d//Uabf/NEJQFAlPLcTyI1JGeTzZOkfa2GkGDCIiAg9PmnTyJmJSJ8mYw1oZsJv4BYGE3sGngIzYj1Yw+7goYe3oxagTgucdjRa4Kg0QCv9i+dHZ5DyNWLu4v+iQFMhZ8Rfa1UPuzPLVEy01RYsJKptUMr05LphCK1CzPUX+N69RG/67KMnftcpyHFAfBX34/kgfmkIUwQkLOX2WIbHMkLcAgSODOReJfGO6Hc/N6U/+K9T17pK0Bidq81K4xiwumK0KbECOQBmMIgatzdbWwaTyDS4bZ+YxwnfywRMWDWrp7m4QCQLpkksCCxcowVolueOKkXiERmgSH9u8n1Wr1qpD40LDEH/ZbdrdNhRkEoTbnSVip5ydPF5kpC40cyGACQYw6SGJ8kR/eoXZuTePY9S8lOsL0IUAiILWOO86lI6wAMRLYnhYa7TIPYsfu1806eNTBmLg8D8tt/65JRu+Q7sj8iSgSi9jhSOGD95e8yTNLZgEozDDJFzBkmS3EspvSLttw9OYF1M6iHksrJ82VwKjk0mfOnRpEg8IgO00l/f5jYIkkwg2GWqTkW8JIVgqktdkb1oaj0VFIlfYRfUTwdcUJ8iHYIIKOGP72D6wrf5iNTvhgfDzUKNYUsjBEiuwhIMSfepJT8dZwL/DteGXqZoV5q2kwZJ99T+/uH1i34Hu2eFqDVKdf5I1Yb7BbwMBKOlVosIuRYJqQ6iELQC9OLCi0JTaP82J8pMr+OvAMK1T/WTrV+7BuewYXbVmkfUAo/IAF2Xf9O+L1++rNcAFuioxmod3rRRY3VcJI0aJsDLrELaiV1vJgyihBTwf+rcCTLdzKZQcGB5+L/93x8Z4YWEiU/b0RbKoEFqMAQ/U/0gkBGmoAHxJ8i1xF+OPQBhjI5T6It3dX93+uOnLm45xwD0O3GrIQRcnnYco0ZaC+1HwXAhqcW9RiC5WUIDOL0M+DpmJUSgPETBM0HsaNncHBdNYGXCk3c8khY4IoWUdGeCqG95Z0vl4thHDjmIe6pRPtPz9UoyYCgvoRlMfU0N6efRKNMYA3E8OYHgSlMj+L90vv7HAn2QWJN01U/D50EUU1XrLQGL2wpjTOHtwo628Kr+AcPAWBJTOWNqZ9Dmez8z9dtUMwsSsggoF323kQBoH4E7Sy2q8XqGV6FtDL7a4BjnUnt0MCcq4bNRrvNji3hrL9pRz2CtR2hu5Zq30BHKERmgTXfe4A8k2Pg4+ZJxMor9LAgAV2MqitvjXiVldveS3Y9SQtOIVep7+lkE1PvyyXsePfEnSUqZoJWhYQZ6vgxjaoQX7XDsL7RtTMFDwu+/c8hXIULpn8aXzlFqq41Q3/LtKe3anzwtg80gXb36IU1MADJlaam8IDtGWaFGLiNUqlAnNI27YU2qcgoPuObwzU/94UIYE5RfE0Vo19kCb6AjlCUZoM+uA+nfYX/lRPbJiwWc7ByYYzrqsPRq/o3YYrDfZgFAu0QUKURxv4sVfCd+1YGCa1GlB0tJb2gLPwJPeDYmClIgusQQTCOESImJHMeCaJRE+DRkIop2xKQ7RbvcjIlSH0x5LZh27ye6b8fIXLlFGVGMCew7XOGmXt1ByL0yjE6xoiDh6gxCaApNXdszTAc4ioBSYjHY6KZuhcXK+0RHXrt6VYyR+MIjZYouyQA84bfg8coe+9cm49/w+KjUN5eXIwT/88SyVmFgwIYRTngLlciD8XBNKRxEbEGcPuq7dzgnWXLLK2FZlmgQMXhrhIga4vX0vob4g/ApMZNITqVAcUxptQBLtAxIyKjihD7sMzjka/cLrJ2tBeL5YD0MgEHdfK93IcjrQyMX4jPaEBM886sB1OhLp+TRa90DHT08D6yaxO5RA9ocI2tWBQPoxC+mJcooA9x0990beDJx1VFecTI3M5P9kqJvOAZyZIvQxq7XfHhpBUFaQEsE1YmILxxJaIxYUYTVzhgqEZxA+VHh/6n6tIkySSRpq0IOor9AY37OoBIyjBEzZwGa60mcTJrGzzG1jBb9ZWazlbH2798uIpLejGHGTKvHBouGBjOcq5o2MI/gHrVFmhQYpXm2NwRKaA9B9BtsWTcjWhZFFAkv2eDKGyQkGcNHcInOjp2cObhwMc3M+A09R0GCkmbmOVyESUTUghktLVgAQUkm5vK0uoo/2RSeSx+JbEd2JvCYQL2HVXrUXkc5AHFqf2xVWyJUnC4SAM+IU0DsZcLVOhLHLhGn2L4uGDCJnS8Znj982qQnqF0HhP7yNqJv7SjVppSe54JPHpxT08nlkKjINIzv5KQSmhLuj7XSZxS0VXZPRV00uMaJENhhrXtpjPDZeaBoALPeYAlJ5WsINXZ/B1rE1rbLU3dY9a2uW7OGvrfdsd+GmdWrixa4jpoyygCTmdlLbTWL8dtjKojaRY/6qRN3PVYJIZgAQ+iEe1cJ2Bc/DNnaspisiYUkcM4kYnAgJEcU/RnSkm86iig0UofQghrGACYiafpCrWIDjDZwHKesJ/pnFxfin7GJ9ET6Oz9O9L99XOhP/3pKCMH6hWwzR3Ws2fMURGrUPJ1C2kjkSbRjb9aR9WEXQtjSrrU66H3OQtK2az6OqFqbD21mU2DKZluGVy6QSTCirFzVueyTC3eWJpfSCAMMIFAf+SW50I7L447E4bONmbOBgrx6niSlcEVdlwppCCRBTMz0h9sJRAOLNUQWdMVjz6gS09IG3rBR5WLilgYy0RNicEowxbEvEHd91ouVSKM99n5z2596K3fSn205PGennPhnl7C86rQ8Jhkxmofjr4wUEjYHMBsJ74VHvQUqENj3gCnbC5rJqbC3ToQly5a0rVkZ2cLE2NSPYt25b0S1i07bdAgK3nod3klbGr5wDAYNGGCGZi7E4/73m2JSzaqTjTAsRXe1qXvSGYVB/GPqN0liIYsfwzrhePqFMQVBgsxD+uzuiPQaKQBz3ADW8wLElKS8EnvO8YNEmxC25Jma3pfdT5lRuo9fOLc+5MIA5ew23Uv++6/NjJoYyEUOjEPrcnAdujRrVffiMC4wjTHFcPkCr1hbed3FO/IOSXnSCN+Yqt9KXyu2TyUS9ugvTJ3Q95TTOKq9031duWJ5GvNYTGDAAJPJJN7rPztbIr9iSt7WWIcOKmygCcmWn/LLogwNQRiX/FHG8O8TqmUXi/qpORSO/6w7dRiLM9GSxZuWxNKuuyTqiUg69g4b4ou2xQk7iQsJRgkirWD3FZvS88ANOqoHW0+aJKYZ67vVQngsLnIGIyYz5vo1oOHatSgruUjFPT+C/n1sq+6iZ4YSN9m70mQLaH2YfWgOFH7AQ+RSEJTMss4QfqSYwIABuhu8Ukl70HkYN4NJBDEqPY6B+HrBsgsjbRG0Q74u9X7NVpdED+1mEzBKwCePT9BSRWgkQku+kW0gKZNMJjBPvmjqh0s1NmlouITEXrc820bcMnDXzvoVQYWJ0EmDazqWhOexDnhzpHGB+jrqdcotoKQbIXYbM4PmFV8KUuKx95x6vVSfwHlhLzJWKiDKZls6Yic3o8Z6PaBwA4POa2FQYoDyuhM8blNMY7BkWE3Tm1upofNmY5p4uscnwVBXUFerNGqJ2HSozoUVE+rMYhGElixDoicgZnIjzM/5iLI0DQkMLJrF9pAxSplmhjJi3XUwDRPQhSd79QKBYawxJ11hhXBDaCTWl+N/FBJ2nNYJQ40mfirDOwFLE9NphtWeF90dxcPhz8LxGEggCLiJCraMytIJZX9jgliGUsor1qFsmF2xJv386qQ5cAaYmUw6I2KF9RB0EpwNcpc4jGSpjKijJxMgdcwDRQuqjN1mUKtBr3MaRL2FxbUSk0Eo633UCNY1M12bpKONp7mOeD3lBSXitlEwtSqO8RviiIZZ/vLrNnRpjMQghJLUlnSuADCl4byyvCDH/2PaccSH784xddkwcyPn1GdPoxHleHUkmBy+oFXQDFAijTQEHK0LFHrS20q4TYJpC40UL2Zj4yQhnxigq3iufe+9P9CozwPHg14bRw/oluqpUxQtxK0cc2D1MCHGt2ZYfSlW1+fseyEmnfurHhHlRhpJLLG58gaSHHfC75GG+A2DSiNh65/gOf1gE3vITNqGMd5//abQv74J3MxM4D6scOAf/ruIL6DwQCbN4891CSSupGS4XmQIVNEfFMeVs1SdBJ04PD4WnbcVhZ+qTYyNQTWPcjLQMaGcYYND7EqElWjI7jeh7OkQTGEfSm/Tph/da+0AZwD9PVZXD4r/+7EwMyygM6LznZ0zGldVKXA7LnCGLroARrPOY9PwJiHcEV/UWFDz9yaokkpIZyaQnEbjA4ZQmS7AcS1hEyUidkZJkp4avE7eYVv37358Su/9j0L37cxp5l+8S/gNfzClW74d8+qvTJt2m37ztbgNNAAHoQwjtQJ9ofSXoNPQ57bxsD7envhPrRJBQItUuNUNtNcixn06WmAiiluFTNylRYjpCmOO2PJlyRt0KtoBzhozk7mEjar3p+4VT0wwSzJ0vDsBMc1OvG7B2AJajkcE9FBquOCuAjBkRNI+Gl3lqOvyuX6v94UGQMLEBVbiRFUhYMRGJa1nO4UPt1Bcc6Zo+0S5JuJM5fUhteJ3/4N0f4u8ZX29tvsAlUxOGhrnCaxQI1CSreN2TGAal8JLOQuMcgz6OGWGNWy4qJ+GvbMnHJMyBrd8s8nEZ9hQPJWgF80DwDvZacvWVMxItmgxpT0XzzoVXrFsGe2G5jAq7AwwYbrQK3RqY/ny5a6OjaBVHKTQtkdoY5EZJUIl+vrSKxeYlurgcjQ4Fone14crEUzKO39IH5I22aUBtipNZID/bfOTiFPCRok/JCxntkRsNmKCJSGYCUp+Tgzjk6/rTSAcRAgWp2ZvSvSXxm72CVGeqY8dGc73pMpMgD/JWwZ7SMEorvA4uAZXVrLI1iEIDT1x4LHXI8YxZtKNpdTNs+guZ4EScbg+9RzaM4+S0V1nByRG5unEhf0kxghPfnUcI2NeGAkwD5vCREyCUsjVGZCHAPfr10h7qByrBEy2AOidAAJXuAP9aVs1q1RjDOVvCpK2IRb/NAxPaJWJEyUSdDCKboK0beBypbyVqEfWHqU+EEr5Avh4GshFlGIJIUqwLx1HjTW0kj65QvVHC4UAUmIBdY1nK47BvlyyUxLIQdEE6CFen1j3OrYqUQucIoc8db8TAwqoF/dwTURbkvy88ORv+neYkXPFysD/ZJBFKVLcE8H+sL9USY8kHhkKQkbo4tdsAiad26WNOUGOBxEstDNJMndDoplO5DBAfTACW22tcYqgLqURErMI5Xu0TpyXoS9qjGGadr0dyjEGc3NmRjRGpVHirzBBWsKIVh3DW/Q0hbjJdq6R6Gk1WbnPhCuB8eAODpPiuFxMCJVFWuUrPnOdCZG50wfjDkZAMWsZCv0U0q/Pk3g8oGeA9oEBMIBjQNa8WvCkuM98y2kCdZROeQy5RMY0SppxXaA7XGLqn+2MkxoxthyBINRwQvWTnzbUZ0SWCNcISOK4mXh/zWCMylpuiMzH6swWTpwUXW77kEY7pbrQLlkUmQftMDX1sW0hMAW9BBMoQ0gvLCeBIpCopP1lGnZlpJolQQWukiePKO9vbbYExiYcCFMGo9Nps7Iq4CRxYaC2h7p4tWfIFOiJv5wtP9uF/c/NrT61fPYMwLOTZACX4IE7flrlqROy5VFL3H39ukTiv7xurjL0NAjAHaMsRxUhQUgbVXiDtKB605irSgdfNDZIEQyCzdrqmqR1JqgNJ+YY1wBwjgiZkMTbJWegROSwrGPEn8dCmdlojEGNIDgxITreRqR3CmD2K9D/uB25VvDVYosz2xBNqBEhGjNOVWFSr8ZeqXbhgLXOenmZ9VpEnCi+D+27cDCDrVP3oac/sQfNu3jAXO5jli8sHxUCiZxq54vfdGYyU808f17TtkLq2k0jJdqWxL7bPvhETNLrk1wmQ9V6z0RPXkWH5bieYJEJuUZpyfzFYpCsJf6QlO0f4KhEbECgibCI4vcFoBjDmOdOkAKwTrTZvlpR16bpd3wcwz7ifJ0nA9NnQF23o36IM4NibVddJpEk3TzAQTKAWHiVDCnYfjvs0fgQ26azOf7ESN7aclYQCoeH0k1fT6EOOTqp4086sfP/08xMIP7utlP783rZA2DVAJ6yqT7y7E7bB+FE5BTOMf0BOCVi9+qw3sColAUeZvENheeGa3vm4rJK7Ozm0rbyD46VMG7gE1aeaIk8ERkeD5ghCNO8UOg25UYC215ivSBIaAegWmJcGzRJQ/whMms7PGCgmDDcN/JV78ZFEXDqkwsazstlc1D4IWbFprQKEXBiYOoFpE17NXuU1RhRyd06R0nji9cMRmJU6FwBOkm/Y9HxQk/zE+0jDOCSO9F4AWKFzRuOWi++m9uJDJK4fVAX1znVNCjStQqCptPk1kSZ5icFXbRKG8kCV7CKRE6tESuet28b6+KjfHpimx3bhKFiIvJgDNtZG3rWQtGm2wqUCTqNo7knHcN8ExMBF+ua9+sqA2yvRBmWmTci2UIDXoagXTXGOVzcQOQaDNX5AOkCoROsMUcKvULCRAeS/8EpRmuh2ZWPWIp7P+pxT/OT8vxvVzsiY+UHro2B0HDVu0wqmwQTC3srv9mAWBWfGSq2CPW9jw6bbO4M9zJ81s1y/kBfddJwId1t4YVGvTRGHPlunS4QkIsnYBzRThCSpFecEPZDTsQERE0S7UQbOgS7pn8iQ01k9cYZSNI6RH8tG5BKZ5UYKr0p5fVgOEri7Qess+nbNTsPJs5A32yPeJPJIQriItX4LEZXRIoAJNCGNHuKa1F/ZAOPKSRsHai4J3Fa84KgbCieoAktLJyKZ3sIFCsXZB34moHQbE1jR03+i1AIDsX8Qu4eVZhiE/X/QreSuebsBpyp+FZoXY5xVCknvl82WEpER0FoIdW1IyewLKxYGujjbVPeGMrXUGu3DES6Tmj4jrWBGkYStwPjwP12DzfLZ65EkUhREZWyprEB+jikYQcUtgXkNNGjFIA+WRDqyrF/97GqkKk2q51QHM+wmOUE56Q7sbnop3XN4TBxe0PHzzKZZIYpnqDO3J2ciidnOmNh4hAoPnvJPR0LjvmQ2OIEtgTcLDwKCz0WW1bFj0RBGmxahE0O+81gbAkZ7FGcKa51jMaHRC5AgI2EbzC4eBuUiJCJMgOZtpDGL0+8xLtBcXUb92b5f9rUJ1xTTtfQ02TjsrY3H8e0dUv0zsrWnqrAGG0gwljBFGBSHVa8fkRsH8R+GM/235qq3sHKn702ATvAhKkN1zyFKOaUJghcpb6pTujSGnsJMtffUDPXKM/NzjDWncxNTp3trONTsY3lNX9anHkrGQT0sYGI9widUxJAlqdBAZmCcyXfS6D22PUgR0sWLNH7HB6wq3920mDbnFgzH6PASIFIeQw+pCEmw5saXEEm2cK2wPYpEXcdnk2E0lgYV1GgXxwXSFDx6Qbxr1vJ9KuvnaFtZ03oVT8QwX7rsl8+gbfFYSqE7UH//IG9pobz5uq4meHtDwRzI2RuI6IppwX1qbJirUAMTjfgEomgVugiofwgEYzfKQHaotmZ2UR1HYOfOtv5fzeUbLdSzEiYerKZwJSc49iIDASN4nQbnN0hwAT1mIKb0ya49PfgiqUq6v3TWNG00DH7KmbKIAA54ecAO/sWBUHpansf+DNEbtC2jGL1252IxSEncuw+tTN0ZwbzyCjux/GUz62bmd78qln62W0TWlsehAqNCrwlSrsQ3XVjNbRMr+19N/NypaP+JoOkDpmB0KpP3jw9tWnw1rEJg8RjkeTGabuciercue+bXQaox9J0T50UE4jb4gpdXJzapVNnu6unWuuzaiSApGPgrzBGHbz4cCVegKIYj+3/4B5royS1GfFTqEGfeG3Z+lUmN/gZ+5+8SCKx7pK8e8lPTejzH2Bn+Euao5Hc2EY9H2Jt0I41P4023U9PAF3AtTqYqG8Bngt8v6WDOddeOkuvPGui08zReWloMoif7QVPVdiwxnicdMl8PLUZg006DiVb8EbbGlFODmBYn2pyuxi0WI+2wLFTzgTkKhAQuKMEe5CszobcjqRGk/RzKQMra1QZoEM/62c7oPRim8qkvwhmuLrCbK2ZKUIOJJGVie4042Ylboc7dUSmb31J2wlJyuhUyvaMqboJRJ6GoWsjsWU4DiUe2wqPDrelka6ZYaAOngfCjGPdJD12/mltABphOpLMeMagzRh18fu5rOuk/Lt+cqaHO/5MRGjT6gMhTYTUY5xK7E1POmEEVznNpCg4SNt+yjYttLpBg/7Z0YHumZOxQy2nCSf+cJEDCQuIvqR6pDWAmRrmsEVijrhDV7kExCj25ZjkF1o+Nxt4XwK7wx6YRnJJz8R5kxglDIVQhrFRoivdFEBb8XIriY3SReU4ZyqUIx12KDUzAetJ9eO7HQEFoQYD0aVFcGI3prJ7mJBTrB5TaA+gvuhHm/N2lSwQ15sQt9lfdO4M/eNfnpF1qyq1T6fT3i3IajVargKGdHxfdG8mHsSKpa5BUKVR33CjQAahVY1c8vEREywJLqkb2uJmm3OLLkafF+SWp9pvvvSxpJU+3W3qrsXwTrKJbEcs7NZE9y/GAmgiG2Y7NjjNVkkg+5Jh3fMAEvciBxqeawdNKoZEyCyZhupI++nbkIxPoS1fOGMUMJi1hpJgjEGQmEuZZimKOBuHlTg1ETwOWOB+najwKKGnDW8khtd3Qge3qBLiRGuvX0H025fM0Zu3TYjScCqxT6cUGpOoVWpWt9+KsEXEl8TwDyjK4D7CeVRlHhmdXI0vWyP2JSEHCtTYhManpO0wdMzDddJZGuF7vzJtnDTOjA636zlOwY3uy+TFSQP0QbBYJRCPsH2CWykIXZTQKREv+mVJ3VcSFWFB2HtME0I2MAAkRqCEMIgKgkMInXedgCi1EuTihO/YtbbSN/rgZJwZJJgqDQD5XBqmxzYE1nyavATRc/d968lMH/6N2R7zD1KBVXIqptdTgfWJ4gkwEPhsQlfPiy+P87dZAYqCBcWNcDSWosrhXeqrEXolqoOFDcaEtUmmACiWgEJrSJAg9kR5oxshln4LmYoRPENYZnkyWU8gbfoRUkO4WY+6KFB47p1Vr6+BJHLCCvqXsA3sGqxZvcnQVfZM1B2oY7LxwUxF96bKTxcrVSKbFOaslaJb8Q6iRwlvKtbL0IRAwgMj2iomRoljEtAUFEyoGC/GA/f87AUT+u03zVAHeXQ4ZkWz34JagzlJLZeWBNLTh9X9e/9DdWL3P2Rb2LlTV3d2xhqmzSeYwPJbEm/bMPv7HAUwLB7eww5jdNo20jo2oiA/VybBt4gwLBPBXKJjg0OBLMIt4i0QSDY0cwm5jxvkrQPxAf2K5zgZXnfrxWlDiRGMXL2vLoB7mdTvbIqCKARWM4EgBtZAi6h6d08LwhGdExqw6dPlIDAFSbPbjdSGz/4NzonQQ3on96kgo1AQv7eT67/rJ2bo7/3kbIaFOhRvn5ka/mZbbZ14T/i79xHdejfRbd3fl2+R7vuUvv2QQa7yAt6IwPn+d+fOfsmETjmR6WWnTWjby+foglfMqUY26tX6IREdQbqrm1jA2A2yr0cACpxxKYv3vAkodJxdMrlqA24LJQhEPQNAKRYyUGbToB1wjEoI/a2APZEFQxKDvcBoOwgbE7gsi/uVOexmDjQVC0boCaKMJaEdJyw/F2M3IvTjprjLVFRHN/fU6zzot9Y1pkDGGk6VkEl0vQvxl78MK8mnyGOwAAVJd9+ujuj/6laWP/p3xIX4d+8LwnbCJ4H51+sVCtZrt921wLfdJfTpLwldU8/zRduW0UUXLKeLXrlCirYQMTXBiXQEnB5VC7VxgCkTMHAYtoZ8PKIbNoDJxDE4ZMsskEnsD5NlhuJbb7/LW9h0wvGdylvdtFa/W6Uhk0WkLbfsDKoDEmoMVm/JpTctwe+ABSnd7/JahxltrLl2hjJskWzSwHH46CUkN2oO8OELtInSXeweb3/pfpe61jLVu368Er8vQ3YOCCwO8IEJOaH7Ojjz5zfMUEf4tGufOGGTEv2Q+OO70DTqK7MsdX5dRzIXbVtBl//tdbR54wzlXRSiJr4gmYB8D8FWtCkw0p7PmBOpSAPphECzGOy2OvsPHKRde+Lng5rfB/A1BaJNp0gjb/03VXscEwETSdzBmzrw2IHeIRQGEyPuB96LTbVF8qmr4jE1yOBoUqa0eYwQIWrOTPyxmsWtwiAIGNYK6QDZ0RiD4E4SkNp+DOJKgr3L2UL8LexBu4jcC+LYsy5Etwbf/h7T1X864Y9/fmLgJBOt/rk4cvgjtuBkQBzvM3qQpp1de6f00c/tpY9+dg+9+cdW0+W/uL5jhNmYjyjzgi0i6KmrE2AXoxxzZecEdrJGGJUcveEjDwGs9V2LNBI2McB0atwytYE6vvQNxFekWL/sGFA3SOy8VHhiey4MXh+JOSjB6iQY+ZhTzMFAHxHwVWUDAmMniL9Nz6LG6EUsjsS9fjnRz58r9PKNHfbdYPeA8AXENRBpko/ck2L9W6SI1WzwEdaPYuiWtIYRzG/T9dQRscBX91egzh99asLdHxWsj1KaGikvDdFXYTKuHeoa1Xac+FO9YJSPfm53xwi76O0/vb5jhGM6RDEjDUGLMT0zRGqZG6JXYecSw+cqsFw8pfiZWpF4q0jIKg5DuKtjaRBWEgMsThfzooNKz0RdiRl3xAjWBmEMoRaNc3xklOJvuTBgDIKoCSeGggXQFbLLLhFcXqQCUhfP6fIkpiifW08k+tSlxeeO+g+LykHQFCAspCFcdTVW1+V0Oo3QrALdtg28FTjP5s3Gzkb85ZYv38r0rn8623lxbGzT9IlSnAbEP9WxK8TB+q4V4DwwFEMdZ4Tu+h/+xXb69Bd309Xv2sjbzl3thI+IAb+Xm0smwtSS5sgFW/0Owo3xmRRdDml2SLlMhSe54GXKSLvTkbyT2u01yU2ugkLrkRK/GDdTI/EQQDjrWsc1r7tx5lTuFKfDqtaTr4bcYJq618huNgRjaipOAKwhZVvD7q4NkF20zp/8HEsQv1+RGK7rE1svFxZDjG7rWX4S1DdXhsROfswpB38p720w2bUfnaGfe/eynvilJ2YjUJD8SvRV3Eoi/n4NWHosv7lj/s0nlM/OBbqKcjvtd1JGaq4Zsdz33Xl687u+RVf/y4fItiTZurFE/ZcgfsEPXRRdF49ZuCD2tTGvo2IfxiYS40TZWbJBd3UXNuASVy8iGK3u0eyvI4cGppPsh+1nOjVqc3+tSPLvBxQgcSTFwDA6QeU3ixST/lCfCtLoNuBWwtdEiYQ9NwfO29L9+FlEW9aDS458VrDQhNpIGZwkoqiis0YzIxwdInndoB3r2PKMPQgkhiUr3OmPC8z5Pz88Rx//TxMyKR0SGQm1Qpf+2rQeF0J/3d+Y0NmnzfR/p2yayNpVFu1ih6Tl+Na7FjrmWqQvf3WebvzqAbrtmwtKZlMaaBPrx/rtzl/9xw/RjV/Zyx+8cgutWzvrshViRCxI9OoNdLqyrVQrYYTo8y7BtivxBgzLMmdngkCHDx8mG1G9Vbxh1v3Joptww8km4pidm44jiuUEZ0NXCmCtpISj2+9CQOG/vqaeBPLBWY2J+kPaYQTXlYtWpIE9II9KefnGdJhX1KGppRJ44plRM40tDznPoLciL6WvgwjekxgVGIaLtP+19851/nyDPCYcmz/D7d31tauFfuUnJ3TJj871Ut7nQbbF6qJEyds1u/X0OTnnJXNcPD2dXpD7vnuYP3PjAfngJ3bx/Q8uULYjsl1hY/jSzXvool+/gz529em8edMyQdrp4aElNdezhm15VFNSGMXo9XIFSu4UMdHBKsalg/lJmHUQaHK3N9xsCcMmCWoBJnTbEmA1aQaYDJM6REb29X7ZhHyVHgDslIOl4RuIFTlUCCOcEZbaZmRQFaNXrhpeE5+OsyA1GFIC+tASJRN/E5iye6cW2dV7Gne1DaMniOLe/Ln3LKvELyHlYxxAkN1fieS+/x0TuuVPlsnlPz/THTvS6LUPCBHcqaQkw3vHvYfnbRev5Rs/cjK9/53HqesT7YdpshlsTPc9eIje9u5vUl1EIRSWNh6dvgB8TpIdV8O0Z42bxhspYC/ckapCmHMb03snHXfushMLhxcJ1Yuq9rEdUb5SYuew1pni/WUm+V0bAE6ncHmhb88Wuf478bbYe6XQCcwheENw6gJK1LcxkJ0rfy2U1bq749da3BlRrkwA7hyB2JHFjOiVfsxeEhQsQfBaT2/UYYr9MdoZv/be5X3KQhCYYe8gwFJ3XSfx3/02pi/+i1l6049MCGCqr30ldP9Zosqssd1mArLJV2k8fW/+sXV04x+fKu+/4gTaUlyfblelxbVNoFvv3Ec3dtrA6ESy1JG2fUKxABtTGZfTfiB0rhMQN3eM5aeSvUAFPLoRXFJqUzGxQEkMWmdKy+zcYHhNSNp8E38KSDU1g8bm0CBsEpL1JucNieGgVqqThI7q5GGpxEA4rCSQX8vWX3sAZh/Ma8/HBmU0EAa8UyAzkhAdKyDb2O2CXolb3BP76Y4L5i+SP7g+iIvVA1O+X7BV6C+vntDbfmoCbTgTBuSsJMIScoj37FeRIGlt2DU/ayq1Db27dslF6+nPfm8LXfK6dT6ubJCHZrjvu4eILOcau9ANGWB1B7NVeEqjoWzcg7YaHip1FuE9TEyTu2e7f0cZwA0HFxbcpj2Yy1MQ1julcvrUvBQyZxjGA4iciSiMHp+1cKhmUoaBiYXhqGPSnUGDBR5r7Afq3ERZA3T/f/Eeod+/kejXL9C4EgUloLHfGrLS+OwlJD1LlvrU1NVVEtsDd/UaHrD5/dGnZulDn5rpidyMXQZVZhrgsp8juuxnJ4qGQ7OEsOgZjO5/cJE+c+M833b3In3pK4do997FLn4wrfWUiM9+yWxnME9o2yuWdX8r6JzTl1V6Jnx2u9LHlk1zndvzRb0meP9HvlvHlaBQDXps3ti/e8roh0ALBF2EJeKMorNhxixXjSHoBQF7FCdORiKLi4u+8J02uLf8gNI91v9CZwSzJ5WBz7TKiDxgcYzghm+tCt59Zpf8Ewh06PgSwfRSqXGRqgg1w8/0daIc3QwyJtKV7mrXF+oG2BBqNRiqF0yL+K2/rJrgF85n2XoScQmK2bjY2VlQTAo1RcdusoFbhslTJ7epQG0ku+H+71XpL5Q9PWbgGux53/9OdMlrJmmtat2qVPfsK8GqQ/zZvyoenQXK0lmA4Wt7t911qPMCCX3mS3v7uptPnOErfukYuqBjhmILMMpXncflv3Qin3P6CrrsvffS7j2LPslS84IuJvDK89a598thMof9VteZ1U4g9xLmjde6DtoI3jZtArE/Esf/vm66R0I7ufwy5AzzJ+zkaVteBC/Hgk0CTUBNwCukORnbBU+AuLZxEgGwj8nlyzV6arjUCNAsJtBFFJ4gEsd763+XQ7oblSmhJ3cWagvUBtpJdZkycpvn7AtqE7inbYfaevr9zy+fo1e9lDEmgHozabdX/53lGuSCfB3JmP99f5foTa9pkUVsyLV/Ok8f+uTBTtIjLBlzZ6rKdA9SC2Okk/Iz9OaL1tFlv3icby/FcvfS6L4HF+SK372bC+Zfu3pCv/rGE+ntb9pEa9fMkAlXMRzWQOZE8BzCYEhzFS7WF67BzDm2S7VDb+N+f/uOaFbkp2cXeXrPDEXC1cFD87RmtkkRIuMqMunPySWkM+9fd62hbaPS2M08MBs0EbgXVJm4FAgXXUAOAp+xiTWbpKVKkMEDHhDhOPEjp8Y1s23IJOjUOuVoR4JqE8NBOy2TlFJSHQrxS9gWtQmn+fAQffzzM73nh9sENiDOd7+tI/7XThJks7257e6pvPPa/XzrNxdhkPY34st3xtD2ndM1aEaFuOc7mPM9+uind9BH3/9i2bJxmduAJpa6c/yxq88ioAKdIkBGVtcvE0G0tsJtF431qo/JZ2cQU50M2L84sZChg9bGnS5M75nQ3Nw9ab9ExMfbCJKMWepZHZZulncsaizZpzeidANYX4msNgDwycku0RROf4CibKbGQ83bl4moIX7S/ZYstYGwva/pFHrM+lhAu0TbBrEkj1zb/dXX6GtZGX97V6w9h0vls0R6jTB9OSUmcNnPEv3KT02UgWyi1Yb70L9doDf/H3uD+KUJkEnDEBjNtboMTCGmMepkCiNs+9vf4Pd/5EF2IeTTNcZW2GwwrwknWX3x9u1m/9eFaA0lMcgb/8oU34QY5WS9sNDHuaIsLOy7Z3L+aaftJEiHODS/QL6QgreLYxZTQ0LtqwsF6QMNQwMIuiiUXIFp06yWBBzOqQF1kSMNSGCsvWpReAYEJyGFYeWohToD4jdPi4llqvVamknMItDONLSFM0X3uW4F0evPtYezQz+Ct8abKhmd9z1IQLg51WHziUKX//xEbHnA3crX/skhuuoPD6b8/7pmU0oemiaSmzxMYveZjWDnFut51RBX/8sHur8HlXljP0t6gwBjCD6dBu5Yo5vkVEhmmnvgAm5TRMynAKDrvUPaaxLhdp5//vk1EtwN5eau0oXl+/zCQoX5MibvQxENjLngQSdCFcgmGWwwwBgaeWTYdP2G7bPEa1AUELJJFvaMWDEp4nolzukaC5KbM5p+Zydcq7OuM35P2WBJcUbEDG3U4cd3bdWgkukwp63aR3l/z3p/tHHKCH/q8pHZo730r9pd170h2H/z2/jGY3LsXPD+Nd1fJvx6D8P3xM0C59PTYUShneI12olRur+rP/JAX/OKS08ikqyipckfE9xw1YRep75m30QcWWaAwW/tm5WJmABaxs5iqftwePEwnJl+pXz2DDDtDrp2Lizf54sGMBAExnRKb0AiFiVWQ0Pmq2oGJCbkgix63/pkYoQugH9NmlG4AcIG6KfubxFQKh4wjmEtMunPhAvFLWwh07j1n998DdFv/PCMdEzQAEGdUHxHyOIQBBgYRQMKDZP6HAxNNuy+zsc/z9xLfyB6AaJ902tq8lqMrgqdz/7VYbr6Tw6REzsBkadj6hPgzn7JXP9Ay7ZXLJd1qydcIrtFa3zru/O9F+jGr+6nj31mN7UPzDhZAqy6+iPf4S0b5+SS1x+f1xtBY+B/lWeeVqJMEEvGLhPYTTIGLWD0UJlXNQsE9GDtO8gDDDDlm8unvgouu0J7X/REg8u+W+KEjtFZxW0hdUEVwc74MpgSEZPqU+GWYTFpjPUtci6JVK2AgE83EnqjnMChYtWRBDSAtNE3+4/fSPS3/6eZrOF8gj4nRvZB3zQ33A8cEOo/js1fp7weCXId/GGUznXeQWzF18/Jvdy5Sx+a0pX/4iAhofr9ykRlefu8oDesordfvIbWrZnY4iq6FS6POG49fXn/V4Jbl3feno99dmfHCDu7+MEhsihm1iS1/Xf/s3t527lr6eRNy8jhsu4ZGH6mrdjRgRu7lOjIXPOw8v33XoAyJyqoa0chybSzqT/+6d3fUz57/bkgizcQlP0HDxKGqeGTiVJGZ3RTyZp9IYl8YSJPQwxAu/Q2eqyEoRKwlwg1qU1/64lAiEanbCFxopi12gsg2VviT/SJmJ1KJqjQL/wQpA24pCZqb7MF9zUlE1Xu5RANpoGZMxFpAmds7cC5+x4S/vIt5cLUiY1Q+v9IN9aNE9Q4veAokr885O5agyJmYG2c/ZIZ+vQ/PZ6u+MV1nQaY2ERg7zyW6ATYSXV65y+fUDw+XQxgFbmxal4iCYN6z57DdNn/c6eJa7GgalovYzYobuNxTZs3mOsXGxvJ2xPKalqcVu0MHT68SGn/ZqjXAHX2jSeot5adhAUlFhnxihMyAzcg1elAjdBr3ADGaRg+7nAVZrqRBrpBtE5agLpZEtaOHidJLxGxXEr6lzo/cc7EGsH0ZuUTSVKEEOPqeRhHDJgIhHyGSw0zaJo3y423sEMVEfTP1zGUpDZ0HpTv93WR3Y//R8T9tUvH/N3fJa9dUYhfNp84G+KrRlNDntm2MSVPSqlwyqbl9LGrX0JX/PKJNHw2ILTOjTfvoi/dvFP3p/Hxg9EbgMxeqsVux/QEwAZ3lN50lWNMDq5d9LORjgs2lvn5ecLy8jPPvKF89rvde4KockQpBw4e0rFyqJ+GaMSHIeZ5V0+JEExYUvqAH+OaEqwNUUj8mKemW4Aa1EUD4gLY5G0hYRMSsJ2D5wIMcfZRX5OzlWg4/bAC+7xaZvAymYDAYEalw7AmUCUgkWmDz/4V0VgAqnw/5zShk09QyVIXv2//6n99qO6EmLTLcYPX/Y05ev8V6ylsFlj/7tzu/SLX/KvttO0X7+ZL3nW/vOf/fYi//LX9/X5WTVZZqdx1xS9voksuOiYzgWRmvfq6bxlBRzH2YnKEwUwJBweZCTf3uiwTm70L4B41VHqdKsM4UxB3zh1oiJ3WJ9G2fMG+FwZQzqWwzDnJY+vcICA7NLeNqfQuiZY97Vc3Ib1NTJloIknt1UV3qWltcUxO2+YEKVrWYhuZNNeEUrqEwPRU3fSPMaoDwBip0UzRWmJ4MU1iPVGCPwwZpjCavs8v31KlmS2wL3SBP6+ZAaav5+5/SOTj/2nehYZIuC3L5+aNTFf+xnoi1+gS2lNnfeU/f4jf/y+/z8W3f+NX9/GH/mI7XXLFPZ2f/3a65a4DBjcqsunauOp/3UKbNy2jcKmiRiC68aad9KWbdjCF0LPBoSfQ/hHYGBe6A+1ByjAu8EyLCG533WmLrYj0UWAr3X46rcObQqc3Q4UuHjCvbVV/rYA8hVEGrXHoqVBX6uYkE20a+PH7gQhsholjXDCKOMYOLQgaACRqJVr76gQusjThU1z/4l3TmFLEIcA9NRLE8RaHzCHgkcBNV+GRIKHyC932zfICq0pU5vY0t3k5d8FWdklowqIktTlMGokZXP4La0r6gugaxzjIqY9uvat6jgzT2wKWPP6Lfu32zgje7jOV3lCeoWt+81StD+QBMYYbOxhE7sYmx/1VqxuaFoPIIoY8NZjFHstVyIxp6WRiL2kPIxDbPFpYXEzaeobpBvvuDLAwN3c9QelhkHKgxpcjpsuYiuPRCsN6TI6zzVXF0tKfYUzBwAn5PWYA2aqa1iCoC/gbgT0T4n/2+4haSFT3SvRXIOvxrd8h+tb2lPPPRI0+YXWsuqGGioNg3OLjq0CF3ViPMfssrHUpaQ8k4fMXhRYFW/duy9M4CE4J6rNfXiCUwB6wIumN5Tf/2OpgOIafM/UgYzV0B4QMMYfL33sv3fiVPTBioQvOW0vbzltDHi2GN0eUMX/mv3wP1g22iEwwKMxhIpf6qmnCfvB09Ooo8FQcaWiiUSTqVZmfR/jTnZ7ODCFQsQO6xu614337DzqqcBvAcGBSX+yLQT4UoweLXYBfnwChqNlgHgzdiEoFoszkvnQnJu+hYkc7jLGQ6SMKJgjCzxGa4KL6fdcBoYt/f0r37SC3GST8+eTjouTtUcvdriXIJsx+M2gRTxOQPJROA9xdCZ+AiG3yZ5/mUzSF0RPIjV+bN8lMbR7+r7xhNQVEMMObTDr4AN79G8fT6165mjzmIOE2NW/PFb97D+3ae1gHXG+95KLjCTWGUm///ZY79nQxhcPGzUr+lLQk2QKF56evMbF0BpEQmL4Spr8oLZ9oO2L73d10KBnAfPPLXnbaPXaUs96YihZ4R/labipQaFKxvy62v/62biy5fiInuCB+k+YEhiln2GIEHlDJnqPH+0j80bdIHBP9eVYiCoM001K8kpByaTQBUHf/5b7tQj/0O4v0qpd0keBjdaCifbvg1iFD+6ZtVLFXz4q9BqY7Lr/Z9bOvipddTQMamN7s97p/Ua2Ox12NKlF7702aCNGXvxbP5abAl0KiC16+LMYTlhNT/ckUB7kln/+PrtrcT6G80aFAnmv69IZgpvIwy8c+83162xs3knn1/tarj6Mr5PY6Rh0vum5vuX0Pv/L8Y0L6kaICFalAH4Y4VFQJeAdG0sjJ2QAhslR6sSrCOQdIbsY2EgPIolzPM9wzgNkBK5cvr2OrXUiobtXqKl+ZEFKrkW6SzgiCgklEQCHakhA5FYwUJ/4lcLYyvLGnZEKvyxGgyok/cnVEbBT1+It3Cn1RBDQI1c0dtBt9Mfar62Zvgt5y3MROi4luW8lYC6Hde4UGrzZR4o7Ir6+n7NpX7xPUGHpfCWidc/qcj7HUKc8EfOgTO6Ujct72ipV9oEtMZKmdtnnTHF9x6aYuMjzDV/7z+2ABOljzxR309jduEoPHJb1580nL6f4HDhAh6SoD3v/dA12jx1ah5QvjUJAswGq4Xila0YEtowR5OJoy+WpOJEYe68vC4YVEL10nn8TrEzw4vGL2ZoLEuH37Dzjh6KcTK9CuiOBPJIUwUznMxqskmbKrJ4PVyDC0BH5dqFt3hgbE720RpQjsKevbqwSEKRSoQnMP9NM2kFSSu1rSa3VfAXvCfdxqGz8W1w7KNEzEvltwS796JQ0BJSi5DSBGGbCQ3Enlw9p244mR+kRXCJQqXTv3JhVvT3mD2+Xve4A++IkdZMRvO1ElKfHb33iCdJFiwoS4W+7Yq3OIXTvnjFVkDGJ9G2y674H99Z0/hiTqfWyUgl4xIzBMDSHwBLl9ERvpKoA8HYd9C/cfnE/0cvZZZyRbNzFAsQNKYpwd7967D3eGCMLOLinZsKBup5NyClBxTDrqi0d9nRxra5DbjV6XygNY3CujT54Z2hB6+SYeEDysors0cVl9ou0fNRYGUdIKoGB8oHhv+q6azCxS9w9C9FzMewMPu5tRu7lGf82U7r/v2TdCeARQiFliOsIf/9wenUOtf+PN+1zimrIJD5/0T3ehdtm9d4F27VnQNuqw166eIXTVpviAK2VzeLDSAIpLvc4MCxaSEVc+YgsWJ1CXuGAftaD/vyOSJP1LmbQnOo+3Vyow6MChQ3FRJKzvOnhBS13BLNhbktye4HmwD18dBs+SLoQZMozXxZeh3ivVR88Gpo2wtm4K6qvpMy1RZmiDsIZjx2A/xdFFGD7k1J98VuTePmjXRpMCZYmljei2nMh+uY4nNE7xAukwK1NyTWhzzeVMgJ4ggjl1xNq/8S1SF26760AsiUZqLX0BNZeYhO++r187B3Mg2rBmljwtwqV09SJt2biCojj9KH24RNVTEkpSxJeVffUCqXKzE9XLRsZWUogfnwHuqD1J/3qqKQuzk+vwuIdBHnABdtRAViIW1vOx1rapwgzcKWhM1vO2X64BSEPa4Pf1xaqjqPh6wim6bJVefRpTluAclGPpKwpbEjDz80T5AgH8qdfCQw3MZcSSGMIadoJyU8XHB3N902tnJD+eWBva0gWzLrpgWV1EWOO1q9g7k+Yh9PLiKjHsrZSEry8hfUtDF/gi5TT10vSGS58ReuPNu71uOdc//UUR0CwrcNGrjyOQFi4iC/FvO//YYMC+cXZA3z/KKOQzigCXWE6EBORjIoDAhv3Fgqpu59RSnm7EMrM4cwM1ZcAAPQwi9ooFBukkKUfbYk3tM6Cmb6oeinlQ0suLlFFdyojfXBnCIBJTLAqOFRiMERcX6uoYQF51KhFJe4fWkZCKupMxbp8M+3mT2RO7S/ca0TgytgNTk8bdMPfslwSXGsPOR3PBOcyX/VzxT0TuTzF+/8VvrfLhwkg7aWx9hffFGOG+jgH27J1WoaIS/XWvXENO0Fr/ivd+q2OWeWie+2d6L7n867lu18+289YTCpeyv9vOP0au+a2X9W98MI1RbIcP/d8/2BnIq1zCAz24K5bxWoViZAlxsVr6xUR8fy8n2ktwubs9wR+afgHdn1aGD//2y374I0wzF/bfFQatXLbcrXW0cStPOgKzJ3So/CBx2LyuwGKqcIoq4ElM1OQQsUkOvUG0josVx8USnqJ/8Fqmn7prGmso3tjgXLWlkFuA+KG+SKy4E20vqMUG4p/o0ih/5fXlGptRO00Xrq4Zqyjox3/5zy+jS147WxLc+tTkksFpSybofJMSGKvMEjg9PzN841cO0EWvXuPEcsnr1tM1f/wgGaOUpooW2PYLt3LJ9NyyaRl964FDJaHN1WiVxrXty99yii+K54p1/7359S+ii151At165+6O+GfplJNWy9o1s+xjxr1nf9GnGwR2ycGECTZ9VYyo1ldbVBdLRTFnT9HB+cPSwR8UFtfRSJmMneyjwuAN2rFzNxA/EUKDanyKDoiNc51SmLOsMGHuCxcXqlfITqC0b6CIBaDMmPS6zIlxXnkq0U+czZnQ66BdShkx28JHXSB+I3yYBppxOD7n2ET89dru/SG4dLhi7bLHW7w6bz6R+YKXz/bET5SaIg5e619PsvnEGSdQJ9ppxfkfvH6nUlOtXyK+b7v42KjngS/p39r20U9/v8/mdBtCwgh/+5tOpi0nLc97yLEE69fNySvPP07OOXN9cY8yjNijWUQQx1EvtOJpwAEq/Kb280nCII3MwQLYSOmnslvnwj+EaGHn1peecR2NlFEGqFHh6UfsuKRFwKu9o2DOthKJ215kCle1haC8DLep4TcKdzzBqlk/pABVJxrQBdIREjNYnX/ypolsgXdfW8fJb1tvzm5QvGzX4mlA0AQ2Ergek/NxlvO33rvop7VJVgwgPnZ3GvQrIS4cdWGCUMBP3v297oLliYMF4NCNX9lXXlUOGJHkyv9lU5/XT07kldDtXpP6uD7nnL6KrijSX3lWwD1pxCtquNp97KIChF3C8SEzyEGaDZPM1gH5A4GzLDDI7Lry9jfLaNYyMH6tTJa6UIJieLxjd3GdmcecyLiYAqYgBnNflCTGyapQBYLOBwS+a0AyIlLwbO5TIbCIScZjA/2SlR+W/re/PiPl2d5x4qbGU8MxCNh/QsZBIi9l6tRM1DIRtHH/96KxSP1QdGHrJ6ZVg2iY2jALqcQmd5Zf9MpVFE9/KfHbYLvjK973HZNHToAfe//p9PafOV4HOJbbb3GFKV3y+hPoYx94RQ9t6kIQ+EN0XyltdQjFfMHwqwTOV6YlLHYLPPAEeVecgrICd7EsLOTcnymHMG/Lkgzw8pedeQMaw+WHxXTlGdjeEK+pAPNPOz3YpirUbyW7bz4auz4XojZpi7ENjxeMFGSKzeuFr//1iTIB/knaKAJYxLC5mfhRKlJQpJ+OayxDbfDt74sFajiIuC7QmJFva6t5T0KJoIzRmLadW3+pkdI8grCLr/9Df/FwlceWct5rgs30savP7LD7ehLQAjbebeeuo49es5Wu+Qdn2bv9PUiWSbYugAcPTfnXPaIkWGA9/HX2es7mWBmiooNp+Pbx4SETDgp7p65J9loAt16/xx5+GStMRyi33HHXZVx+FVNL+RXJ1StXkIJJNzwNA4KOi6bdaCGbgGmK4dNSgQlBHQiB5agCz2COna7SUlLHw7KrW5d/9MlF+jf/TQh1b8sQDtTUsOWRa8N61dMzbEdSH1f/+jK55NUTFw72BBgacKbpTBH6Ckj7jHQo3/Ll6j/eTtf8q4frmKhJpZCK9T/z+2d0UduVTsDq71fYKtXlKaJG7ArpcbzzZ4SpUHPVWeqD/THsnoDZEEPYaQL7J+ZGFdBsYeTWupM2/SVoJHNW97U4bHbDr0B2Y3jrUvg/1nuJctPdd29YdljuJv0x7ZUrltOLNp4oCfYA7YdHI7r3TZQlBuCTqzxBrR4VIhneQ8FIgp7IMQZomI1LurP83qcX+c/+mwwIVoSGxu20JWbtZioN7KGRdiRpkF+5aIau/MW5NLigcCIDErhe3AoFFDGuBbl/ue3r/s699O0HF3TNM/FXwp70jzO+/WdOzMsTMR1xws1EF8MNBOoJgi69KPFuloPQFhybPeO/KGRBuFiDYAZPhKRcrPrDO3eyPf9bpP/ZL33JaXSEckQGKOVr37jryk5evceOT9p4gibIIa3hjPEUGj8wASfIep9JN+KGAUAa2GI0xE8iWQKMFOuXgAn6yvc+PKUv3Sn0pTu6gNH2jjEeFlDPrN4iCl8/EvgUpLxfG5H8es2Y6uxTmD70zuVBN7Wu4jt9nA+XlZwrhOFUcgjoyfLx5c7lecm77o3B4pNhZFHlDtO/7hh651tOLn57XzgBOUxCoZmQvutVjh4NmgJbmtZupFf5unvPAv3Zv7+L7v/OXtp61jHy5p88Pe2hBjXBH0RuL5Gkzpr++teeyPZdu5HPrj37padfTkcoj8gAo1rgxBNsZI69DMeZMLN3/thmIZJJA8gawNdKcgoESnA5gtHbcKFDLrell7rH4Ge0z42hxWP3ZyGXo5keE7GJe7DOU5M9pkIhIEIp2K312ogXjgKHKD30zHPlP/8ufbDH+6Xgo5EBi0rl4g59/Q8fI2/7mY28edNycg0Q0XzRTTbArTIHnt7Sz4H8ceqNRbrvgX30o7/4l7R79yGd/rQLkq2mv/j919PmTasHqxxRYey+Nh6wKTrasWsXzcO7fyaLk9PGgl95BY+i3HL7ndd2Hb7Djl904vG0YsWKPCBPR0ibSuRq84hEa4NJmrJezxoE6hJCfjOW7WdItc+jYBjuNyJiapQlIlEwEHhQlpqE5H+U+OEY7xshEmBJQicBkYtlHRq+nTtwRBnznn2Lcsk77+Zb7iyvt2nf8BzRZY8ad3XOOX0lnbxxOW09Y1V/ZusZa7rg2fHepwwGm4v7sa0K+VycRP7niz/ZMcGeZgxT2vaDm+jPf/9v+XolhqMW/jVCU7ssUd/qqfRy3TkvPf2t9AjlqBjg61+/+9TpzPRuO17hWiARuco5ZABdB1lSciuBZ6MHcZ7dx40BPCy62ksYG8nQjO/aRfXDY3UCLURLeJtMAbddEW4a4pao4owtTWP1ez0wf7/XcMMVmuSG+LTP+7+7IG+64k6u6Q1K+ClPqNEK8OijndvSaYWPf+AH5eRNywd7Gho/XLWuCeqaqQCqzV79wa/S+/7wq9qHRedrstz6NXP09f/0S0b0rj0b50AWjgICpjvqpD8/Wunf16OjKKWhbiAfseODXZDhoGeJVgewLk8ocMnjtC1jTgvJOjVbYMPqbFHdOkfNOs2wKEq/0BNJDTOnT2mTqNC3LuqOzBFm1SQckKW2GK5ZsTlUaoXm2AiNifQNBhz713AN5wXRpDhBvnGJx9BOypXhaKAcbt44xx97/0v6KDGmR/eMopJXKPz8Qfy6jCVJ7oEDdNnv3Jo1uvdohmisbzVewaWpfHn/d/dJJf6Q/P7gvGtZZ2oAFrZnSPqGVetN5Xt5ny0Sf1euOxriL+WoGKCUhWUzlxGmR+za7Qsitlk2UKf/eE2gSkTFSSyJBCJrDjmGgCAT4Q+0ALsP3eqRfaJk5PRswdTqo+yNr36vbbzdaq92YcLAhUgk8FFAFYrxC1BPlv4DjJtshJ5g1UOjUta5w+9vZlEvFgn+mT84qzd482OKkDck0IDBItAEN970cAepDkvVM1R8kgPhY8tWNUDYD2Xe931nH/3Mb3yOY/3iGQcb5+svfLE1YUoc10cs/5+byK9SHuNzK6V00v8qOspy1AxQ0iOmU/mAHZdQ8559+514Y3eTZOWlEckkpJexTET7/AKhzAnYgiVJco60ggEcEknPmNq9zlys0ck0H0Ye6SUcQFNrF4YShls7ZR+sd9rIgCpLKnOZllIVaD4RNtdvIcRvPTjPH/yL7XTV7z9IH/vcThCUbBGlzu05Q1f//VP7v/63uZJqVmaA9/pUeyjbCCDX8rxUU/vaZFnBu/ccprf95hfo/oL7laFIpT829K5f+0GxtZXk1fN1AW1jnsLa74GD8znn/1FI/1Jm6VGUw8sm13YeoXeQeoSKFli9ciWVsM7UAiGki6L4jwzXt7JigMdDuoNBqvXrhxI4o50k4OI0+ISGYjuHCcfvljHlYJzdq64Yo3MyTWYMjRHogTsW1bbPAOp7k/1PotWb2bVActfWAbp2U6ld6fLjn93Jl//ed7SrKk0/+PGH+vSGdWtn1IMUEdvy5oYLzl1LV193H33s0w+ReYJCK5gelz6Jzs5v7gzjmtRGGTfGzlSpZJJfF2733gV549/5HN96+8MkI/aFlXf+6vmdJ2gthc1ne6uKzpqV+hsAHNHPvq19B/bDcPgeXuSr6FEUpkdZ2rjAMevXdn/6AK6g77a67iJySTZwE4AtwQ8I1qfaGNBA7K33hqBNCa9UFroMN/CS9+JYlInBrUuSu0VGFn+Wm8WZTH38DJlQQi4YINpqbzz2BdIFc/jT5/i//te/2Qe+CAi4/8GMzrX5savP6D99FWG6ZSz3PXiwgza7Okb4bnlzm94bbZjXqGiPP/8nf0POPmNtE5ugzNQITbs5dLCHf+XvfYG+dvvDva3hxE9meNdGtr70OPrcn/y0i0ZTIDRit1XOr2sgymR79+/vGCB+2Lkb8uVbf+D0a+lRlEfNAKXcdvs37+4Gcqodn/Kik2RmZpLSInzULb0592bCGX66lE8MQyO4XY7s7vS++9SDcJOOMaIY0XnTSpxhywjCvjgW18xHdJU2fIOkj+IvCAw+q/FI/Nkv7aG3XXk/mSFZ2w1CK4bvNR3kKa8oR2Oh8dn39Fje8XPbHXvoS1/Z0QWnDtCuPfP9QLdsWklvv+SU+jALarPBRPJ0bvzrB+myq26s7s6GoVSL9vW2vGgN/cUf/IT00l81KHr/UkeqMQkeve20gXxv+w6GuT1i1HesPCoIZKXDXG+dzEw+b8cPbd/OJ51wPJnYMjUlLYM1BmkYh1hF1T1CCo7f0SLVFOjrx/sQZNh1rWwSWkdp96IpS5SJt24Ag/7ql1oP+tYwTuRGWnhnTFlRABo/p8zFqKAMZng2kH8G4e7cu8gGe+pSYyZneQ3JIbrk8v9Bb3/jif37e0qQS0czEB4b1s7RBedvoG3nH+MrEHTXMLKOZWKSmEIw7Nm9QO/rXJ1/+G/+Bw0ySx3+RFN/9L4foy0nrSV0m1fHhAUgmZEJVCjW792/OyHfp5TDsnDEiO9S5TFpgFJuu+OuT3QTutiOjztmQ6cyVzeaUpU31WFXCSxjmgKN0oTrrSDseeRZZb+9G8axX9bRkvcFMwM7NVpLbwIXHoTmItJrmt0ZBfQOxYZH3IN8rKANdeylkfIzp9t+6fZOWhfXX/MDGIbh1ZAtz+9e8ZaT6c2v3yjgQVJtJxFJ83VW+TUFrRoraaC8bkedi/zZv/smv/9DX6P7vrOXqIk223cs17znh+nnfuqlQpHaEEKkriJ7f65ow4NeYE+BP1COKug1Vh4zA7QpEpPJhE7edCLNzswQ85C2nCVkVIO2ECZJqXrfkPDBDlBpOqzT2AlaJQhZ67BjgpDeGTwTDD/1M0Rk7b022YxwcL4C/7atsoxJ4o9+Zjtd8Xv6wipBQhNlxMwY5THHKy49pX+ed/NJK4LsQ9pDXwlxZkjH9emlnbsP8Qf/7Hb6s099s/j5yd8OnYzdaV6Arrzz136w8/qcT2Dn67pCQC0xndfqR9kJUPr+jp3hvKiG7488Gs/PoOXHWtp06RIhLlAoiqjoSpjfiZYovDB+AzVKhCKfx863WP8R8P9juU/H5rCG8/2shKCvNxxEituoKFwhS+6Li0h8et3hY6JPJMrun54J3nsPJSbQKCu+V8gZQqoRetEPH0evf3XnFTpvQwdDVhozuJYh0gFNs0C5/4H99MW/fog++u/vplvv2NFpoEPk0WQZgzz5V1mu7ST/z/7kS32B014oE2DGXexESI4O+sih+XkQMEdOd36k8rgYoJTOIP58N4gL7biDQrJ+zWpHD/FDeHUDG9jjRLUEMabrRI8mKS4F2zjDmKyDPNJMlKQ1UYTkA4eahOIk3bBVwAiiBM4Ipzhy8ziM5sBFXlUcP+qgvAN3b9525wF627vv7HE/DYgxjGR0ewo8+ljSo7eesZbOObP8XNIMrV07S+vXzNKuvQu0uzOI7+8CWbv2ztOX/vp73bH10WqcqSqKYDKv05V1a5fRh3/vR+mVP3QSEU6HQeCJ/Y8JjFlT7923j9HrQ48D+hAs6eMqfZ7QrNxkUKiUF208kVYsmyMBDYDEn639vqDkT6VZBF7CBmhJhATxfsAkcknNo/k90A5mqdpZs8LE30UwlGW5odHLMTAyaibQNib72OfLeJ8qDG9b7vvuQX5TZ/R++7sHiYDAEY70w53mt0W0DFEte3geGDxM9oyxgK3hdgf2008rJP/Wlx7bGbw/Wn39NL6PCV7G+hLipPIbvx30gXseH/SxctSR4KVKGcDidJq48KGHt9Niv9hMYNv2JUnbYRH47P8yfq+EzDz2PIQDxfpdbLNIwIepOT394lboorfFUlv/9Taoo0NwpuGWzAEE+BdWP09ib69UI7xs60Ip0GRh4Dyq0EKVSLurxcvzV396Ll1+6ckEXjEyLYA/lIGM0aZI23VjjPp9SoTEP/ZHQ9hT9q0EuT73Jz/Te3s4p4YQDZeDbcttqXVh+qk2mZ7lp32verzEr6v7xJQ2ZXrN6lV0wrHHGBSgkKja8RE8Ooj5W8jDTSanXqwapatbfs8LFxkZiGhoByhkEYAp7i51HFKCee5BabJUURTb3MjhS/KxYNs+Hjf+YI3Yx6TthZYgCleuNJmY5fNbDxzgt/+jr9OtdxY3YfyuGD4XQCOE71Cp+V2xlMBGDezR80xhY5Rz235oE/32O7fJOWce24i/BOfbXYC1JRUeNWq/Z9++9JaH7uQHtv7AGZfRE1CeMAYoXqHlC3ITBsiO3bCe1q8tbyGjUbzOkeXpMInC9YWMsBTep3oR8I6dswu1oypQxpkuGImC4YjhSbV6ouw6A5Gn2/yaQRbfRG0TDACl5kGEl3LjTgQ+Bg6MnCdKAw3z0S7K+/4P393ZBgcp/5DddEjMDSOgRE8MIeLu1THGKXn97+w8PNt+8CQfis2amsK+Ozk2Q6q9rcL+zt25F3B/gT6H9vH5559/2k56AsoTxgCljNkD5UH6FcuXLUl8EODqjwkRcib6RKhLHYcBZacQd9ZzSSLVfyV5beoFoQDonDsFHJt1EXmevAZ1CJoJKsYQt/v6Azp5SsTENIIbvT4fGRqLZNFSFaOFOL988076w49+iz79Xx7SKU2HOL4lfmcICuwfL1Sl+NX6+rnthzaWhDYzci1WQO124yb7N2Ry9rBfvzwlzblmHVsDvHNymM9/IqBPO6YnrNzy9TvfwjP8YTvu4wOdUTw7OzOELll+2XmACeNSGyR+ihATEHnf6BG0h1UbquQMuXR4jdlZuyY4lcdNo9PM/MXBiqF0Gu+QPQATkGcAAX3V7MjD8KbC+raLJvjSXz9MH/3/7qcv37Sd0BNEyV4Y0QgJ509pbecl2nrmMfT6C0/p3JpnyLq1y5UZbW8Yta+vo2JIGugFyWtTyrRz+O/YvZuL8Rs78/hcnmPlCWeAUm79xl1XEiTMdcTfa4ISJIPiW1cWzN48N+7etDyQMQ0Rq+gEb2o07kvtBBIZ5USV4EFsXi88R0D1xA0fUMPPJukJGYHh6TcZeQtDDkzp2MLukBQtxci5dtOOwiZnw/niX3+/sxN20q237+r9+996YG/v9iy5QGYcr1s707lG5zojdlX3t5rOeemGzl16TO/ZWbdmWfKslc8JBiRH83pcvBvICYbRxexZrHOgFMlfHSm2INOrzjnrzCvpCS5PCgOU0qZKLOvcooUJJtmD02J9PRzLyCTb3TEtwkSWfeqENdQccZNuFKHtgEQNwl1y+ipW4oHiwPsaIhxqg8a4VaLp72RGs2QkEuypDHFunMpcGI8qWyI0PtP4aYn+uZm/CxpS7IYM2+yB1fVGtEX2WoXxduzak37Xq2vm+rPPPP2n6Ukoj9sNulQ5NDt5azFY7Lj8VOX2nb3dwvCXFqj3d4UbLyScf0nSV4gC3hjxU7/u4x6miq/qV99s1/mkLjqHDrW/nhQjjsZKaorDW2IxKSwm5Ylsg2243qeNMUZU5wL5SmLMIBwmQAzCxo5SlB1HxniC0IYrYWeYB1OxG4sXDFJEXFJb36aJq3bCpRA8osQ8BM3p0pb7u0hvJv5i9O6dvJWepPKkaYBSilEsM/J59AytWb2Sjt+wQaXUkFDbc0dwl7riEHB5prrwQAjDPUYk2JDWx80donlIcDPD1a4j9Rh8IRraBIL4BO9jG4q/Ya2BWgGXqOmPWtq1h4VoTAh4vk8E9DApTseGazvIz5GRoY8mtPEgr53gHphcz1179u2XAwcPAmJ7YoJdRypPKgOUMuYZ2rBurblHPQDEIc2RPPqi4tK9OfUwETpRQ8Tt/bVBBcG1Q90Xb5ckRSDD7cnAON6K0IggZUQYdT7tbEZ5WZmmYcBolUeJGcWwcjXwenMNtCXUyOhTAqClNBUaRNG16RzQXFJYtXtlvcDpMXfnk038pTxpEMhKfaME/wjBA/U7u6he/7JdW+QKfVpw6qWQReMujWsKRfpPTSXWK5IFVc6wF09z4IA+fW1DNhIGhzqjDAK1GorUGGSkU4s58WC8lU/68drw1O3jjFeJzl2qQMRaPRQKGYM4bCOCeRvzVDhHaUUow0WxtSaXCyyxPqYtdI0kPw9QT1tuiKTzpA37FCQTf/kZLiT+Qiud8/Wnn2zit2E9JeWW2+8+r1u/zy+hCRQRhUCZTluIgWnP3mzIO8zUJHerpDGE5PcEO5BYIJmidUpu0uhBJI/AKBhgQXr6akh7YtpPqHGJMnqAgAkC+jSAReACzoIHWalM2UODHDoOUNrHEKPKuHuTcalx7VDtwrrvax5rLMRfBObWl56WftD6ySpPugawUiYkh6fpqZ2iCR7e4YaxGcGM+NovJn+/ZVr22iNqeiBFGlUMLkIoCft7T/Udz0wcT+6YpBbXAAP5JoJAq2aA9uYzwH4B6e1Suave/4ZuDWyxYe46qsog0r4KRdwidRHR50i53jGm0qWbcEp4lki3gBWCNYC52G8VMOsykgskruuUDH4hBnQ4tR+ucxeAr3sZ7569+6jJ7izOjMufKuIv5SljgFK2vuyM62RR3opwqLzL/aGHd9jitOIoSMYBTVXFjUrm9KlSMW6prz5sJRiB/5n8m9oBus0uCSNKGRLU+8uwA2GIEyFqK1KC09kx5v2wPW7osJBdGKfhU04KrJrDoVwaESi2SnxGtRywzrsQFAjiP+nqw2PHqlLXGfvjmHi9MmELTNf1N+m/a88eTj/BWyT/kxDoeqTylEEgLGNwqMQJSvKcBctYH2AnIFzJ+ME9MkQ5XwfPtbCH4iFzI8HAs4OkOIA+AVlUGh9NUpx7T5JxWu+ZcqIXDHhBoGuppDggUxgzBNWoCZhJzCOMZo2dhGcos2wsrM9MQGyA1wyqxV6ER0ucSUpwqyN+sleY64I8pbAHy9PCAKUUJpiQfAJdpIX4N55wHM3MzKSBSez2GPwAiRz17AoZThaDwCbFtV6ON7BvNbTgEtIZDvJy4F8isGIHI2g+fVg5o9PnJJTIyjIjtbK7d1N9yvfgJY3SUnLfCtof7IKiCh9hTvzA42ufB2wCyNunGJZ0xM87du8mTG94Oolfx/X0lbE4QUmb6OIEsnz5Mkv2UtozAjYtGlIFkawToeQriSKas0MaHWZgquhlQpMvhfttBCbuIWGuoWbBei1h5YGIjDhUrJX+7XoiPDCkQ9STz0EoR3uJkl2qp/tTRrjDmEz/r1SpD35+TGNBaSDxzqcuENoFufY0TPHUuDqPVJ5WBihljAlK6TxEsm7Naic4PrIEQinvUnhE+A7aANJ0D1NoCoMrVTMYliUihPkczEAsSHiU1UgQNbza3Ckw4E2OSyQCxUYVeogxKGgXUmoVq8Ih5SNlBJlCBHxCABNNCKnmiLHAdxBUxnm6F/W+LrhVX6MJ5ZlA/KU8pUbwWCkLcGiOzy/5Hni+8xDxwzt3kXhaLhi9WZz36+8XRBkBEkMduIMdUOFAohlHM07QDBgeOiOsr16j3uNhxM9NFR2YXoeTVFlJYk4cz0iwzZsdNCW8zVqfbE7KPNGwepasujZYpbIMBwDQSJ0IzXILWBHitpAzLFWPT03dUBtuz759MiD+bq9LTv/TTfz9WOgZVNos0lKKXXDi8ceqcdyvuagYtfSVuq9a3/aw/0eaJC5MMQbjFbE0e8DMG+Eh7m/9680AHK81EwT4k5SIdabt6NgMJ1EoB2mZJ7RFPWENJ8M7KwfkUMn921VOYwLHERrUbPM05UoE+UILhxe5GLsJ7/eXnpyszsdanlEMUMott9/5lg7bXoMeolIqJFrDQUQN/UikMfBSKROpfqLRYdopwJVyzqCPhMcH7ep6OzBCw2RBgyZD29yeINykmZBVPCimfvxaDK7Y/X5ssppQuUkQK0zXukHYY/e3niAigrUO+BdQcN+BA7y3kfrV2C0+/jOuo2dQecYxQClL2QXlybLjNmzovESB3Iy+AyeMiOXGFRenwV2K/6iLdNq4N71Pr5aT4ijdA4QLIW2hcYZEDdIYinG1DgoYJ6jU5uP3BrulHsOWCtTizGb2DUA5gaS4UAfYbCQHFhdnCW7NNz9U/UzB+2PlabcBxorZBd0mfwDPHzw0Tw987/u0Z/9+QXWbyboUNoSsVeJdouXfmr7jt4gZBH2Qh83LEThBwTn0SUaojCMwN6X3Fb5bRcui6qWmWPuNifjtPsbZaVIOWWg5pY3UCYVm0LGzNY1GQ/HYZAYj03c2kBqVJkI7xFfCfaMapDNfwYEuort9564B8ZcH2J8peH+sPCM1AJYCiSY0eU+rDZbNzdHxx3baYFJsAwlvDZNL+1o0KNQ+TRX63OoRooF8BVyaTK7/ZZAjVHz1U4a00aG/Pto0zOLjQcgzGsyKzgJyQD/UjJyzCZBnZf0FlArPV3tZBT96xhQGyeLiYv8LLS3hF8hTXpfzirPOuJ6eweUZzwClFEi0OFm8slv4S9trJZlu7erV5QlyotboXYKgl6Z5PGgeR8yxgdRcU9igDoMbUc/l9Zb2rgz5A4VQAnSA+xz/C3pU8zwoDNhgCGu3dW9mnREDTUlxRZh0mqTk8XR4n2hQW74wszjzlmeq1MfyrGAAK0tpg+IhWrd2Na1etSph/aAEl7ZBXWQGLnABUFn6RpB/5LTngR5zt5poHoybjSfGHmYh8hSGNh5ANe+mH5UYPMEHWVALkGsOH014uXxFXJPx0Ni1dWmWIGCc2UwdFJVO6vPAwVAM3UW56tH+SMXTWZ5VDFDKkbRBYYSSYr1y5YocXKJxyKGWbLhGtSYReXozgVuUjBghGDQNLxEQ5BHSGio3ua+dsWVCL5NRLPIhofZpXKThmKRBEbjDs2rBk2n0HUZ9Q9v90cLC4fJach7AndrW9eXRxSfqfT1PVXnWMYCVr95558Wz08k1rTYoZfmyZb1GWNF9OhiwjTYIEcl0iusJiBJy3XnczemEiN4loiHcgfojbkwTzmhw8xC6OFMNBuHjzMQvPlwPIKbkQOCJftBiATd0J5s3bP5IhN95eBZ58a0vP/PMG+hZWJ61DGClvKJ9IvyOo2AE9dcRgXOGW0ImSJkRwAb28IreyW09RhGvpDgg+AzNyW2Fo02KIzO04zfISGRoZCvKD4ImJ/ilkuKSzaDwrgtmSefPHyX8Anc6t9cHzjnr9CvpWVye9QxQSg+LZhYvY3g3KZbeRlizprMRVjS4X0tIQCJ4FnhE4BJAJwJjdxT+DNKRrQ09DrsEi8RHNl0SE4X/vuGQ/t5gQOXAnLoNuT6V9/PtB+fnqbg1j0T48/sn1z7b4M5YeU4wgJUj2QelFEYoL+1duWKFzEwmjFRGROTZMvAooxH8ICmOGG91yDPq8ZGhlqjpzdPxpDgHM/rzrNORpLjUN+D/ZAVwZhdJv5Ms8Jtc/S+v7D94sH8+d2DcRrluft/k8ucC4Vt5TjGAlUdihFLK7xuvXLGclpf3lraWZK4aOF1jDA0DNOpkSPwGsxgwu9YjjPSG35+U7iX54Rucn4eosEcPRiEU0rUNujNsZSl8XytWiT+ZTq57Nrg1H215TjKAlQqNppdNiN8wZiOUUrTC8mVztGrVSlo+NwdIJT+wHtDh6JPiwN4Ynm9O+5E09yJOYszFzx26vVHbqeaODJ/IKqV4cw7OH+pfOb6ktH+OQZ2lynOaAbAsFUPAUplhGa1auUKWLZvj7GxZKimOMhPU+kDI7bMMDoQqoJpmL03cGZartE1Sk51Z2x0leFUlVN621mP7IxF9f498obvp+oW9k+uey4Rv5XnDAFa+dscdF/KU38KTyRuoyTjFUgi9pFusWL5MOg3B3ffw+dMwhRq9Le4xgtRrMg9UvSEZ0GGYUwtyGtwPz/DGsw1khiymKBzuCP5QB2sOHZrvXzV4JKIv0n66OP0Izcj1z1Z35mMtzzsGwNKnXpcX+DK/4ZHqGkMsm5vtmGK5zM7OMGZ5RsVwK3IjtlvA4wbvoLMk5ikBeQojWOD53flOuh9enPaem/J3RIInG3Yn7Wl63cK+ueufD9J+rDyvGcCKulEvPFpmsFKZYpbmZmf730EoDFKcS3Ozc9XDU5/ZJYTzS7alUj2ROnhqSinvzO+kORfpXrw2i4uLPbRJrxE/8oBLTv5Xnk8Q55HKCwwwUgwmdYRyXrdA59JjKIU5ik1RGGLCk54FZmcmSZaXt18UBjk8nSYP1KIeL04XaVFfH3LURN4WkXs7Xrm+wJvDe2dvfoHoc3mBAR6hFO2wMLd4Hh+mC3nCFz5WhniqSsc3X+nUzw08md78fIY2R1teYIDHUHoNQZPzZFFO7YT7eR3UOfdIBvWTUjrJ3pm798iUbuYZvodkcsPCPrrnBYJ/dOX/B4r84fvd8FRbAAAAAElFTkSuQmCC;points=[[0,0,0,0,0],[0,0.25,0,0,0],[0,0.5,0,0,0],[0,0.75,0,0,0],[0.25,0,0,0,0],[0.5,0,0,0,0],[0.75,0,0,0,0],[1,0,0,0,0],[1,0.25,0,0,0],[1,0.5,0,0,0],[1,0.75,0,0,0]];" parent="m9YYBKn2A9ynQCPHmd28-10" vertex="1">
          <mxGeometry x="22.44551282051278" y="69" width="24.99901913093161" height="24.99901913093161" as="geometry" />
        </mxCell>
        <mxCell id="OfAU59fTZWmp4iSplw8R-9" value="&lt;font color=&quot;#1d2d3e&quot; size=&quot;1&quot; face=&quot;arial&quot; style=&quot;&quot;&gt;&lt;b style=&quot;font-size: 12px;&quot;&gt;SAP AI Core&lt;br&gt;&lt;/b&gt;&lt;/font&gt;" style="text;html=1;align=center;verticalAlign=top;resizable=1;points=[[0,0.5,0,0,0],[0.21,1,0,0,0],[0.5,1,0,0,0],[0.85,1,0,0,0],[1,0.5,0,0,0]];autosize=0;strokeColor=none;fillColor=none;fontSize=12;fontColor=default;fontFamily=Helvetica;fixedWidth=1;imageWidth=24;whiteSpace=wrap;labelBackgroundColor=none;" parent="m9YYBKn2A9ynQCPHmd28-10" vertex="1">
          <mxGeometry x="-7" y="97.45213793103457" width="88.14102564102565" height="38.276880636604766" as="geometry" />
        </mxCell>
        <mxCell id="_ywG5binYb0rLTDRe6u4-6" value="" style="group" parent="m9YYBKn2A9ynQCPHmd28-10" vertex="1" connectable="0">
          <mxGeometry x="-0.26999999999992497" y="-11" width="74.44" height="61.29" as="geometry" />
        </mxCell>
        <mxCell id="_ywG5binYb0rLTDRe6u4-7" value="" style="shape=image;verticalLabelPosition=bottom;verticalAlign=top;imageAspect=0;aspect=fixed;image=data:image/svg+xml,PHN2ZyB4bWxucz0iaHR0cDovL3d3dy53My5vcmcvMjAwMC9zdmciIGZpbGw9Im5vbmUiIHZpZXdCb3g9IjAgMCA0OSA0OSIgaGVpZ2h0PSI0OSIgd2lkdGg9IjQ5Ij4mI3hhOzxjaXJjbGUgc3Ryb2tlLXdpZHRoPSIwLjg1NzE0MyIgc3Ryb2tlPSIjRDVEQUREIiBmaWxsPSJ1cmwoI3BhaW50MF9saW5lYXJfMjYyMl8zMTQ1KSIgcj0iMjMuNTcxNCIgY3k9IjI0LjAzNDkiIGN4PSIyNC41Ii8+JiN4YTs8ZyBjbGlwLXBhdGg9InVybCgjY2xpcDBfMjYyMl8zMTQ1KSI+JiN4YTs8cGF0aCBmaWxsPSJ1cmwoI3BhaW50MV9yYWRpYWxfMjYyMl8zMTQ1KSIgZD0iTTE3Ljk4MzUgMjQuNTYzQzE4LjEzMyAyNC43MTI1IDE4LjMzNTcgMjQuNzk2NSAxOC41NDcxIDI0Ljc5NjVDMTguNzU4NSAyNC43OTY1IDE4Ljk2MTIgMjQuNzEyNSAxOS4xMTA3IDI0LjU2M0MxOS4yNjAyIDI0LjQxMzYgMTkuMzQ0MSAyNC4yMTA4IDE5LjM0NDEgMjMuOTk5NEMxOS4zNDIyIDIzLjI2NjUgMTkuNDg1OCAyMi41NDA2IDE5Ljc2NjYgMjEuODYzNkMyMC4wNDc1IDIxLjE4NjcgMjAuNDU5OSAyMC41NzIyIDIwLjk4MDEgMjAuMDU1OUMyMi4wNDIgMTkuMDQwNiAyMy40NTQ3IDE4LjQ3MzkgMjQuOTI0IDE4LjQ3MzlDMjYuMzkzMiAxOC40NzM5IDI3LjgwNTkgMTkuMDQwNiAyOC44Njc4IDIwLjA1NTlDMjkuMDE3NiAyMC4yMDU3IDI5LjIyMDcgMjAuMjg5OCAyOS40MzI1IDIwLjI4OThDMjkuNjQ0MyAyMC4yODk4IDI5Ljg0NzQgMjAuMjA1NyAyOS45OTcyIDIwLjA1NTlDMzAuMTQ2OSAxOS45MDYyIDMwLjIzMTEgMTkuNzAzIDMwLjIzMTEgMTkuNDkxM0MzMC4yMzExIDE5LjI3OTUgMzAuMTQ2OSAxOS4wNzYzIDI5Ljk5NzIgMTguOTI2NkMyOC42Mjk1IDE3LjYyMzYgMjYuODEyOSAxNi44OTY4IDI0LjkyNCAxNi44OTY4QzIzLjAzNSAxNi44OTY4IDIxLjIxODQgMTcuNjIzNiAxOS44NTA3IDE4LjkyNjZDMTkuMTgyOSAxOS41OTE1IDE4LjY1MzUgMjAuMzgyMiAxOC4yOTI5IDIxLjI1MjlDMTcuOTMyMyAyMi4xMjM1IDE3Ljc0NzggMjMuMDU3IDE3Ljc1IDIzLjk5OTRDMTcuNzUgMjQuMjEwOCAxNy44MzQgMjQuNDEzNiAxNy45ODM1IDI0LjU2M1pNMjIuMTczNCAzMC42MzAyQzIzLjA0NDEgMzAuOTkwNyAyMy45Nzc2IDMxLjE3NTMgMjQuOTIgMzEuMTczMUMyNi4xNzg1IDMxLjE3MTUgMjcuNDE0NiAzMC44Mzk4IDI4LjUwNDggMzAuMjExMUMyOS41OTUgMjkuNTgyNCAzMC41MDEyIDI4LjY3ODcgMzEuMTMyOSAyNy41OTAyQzMxLjE4ODMgMjcuNDk5NiAzMS4yMjUgMjcuMzk4OSAzMS4yNDA5IDI3LjI5MzlDMzEuMjU2OSAyNy4xODg5IDMxLjI1MTcgMjcuMDgxOCAzMS4yMjU2IDI2Ljk3ODhDMzEuMTk5NiAyNi44NzU5IDMxLjE1MzIgMjYuNzc5MiAzMS4wODkzIDI2LjY5NDRDMzEuMDI1MyAyNi42MDk2IDMwLjk0NTEgMjYuNTM4NSAzMC44NTMzIDI2LjQ4NTFDMzAuNzYxNSAyNi40MzE4IDMwLjY1OTkgMjYuMzk3NCAzMC41NTQ2IDI2LjM4MzhDMzAuNDQ5MyAyNi4zNzAyIDMwLjM0MjMgMjYuMzc3OSAzMC4yNCAyNi40MDYyQzMwLjEzNzcgMjYuNDM0NiAzMC4wNDIxIDI2LjQ4MzEgMjkuOTU4NyAyNi41NDg5QzI5Ljg3NTQgMjYuNjE0OCAyOS44MDYxIDI2LjY5NjYgMjkuNzU0OCAyNi43ODk2QzI5LjUxMDMgMjcuMjExNyAyOS4yMTA4IDI3LjU5OTYgMjguODY0MyAyNy45NDNDMjcuODAyMyAyOC45NTg0IDI2LjM4OTYgMjkuNTI1IDI0LjkyMDQgMjkuNTI1QzIzLjQ1MTEgMjkuNTI1IDIyLjAzODUgMjguOTU4NCAyMC45NzY1IDI3Ljk0M0MyMC44MjY4IDI3Ljc5MzMgMjAuNjIzNiAyNy43MDkxIDIwLjQxMTggMjcuNzA5MUMyMC4yIDI3LjcwOTEgMTkuOTk2OSAyNy43OTMzIDE5Ljg0NzIgMjcuOTQzQzE5LjY5NzQgMjguMDkyOCAxOS42MTMzIDI4LjI5NTkgMTkuNjEzMyAyOC41MDc3QzE5LjYxMzMgMjguNzE5NSAxOS42OTc0IDI4LjkyMjYgMTkuODQ3MiAyOS4wNzI0QzIwLjUxMjEgMjkuNzQwMiAyMS4zMDI3IDMwLjI2OTYgMjIuMTczNCAzMC42MzAyWk0yNC45MTk5IDI1Ljg5NjdDMjQuNjcxMSAyNS44OTY0IDI0LjQyNDcgMjUuODQ3MSAyNC4xOTQ4IDI1Ljc1MTZDMjMuOTY1IDI1LjY1NjEgMjMuNzU2MiAyNS41MTYyIDIzLjU4MDQgMjUuMzQwMUMyMy40MDQ2IDI1LjE2MzkgMjMuMjY1MyAyNC45NTQ4IDIzLjE3MDMgMjQuNzI0N0MyMy4wNzUzIDI0LjQ5NDcgMjMuMDI2NSAyNC4yNDgyIDIzLjAyNjggMjMuOTk5M0MyMy4wMjY4IDIzLjkyOTUgMjMuMDQwNiAyMy44NjA0IDIzLjA2NzMgMjMuNzk2QzIzLjA5NCAyMy43MzE1IDIzLjEzMzEgMjMuNjcyOSAyMy4xODI1IDIzLjYyMzZDMjMuMjMxOCAyMy41NzQyIDIzLjI5MDQgMjMuNTM1MSAyMy4zNTQ5IDIzLjUwODRDMjMuNDE5MyAyMy40ODE3IDIzLjQ4ODQgMjMuNDY3OSAyMy41NTgyIDIzLjQ2NzlDMjMuNjI4IDIzLjQ2NzkgMjMuNjk3MSAyMy40ODE3IDIzLjc2MTUgMjMuNTA4NEMyMy44MjYgMjMuNTM1MSAyMy44ODQ2IDIzLjU3NDIgMjMuOTMzOSAyMy42MjM2QzIzLjk4MzMgMjMuNjcyOSAyNC4wMjI0IDIzLjczMTUgMjQuMDQ5MSAyMy43OTZDMjQuMDc1OCAyMy44NjA0IDI0LjA4OTYgMjMuOTI5NSAyNC4wODk2IDIzLjk5OTNDMjQuMDg5MiAyNC4xMDg3IDI0LjExMDQgMjQuMjE3IDI0LjE1MiAyNC4zMTgyQzI0LjE5MzYgMjQuNDE5MyAyNC4yNTQ3IDI0LjUxMTMgMjQuMzMxOSAyNC41ODg4QzI0LjQ5MTIgMjQuNzM5NiAyNC43MDIzIDI0LjgyMzcgMjQuOTIxNyAyNC44MjM3QzI1LjE0MTEgMjQuODIzNyAyNS4zNTIyIDI0LjczOTYgMjUuNTExNSAyNC41ODg4QzI1LjYyOSAyNC40NzI0IDI1LjcwOTIgMjQuMzIzNyAyNS43NDE5IDI0LjE2MTdDMjUuNzc0NyAyMy45OTk2IDI1Ljc1ODUgMjMuODMxNCAyNS42OTU1IDIzLjY3ODZDMjUuNjMyNSAyMy41MjU3IDI1LjUyNTQgMjMuMzk1MSAyNS4zODggMjMuMzAzMkMyNS4yNTA1IDIzLjIxMTMgMjUuMDg4OCAyMy4xNjI0IDI0LjkyMzUgMjMuMTYyNkMyNC43ODI2IDIzLjE2MjYgMjQuNjQ3NCAyMy4xMDY2IDI0LjU0NzcgMjMuMDA2OUMyNC40NDgxIDIyLjkwNzMgMjQuMzkyMSAyMi43NzIxIDI0LjM5MjEgMjIuNjMxMkMyNC4zOTIxIDIyLjQ5MDMgMjQuNDQ4MSAyMi4zNTUxIDI0LjU0NzcgMjIuMjU1NUMyNC42NDc0IDIyLjE1NTggMjQuNzgyNiAyMi4wOTk4IDI0LjkyMzUgMjIuMDk5OEMyNS40MjY5IDIyLjEwMDQgMjUuOTA5NSAyMi4zMDA4IDI2LjI2NTMgMjIuNjU2OUMyNi42MjEgMjMuMDEzMSAyNi44MjA5IDIzLjQ5NTkgMjYuODIwOSAyMy45OTkzQzI2LjgyMDcgMjQuMjQ4NyAyNi43NzEzIDI0LjQ5NTYgMjYuNjc1NyAyNC43MjZDMjYuNTgwMSAyNC45NTYzIDI2LjQ0IDI1LjE2NTYgMjYuMjYzNSAyNS4zNDE4QzI2LjA4NjkgMjUuNTE4IDI1Ljg3NzQgMjUuNjU3NyAyNS42NDY5IDI1Ljc1MjlDMjUuNDE2NCAyNS44NDgxIDI1LjE2OTQgMjUuODk2OSAyNC45MTk5IDI1Ljg5NjdaTTIyLjQ1MzEgMjcuNjkwNkMyMy4xODMzIDI4LjE3ODYgMjQuMDQxOCAyOC40MzkyIDI0LjkyIDI4LjQzOTNDMjUuMTMxNCAyOC40MzkzIDI1LjMzNDIgMjguMzU1NCAyNS40ODM2IDI4LjIwNTlDMjUuNjMzMSAyOC4wNTY0IDI1LjcxNzEgMjcuODUzNyAyNS43MTcxIDI3LjY0MjNDMjUuNzE3MSAyNy40MzA5IDI1LjYzMzEgMjcuMjI4MSAyNS40ODM2IDI3LjA3ODdDMjUuMzM0MiAyNi45MjkyIDI1LjEzMTQgMjYuODQ1MiAyNC45MiAyNi44NDUyQzI0LjM1ODEgMjYuODQzMyAyMy44MDkzIDI2LjY3NTIgMjMuMzQyNyAyNi4zNjJDMjIuODc2MiAyNi4wNDg4IDIyLjUxMjcgMjUuNjA0NiAyMi4yOTgxIDI1LjA4NTJDMjIuMDgzNSAyNC41NjU5IDIyLjAyNzMgMjMuOTk0NiAyMi4xMzY3IDIzLjQ0MzVDMjIuMjQ2MSAyMi44OTIzIDIyLjUxNjIgMjIuMzg1OCAyMi45MTI4IDIxLjk4NzhDMjMuNDU0OSAyMS40NzAzIDI0LjE3NTYgMjEuMTgxNiAyNC45MjUgMjEuMTgxNkMyNS42NzQ0IDIxLjE4MTYgMjYuMzk1IDIxLjQ3MDMgMjYuOTM3MSAyMS45ODc4QzI3LjIwMjQgMjIuMjUxMSAyNy40MTI2IDIyLjU2NDUgMjcuNTU1NSAyMi45MDk4QzI3LjY5ODQgMjMuMjU1MiAyNy43NzEyIDIzLjYyNTUgMjcuNzY5NiAyMy45OTkyQzI3Ljc2OTYgMjQuMjEwNiAyNy44NTM2IDI0LjQxMzMgMjguMDAzMSAyNC41NjI4QzI4LjE1MjYgMjQuNzEyMyAyOC4zNTUzIDI0Ljc5NjIgMjguNTY2NyAyNC43OTYyQzI4Ljc3ODEgMjQuNzk2MiAyOC45ODA4IDI0LjcxMjMgMjkuMTMwMyAyNC41NjI4QzI5LjI3OTggMjQuNDEzMyAyOS4zNjM4IDI0LjIxMDYgMjkuMzYzOCAyMy45OTkyQzI5LjM2NTIgMjMuNDE1NSAyOS4yNTA3IDIyLjgzNzMgMjkuMDI3MSAyMi4yOTgyQzI4LjgwMzQgMjEuNzU5MSAyOC40NzUgMjEuMjY5NyAyOC4wNjA4IDIwLjg1ODRDMjcuMjE0NiAyMC4wNTIgMjYuMDkwNCAxOS42MDIxIDI0LjkyMTUgMTkuNjAyMUMyMy43NTI1IDE5LjYwMjEgMjIuNjI4MyAyMC4wNTIgMjEuNzgyMSAyMC44NTg0QzIxLjE2MDggMjEuNDc5MiAyMC43Mzc2IDIyLjI3MDMgMjAuNTY2IDIzLjEzMTZDMjAuMzk0NCAyMy45OTMgMjAuNDgyMSAyNC44ODU5IDIwLjgxOCAyNS42OTczQzIxLjE1MzkgMjYuNTA4OCAyMS43MjMgMjcuMjAyNSAyMi40NTMxIDI3LjY5MDZaIiBjbGlwLXJ1bGU9ImV2ZW5vZGQiIGZpbGwtcnVsZT0iZXZlbm9kZCIvPiYjeGE7PHBhdGggZmlsbD0idXJsKCNwYWludDJfcmFkaWFsXzI2MjJfMzE0NSkiIGQ9Ik0yNi42NDY5IDM2Ljg0MzVDMjUuMzI0NSAzNy42MzI3IDIzLjY3NTYgMzcuNjMyNyAyMi4zNTMyIDM2Ljg0MzVMMTQuNjgzNiAzMi4yNjY1QzEzLjQxNjkgMzEuNTEwNiAxMi42NDExIDMwLjE0NDIgMTIuNjQxMSAyOC42NjkxTDEyLjY0MTEgMTkuMzUyOUMxMi42NDExIDE3Ljg3NzggMTMuNDE2OSAxNi41MTE0IDE0LjY4MzYgMTUuNzU1NUwyMi4zNTMyIDExLjE3ODVDMjMuNjc1NiAxMC4zODkzIDI1LjMyNDUgMTAuMzg5MyAyNi42NDY5IDExLjE3ODVMMzQuMzE2NSAxNS43NTU1QzM1LjU4MzIgMTYuNTExNSAzNi4zNTkgMTcuODc3OCAzNi4zNTkgMTkuMzUyOUwzNi4zNTkgMjguNjY5MUMzNi4zNTkgMzAuMTQ0MiAzNS41ODMyIDMxLjUxMDYgMzQuMzE2NSAzMi4yNjY1TDI2LjY0NjkgMzYuODQzNVpNMjMuNzg0NCAzNC40NDUyQzI0LjIyNTIgMzQuNzA4MyAyNC43NzQ4IDM0LjcwODMgMjUuMjE1NyAzNC40NDUyTDMyLjg4NTMgMjkuODY4MkMzMy4zMDc1IDI5LjYxNjIgMzMuNTY2MSAyOS4xNjA4IDMzLjU2NjEgMjguNjY5MVYxOS4zNTI5QzMzLjU2NjEgMTguODYxMiAzMy4zMDc1IDE4LjQwNTggMzIuODg1MyAxOC4xNTM4TDI1LjIxNTcgMTMuNTc2OEMyNC43NzQ5IDEzLjMxMzcgMjQuMjI1MiAxMy4zMTM3IDIzLjc4NDQgMTMuNTc2OEwxNi4xMTQ4IDE4LjE1MzhDMTUuNjkyNiAxOC40MDU4IDE1LjQzNCAxOC44NjEyIDE1LjQzNCAxOS4zNTI5TDE1LjQzNCAyOC42NjkxQzE1LjQzNCAyOS4xNjA4IDE1LjY5MjYgMjkuNjE2MiAxNi4xMTQ4IDI5Ljg2ODJMMjMuNzg0NCAzNC40NDUyWiIgY2xpcC1ydWxlPSJldmVub2RkIiBmaWxsLXJ1bGU9ImV2ZW5vZGQiLz4mI3hhOzwvZz4mI3hhOzxkZWZzPiYjeGE7PGxpbmVhckdyYWRpZW50IGdyYWRpZW50VW5pdHM9InVzZXJTcGFjZU9uVXNlIiB5Mj0iNDQuMjc5MiIgeDI9IjQxLjU2NDUiIHkxPSI2Ljg0Nzc1IiB4MT0iNC44NTI4NyIgaWQ9InBhaW50MF9saW5lYXJfMjYyMl8zMTQ1Ij4mI3hhOzxzdG9wIHN0b3AtY29sb3I9IndoaXRlIi8+JiN4YTs8c3RvcCBzdG9wLWNvbG9yPSIjRUFFQ0VFIiBvZmZzZXQ9IjEiLz4mI3hhOzwvbGluZWFyR3JhZGllbnQ+JiN4YTs8cmFkaWFsR3JhZGllbnQgZ3JhZGllbnRUcmFuc2Zvcm09InRyYW5zbGF0ZSgxNi4zMTM4IDE0LjYyNTYpIHJvdGF0ZSg0OC41NDMxKSBzY2FsZSgyNC45NTQ0IDIyLjU2NjMpIiBncmFkaWVudFVuaXRzPSJ1c2VyU3BhY2VPblVzZSIgcj0iMSIgY3k9IjAiIGN4PSIwIiBpZD0icGFpbnQxX3JhZGlhbF8yNjIyXzMxNDUiPiYjeGE7PHN0b3Agc3RvcC1jb2xvcj0iIzEzNDhGRiIvPiYjeGE7PHN0b3Agc3RvcC1jb2xvcj0iIzA2MjM4RCIgb2Zmc2V0PSIxIi8+JiN4YTs8L3JhZGlhbEdyYWRpZW50PiYjeGE7PHJhZGlhbEdyYWRpZW50IGdyYWRpZW50VHJhbnNmb3JtPSJ0cmFuc2xhdGUoMTYuMzE5MSAxNC41Mjg4KSByb3RhdGUoNDguODU4NSkgc2NhbGUoMjQuOTU4OCA0Ni43MzM2KSIgZ3JhZGllbnRVbml0cz0idXNlclNwYWNlT25Vc2UiIHI9IjEiIGN5PSIwIiBjeD0iMCIgaWQ9InBhaW50Ml9yYWRpYWxfMjYyMl8zMTQ1Ij4mI3hhOzxzdG9wIHN0b3AtY29sb3I9IiMwMTk1RkYiLz4mI3hhOzxzdG9wIHN0b3AtY29sb3I9IiMxMTQ3RTkiIG9mZnNldD0iMSIvPiYjeGE7PC9yYWRpYWxHcmFkaWVudD4mI3hhOzxjbGlwUGF0aCBpZD0iY2xpcDBfMjYyMl8zMTQ1Ij4mI3hhOzxyZWN0IHRyYW5zZm9ybT0idHJhbnNsYXRlKDExIDEwLjUzNDkpIiBmaWxsPSJ3aGl0ZSIgaGVpZ2h0PSIyNyIgd2lkdGg9IjI3Ii8+JiN4YTs8L2NsaXBQYXRoPiYjeGE7PC9kZWZzPiYjeGE7PC9zdmc+;points=[[0,0,0,0,0],[0,0.25,0,0,0],[0,0.5,0,0,0],[0,0.75,0,0,0],[0.25,0,0,0,0],[0.5,0,0,0,0],[0.75,0,0,0,0],[1,0,0,0,0],[1,0.25,0,0,0],[1,0.5,0,0,0],[1,0.75,0,0,0]];" parent="_ywG5binYb0rLTDRe6u4-6" vertex="1">
          <mxGeometry x="21.316909090909093" y="8" width="25.368245614035093" height="25.368245614035093" as="geometry" />
        </mxCell>
        <mxCell id="_ywG5binYb0rLTDRe6u4-8" value="&lt;font color=&quot;#1d2d3e&quot; size=&quot;1&quot; face=&quot;arial&quot; style=&quot;&quot;&gt;&lt;b style=&quot;font-size: 12px;&quot;&gt;SAP AI Launchpad&lt;br&gt;&lt;/b&gt;&lt;/font&gt;" style="text;html=1;align=center;verticalAlign=top;resizable=1;points=[[0,0.5,0,0,0],[0.21,1,0,0,0],[0.5,1,0,0,0],[0.85,1,0,0,0],[1,0.5,0,0,0]];autosize=0;strokeColor=none;fillColor=none;fontSize=12;fontColor=default;fontFamily=Helvetica;fixedWidth=1;imageWidth=24;whiteSpace=wrap;labelBackgroundColor=none;" parent="_ywG5binYb0rLTDRe6u4-6" vertex="1">
          <mxGeometry y="31.61" width="70" height="28.39" as="geometry" />
        </mxCell>
        <mxCell id="OfAU59fTZWmp4iSplw8R-25" style="rounded=0;orthogonalLoop=1;jettySize=auto;html=1;exitX=0;exitY=0.5;exitDx=0;exitDy=0;exitPerimeter=0;endArrow=blockThin;endFill=1;entryX=1;entryY=0.5;entryDx=0;entryDy=0;" parent="WWFOWXg0JfWwrn1Fm2mf-2" source="OfAU59fTZWmp4iSplw8R-20" target="m9YYBKn2A9ynQCPHmd28-12" edge="1">
          <mxGeometry relative="1" as="geometry">
            <mxPoint x="330" y="181" as="targetPoint" />
          </mxGeometry>
        </mxCell>
        <mxCell id="OfAU59fTZWmp4iSplw8R-29" value="" style="group" parent="WWFOWXg0JfWwrn1Fm2mf-2" vertex="1" connectable="0">
          <mxGeometry x="484.920634920635" y="163.92857142857142" width="113.49206349206351" height="122.14285714285714" as="geometry" />
        </mxCell>
        <mxCell id="OfAU59fTZWmp4iSplw8R-31" value="" style="shape=image;verticalLabelPosition=bottom;verticalAlign=top;imageAspect=0;aspect=fixed;image=data:image/svg+xml,PHN2ZyB4bWxucz0iaHR0cDovL3d3dy53My5vcmcvMjAwMC9zdmciIGZpbGw9Im5vbmUiIHZpZXdCb3g9IjAgMCA0OCA0OSIgaGVpZ2h0PSI0OSIgd2lkdGg9IjQ4Ij4mI3hhOzxjaXJjbGUgc3Ryb2tlLXdpZHRoPSIwLjg1NzE0MyIgc3Ryb2tlPSIjRDVEQUREIiBmaWxsPSJ1cmwoI3BhaW50MF9saW5lYXJfMjYyMV8yOTIwMikiIHI9IjIzLjU3MTQiIGN5PSIyNC4wNDkxIiBjeD0iMjQiLz4mI3hhOzxnIGNsaXAtcGF0aD0idXJsKCNjbGlwMF8yNjIxXzI5MjAyKSI+JiN4YTs8cGF0aCBmaWxsPSJ1cmwoI3BhaW50MV9yYWRpYWxfMjYyMV8yOTIwMikiIGQ9Ik0zMC45MTE3IDkuNjAxODFIMjIuOTQyOUMyMi42NDQ2IDkuNjAxODEgMjIuMzU4NSA5LjcyMDMxIDIyLjE0NzYgOS45MzEyNEMyMS45MzY2IDEwLjE0MjIgMjEuODE4MSAxMC40MjgyIDIxLjgxODEgMTAuNzI2NVYxNC42NzVDMjEuODE4MSAxNS41OTc0IDIxLjQ4ODcgMTYuMzg4IDIwLjgyOTkgMTcuMDQ2OUMyMC4xNzEgMTcuNzA1OCAxOS4zODA0IDE4LjAzNTIgMTguNDU4IDE4LjAzNTJIMTQuNTA5NUMxNC4yMTEyIDE4LjAzNTIgMTMuOTI1MSAxOC4xNTM3IDEzLjcxNDIgMTguMzY0NkMxMy41MDMzIDE4LjU3NTUgMTMuMzg0OCAxOC44NjE2IDEzLjM4NDggMTkuMTU5OVYzMy44NDkxQzEzLjM4NDggMzUuMzQwMiAxNC41OTM2IDM2LjU0OTEgMTYuMDg0OCAzNi41NDkxSDIzLjEwMUMyMi41OTQ5IDM2LjA0NSAyMi4xMzM0IDM1LjQ5NjIgMjEuNzIyOCAzNC45MDkxQzIxLjQwMjQgMzQuNDUwOSAyMS41MTQxIDMzLjgxOTYgMjEuOTcyNCAzMy40OTkxQzIyLjQzMDYgMzMuMTc4NyAyMy4wNjE5IDMzLjI5MDQgMjMuMzgyMyAzMy43NDg3QzI0LjA1ODEgMzQuNzE1MiAyNC45MDAxIDM1LjU1NzEgMjUuODY2NiAzNi4yMzI5QzI1Ljk4OTcgMzYuMzE5IDI2LjA4NzggMzYuNDI3NSAyNi4xNTkyIDM2LjU0OTFIMzAuOTExN0MzMi4xNjg1IDM2LjU0OTEgMzMuMjI0NyAzNS42OTA0IDMzLjUyNTcgMzQuNTI3N0MzMy4xMzk0IDM0LjU5ODYgMzIuNzQwNiAzNC42MzM5IDMyLjMzMSAzNC42MzM5SDMwLjk0N0MzMC4xNjY5IDM0LjYzMzkgMjkuNTAwMSAzNC4zMDcyIDI5LjAwMTUgMzMuODA4NkMyOC41OTMzIDMzLjQwMDQgMjguMzMxNiAzMi44OTQzIDI4LjI0MTUgMzIuMzM1M0wyNy4xNTU5IDMyLjM0NzNDMjYuNDUxNSAzMi4zNDczIDI1Ljc0IDMyLjExMTcgMjUuMTgwMyAzMS41NTJDMjQuNjIwNyAzMC45OTI0IDI0LjM4NTIgMzAuMjgwOSAyNC4zODUyIDI5LjU3NjVDMjQuMzg1MiAyOS4wNDY0IDI0LjUxODYgMjguNTEyNCAyNC44MjMgMjguMDQyQzI0LjUxODYgMjcuNTcxNiAyNC4zODUyIDI3LjAzNzYgMjQuMzg1MiAyNi41MDc1QzI0LjM4NTIgMjUuODAzMSAyNC42MjA3IDI1LjA5MTYgMjUuMTgwMyAyNC41MzJDMjUuNzUzOSAyMy45NTg0IDI2LjQ3ODYgMjMuNzY2OSAyNy4xMjU4IDIzLjc2NjlMMjguMjQ0NiAyMy43NjY5QzI4LjMzMTUgMjMuMjI4IDI4LjU3MDMgMjIuNzA2NiAyOS4wMDE1IDIyLjI3NTRDMjkuNTMxNyAyMS43NDUyIDMwLjIyODcgMjEuNDUzIDMwLjk5NzkgMjEuNDc5M0wzMi4zMTIzIDIxLjQ1MDFIMzIuMzMxQzMyLjc3MDcgMjEuNDUwMSAzMy4xOTg1IDIxLjQ4OTIgMzMuNjExNyAyMS41Njg4VjE4LjE1NDNDMzMuNTI5NyAxOC4xNjAyIDMzLjQ0NTcgMTguMTU2MyAzMy4zNjExIDE4LjE0MTNDMzIuNzkxMSAxOC4wNDA2IDMyLjIwMzggMTcuOTg3OSAzMS42MDM1IDE3Ljk4NzlDMzEuMDAzMSAxNy45ODc5IDMwLjQxNTggMTguMDQwNiAyOS44NDU5IDE4LjE0MTNDMjkuMjk1MiAxOC4yMzg2IDI4Ljc2OTkgMTcuODcxMSAyOC42NzI2IDE3LjMyMDVDMjguNTc1MyAxNi43Njk4IDI4Ljk0MjggMTYuMjQ0NSAyOS40OTM0IDE2LjE0NzJDMzAuMTc5MiAxNi4wMjYgMzAuODg0NCAxNS45NjI5IDMxLjYwMzUgMTUuOTYyOUMzMi4yODcgMTUuOTYyOSAzMi45NTggMTYuMDE5OSAzMy42MTE3IDE2LjEyOTdWMTIuMzAxOEMzMy42MTE3IDEwLjgxMDYgMzIuNDAyOSA5LjYwMTgxIDMwLjkxMTcgOS42MDE4MVpNMjYuMTE2MSAxOC4zODA3QzI2LjQzNjYgMTguODM5IDI2LjMyNDkgMTkuNDcwMyAyNS44NjY2IDE5Ljc5MDdDMjQuOTAwMSAyMC40NjY1IDI0LjA1ODEgMjEuMzA4NSAyMy4zODIzIDIyLjI3NUMyMy4wNjE5IDIyLjczMzIgMjIuNDMwNiAyMi44NDQ5IDIxLjk3MjQgMjIuNTI0NUMyMS41MTQxIDIyLjIwNDEgMjEuNDAyNCAyMS41NzI4IDIxLjcyMjggMjEuMTE0NUMyMi41MzQ1IDE5Ljk1MzggMjMuNTQ1NCAxOC45NDI5IDI0LjcwNjIgMTguMTMxMkMyNS4xNjQ0IDE3LjgxMDcgMjUuNzk1NyAxNy45MjI1IDI2LjExNjEgMTguMzgwN1pNMjAuOTEyMSAyNS4wODFDMjEuNDYyOCAyNS4xNzgzIDIxLjgzMDMgMjUuNzAzNiAyMS43MzI5IDI2LjI1NDJDMjEuNjMyMiAyNi44MjQyIDIxLjU3OTUgMjcuNDExNCAyMS41Nzk1IDI4LjAxMThDMjEuNTc5NSAyOC42MTIyIDIxLjYzMjIgMjkuMTk5NSAyMS43MzI5IDI5Ljc2OTRDMjEuODMwMyAzMC4zMjAxIDIxLjQ2MjggMzAuODQ1NCAyMC45MTIxIDMwLjk0MjdDMjAuMzYxNSAzMS4wNCAxOS44MzYyIDMwLjY3MjUgMTkuNzM4OCAzMC4xMjE5QzE5LjYxNzYgMjkuNDM2MSAxOS41NTQ1IDI4LjczMDkgMTkuNTU0NSAyOC4wMTE4QzE5LjU1NDUgMjcuMjkyOCAxOS42MTc2IDI2LjU4NzYgMTkuNzM4OCAyNS45MDE4QzE5LjgzNjIgMjUuMzUxMSAyMC4zNjE0IDI0Ljk4MzYgMjAuOTEyMSAyNS4wODFaIiBjbGlwLXJ1bGU9ImV2ZW5vZGQiIGZpbGwtcnVsZT0iZXZlbm9kZCIvPiYjeGE7PHBhdGggZmlsbD0idXJsKCNwYWludDJfcmFkaWFsXzI2MjFfMjkyMDIpIiBkPSJNMjYuMzczNiAyNS43MjUyQzI2LjE3MyAyNS45MjU4IDI2LjA3MjggMjYuMTg2NiAyNi4wNzI4IDI2LjUwNzVDMjYuMDcyOCAyNi44Mjg0IDI2LjE3MyAyNy4wODkyIDI2LjM3MzYgMjcuMjg5OEMyNi41NzQyIDI3LjQ5MDQgMjYuODM1IDI3LjU5MDcgMjcuMTU1OSAyNy41OTA3TDI5Ljg5MzkgMjcuNTYwNkwyOS44OTM5IDI4LjUyMzRMMjcuMTU1OSAyOC40OTMzQzI2LjgzNSAyOC40OTMzIDI2LjU3NDIgMjguNTkzNiAyNi4zNzM2IDI4Ljc5NDJDMjYuMTczIDI4Ljk5NDggMjYuMDcyOCAyOS4yNTU2IDI2LjA3MjggMjkuNTc2NUMyNi4wNzI4IDI5Ljg5NzQgMjYuMTczIDMwLjE1ODIgMjYuMzczNiAzMC4zNTg4QzI2LjU3NDIgMzAuNTU5NCAyNi44MzUgMzAuNjU5NyAyNy4xNTU5IDMwLjY1OTdMMjkuODkzOSAzMC42Mjk2VjMxLjg5MzNDMjkuODkzOSAzMi4xNzQxIDI5Ljk5NDIgMzIuNDE0OCAzMC4xOTQ4IDMyLjYxNTRDMzAuNDE1NSAzMi44MzYgMzAuNjY2MiAzMi45NDY0IDMwLjk0NyAzMi45NDY0SDMyLjMzMTFDMzMuNDk0NSAzMi45NDY0IDM0LjQ4NzQgMzIuNTc1MyAzNS4zMDk4IDMxLjgzMzFDMzYuMTMyMiAzMS4wOTA5IDM2LjYwMzYgMzAuMTU4MiAzNi43MjQgMjkuMDM0OUwzOS40Mjc4IDI5LjAzNDlDMzkuNzQ4NyAyOS4wMzQ5IDQwLjAwOTUgMjguOTM0NiA0MC4yMTAxIDI4LjczNEM0MC4zOTA2IDI4LjU1MzUgNDAuNDgwOSAyOC4zMDI3IDQwLjQ4MDkgMjcuOTgxOEM0MC40ODA5IDI3LjY2MDkgNDAuMzgwNiAyNy40MDAxIDQwLjE4IDI3LjE5OTVDMzkuOTc5NCAyNi45OTg5IDM5LjcxODcgMjYuODk4NiAzOS4zOTc3IDI2Ljg5ODZMMzYuNjkzOSAyNi44OTg3QzM2LjUzMzQgMjUuODE1NSAzNi4wNTIgMjQuOTEyOCAzNS4yNDk2IDI0LjE5MDdDMzQuNDY3MyAyMy40ODg3IDMzLjQ5NDUgMjMuMTM3NiAzMi4zMzExIDIzLjEzNzZMMzAuOTc3MSAyMy4xNjc3QzMwLjY3NjIgMjMuMTQ3NyAzMC40MTU1IDIzLjI0OCAzMC4xOTQ4IDIzLjQ2ODZDMjkuOTk0MiAyMy42NjkyIDI5Ljg5MzkgMjMuOTMgMjkuODkzOSAyNC4yNTA5TDI5Ljg5MzkgMjUuNDU0NEwyNy4xMjU4IDI1LjQ1NDRDMjYuODA0OSAyNS40NTQ0IDI2LjU1NDIgMjUuNTQ0NyAyNi4zNzM2IDI1LjcyNTJaIi8+JiN4YTs8cGF0aCBmaWxsPSJ1cmwoI3BhaW50M19yYWRpYWxfMjYyMV8yOTIwMikiIGQ9Ik0yMC41NjcgMTQuNTA1NFYxMS41MTE4TDE1LjI5NDcgMTYuNzg0MUgxOC4yODgzQzE4LjkxMzggMTYuNzg0MSAxOS40NSAxNi41NjA3IDE5Ljg5NjggMTYuMTEzOUMyMC4zNDM2IDE1LjY2NzEgMjAuNTY3IDE1LjEzMDkgMjAuNTY3IDE0LjUwNTRaIi8+JiN4YTs8L2c+JiN4YTs8ZGVmcz4mI3hhOzxsaW5lYXJHcmFkaWVudCBncmFkaWVudFVuaXRzPSJ1c2VyU3BhY2VPblVzZSIgeTI9IjQ0LjI5MzQiIHgyPSI0MS4wNjQ1IiB5MT0iNi44NjE5MSIgeDE9IjQuMzUyODciIGlkPSJwYWludDBfbGluZWFyXzI2MjFfMjkyMDIiPiYjeGE7PHN0b3Agc3RvcC1jb2xvcj0id2hpdGUiLz4mI3hhOzxzdG9wIHN0b3AtY29sb3I9IiNFQUVDRUUiIG9mZnNldD0iMSIvPiYjeGE7PC9saW5lYXJHcmFkaWVudD4mI3hhOzxyYWRpYWxHcmFkaWVudCBncmFkaWVudFRyYW5zZm9ybT0idHJhbnNsYXRlKDE2LjUyMTQgMTMuNTU4NSkgcm90YXRlKDUzLjQxMjYpIHNjYWxlKDIzLjQ5NDggNDIuNDkzOSkiIGdyYWRpZW50VW5pdHM9InVzZXJTcGFjZU9uVXNlIiByPSIxIiBjeT0iMCIgY3g9IjAiIGlkPSJwYWludDFfcmFkaWFsXzI2MjFfMjkyMDIiPiYjeGE7PHN0b3Agc3RvcC1jb2xvcj0iIzAxOTVGRiIvPiYjeGE7PHN0b3Agc3RvcC1jb2xvcj0iIzExNDdFOSIgb2Zmc2V0PSIxIi8+JiN4YTs8L3JhZGlhbEdyYWRpZW50PiYjeGE7PHJhZGlhbEdyYWRpZW50IGdyYWRpZW50VHJhbnNmb3JtPSJ0cmFuc2xhdGUoMjguMzAzOCAyNC42MTMyKSByb3RhdGUoMzQuMjQ2MSkgc2NhbGUoMTIuMTQxMyAxMC4yOTM1KSIgZ3JhZGllbnRVbml0cz0idXNlclNwYWNlT25Vc2UiIHI9IjEiIGN5PSIwIiBjeD0iMCIgaWQ9InBhaW50Ml9yYWRpYWxfMjYyMV8yOTIwMiI+JiN4YTs8c3RvcCBzdG9wLWNvbG9yPSIjMTM0OEZGIi8+JiN4YTs8c3RvcCBzdG9wLWNvbG9yPSIjMDYyMzhEIiBvZmZzZXQ9IjEiLz4mI3hhOzwvcmFkaWFsR3JhZGllbnQ+JiN4YTs8cmFkaWFsR3JhZGllbnQgZ3JhZGllbnRUcmFuc2Zvcm09InRyYW5zbGF0ZSgxNi4xMTExIDEyLjMwNDkpIHJvdGF0ZSg0NSkgc2NhbGUoNS4xOTM3NyA0LjczMjg5KSIgZ3JhZGllbnRVbml0cz0idXNlclNwYWNlT25Vc2UiIHI9IjEiIGN5PSIwIiBjeD0iMCIgaWQ9InBhaW50M19yYWRpYWxfMjYyMV8yOTIwMiI+JiN4YTs8c3RvcCBzdG9wLWNvbG9yPSIjMTM0OEZGIi8+JiN4YTs8c3RvcCBzdG9wLWNvbG9yPSIjMDYyMzhEIiBvZmZzZXQ9IjEiLz4mI3hhOzwvcmFkaWFsR3JhZGllbnQ+JiN4YTs8Y2xpcFBhdGggaWQ9ImNsaXAwXzI2MjFfMjkyMDIiPiYjeGE7PHJlY3QgdHJhbnNmb3JtPSJ0cmFuc2xhdGUoMTMuNSA5LjU0OTA3KSIgZmlsbD0id2hpdGUiIGhlaWdodD0iMjciIHdpZHRoPSIyNyIvPiYjeGE7PC9jbGlwUGF0aD4mI3hhOzwvZGVmcz4mI3hhOzwvc3ZnPg==;points=[[0,0,0,0,0],[0,0.25,0,0,0],[0,0.5,0,0,0],[0,0.75,0,0,0],[0.25,0,0,0,0],[0.5,0,0,0,0],[0.75,0,0,0,0],[1,0,0,0,0],[1,0.25,0,0,0],[1,0.5,0,0,0],[1,0.75,0,0,0]];container=0;fontColor=default;" parent="OfAU59fTZWmp4iSplw8R-29" vertex="1">
          <mxGeometry x="36.534126984126985" y="11.571428571428571" width="41.43492063492064" height="42.301587301587304" as="geometry">
            <mxRectangle x="35.41" y="9" width="50" height="40" as="alternateBounds" />
          </mxGeometry>
        </mxCell>
        <mxCell id="OfAU59fTZWmp4iSplw8R-32" style="rounded=0;orthogonalLoop=1;jettySize=auto;html=1;exitX=0;exitY=0.5;exitDx=0;exitDy=0;exitPerimeter=0;entryX=1;entryY=0.5;entryDx=0;entryDy=0;entryPerimeter=0;endArrow=blockThin;endFill=1;startArrow=blockThin;startFill=1;" parent="WWFOWXg0JfWwrn1Fm2mf-2" source="OfAU59fTZWmp4iSplw8R-31" target="OfAU59fTZWmp4iSplw8R-20" edge="1">
          <mxGeometry relative="1" as="geometry" />
        </mxCell>
        <mxCell id="OfAU59fTZWmp4iSplw8R-30" value="&lt;font color=&quot;#1d2d3e&quot; size=&quot;1&quot; face=&quot;arial&quot; style=&quot;&quot;&gt;&lt;b style=&quot;font-size: 13px;&quot;&gt;Destination&lt;br&gt;&lt;/b&gt;&lt;/font&gt;" style="text;html=1;align=center;verticalAlign=top;resizable=1;points=[[0,0.5,0,0,0],[0.21,1,0,0,0],[0.5,1,0,0,0],[0.85,1,0,0,0],[1,0.5,0,0,0]];autosize=0;strokeColor=none;fillColor=none;fontSize=12;fontColor=default;fontFamily=Helvetica;fixedWidth=1;imageWidth=24;whiteSpace=wrap;labelBackgroundColor=none;" parent="WWFOWXg0JfWwrn1Fm2mf-2" vertex="1">
          <mxGeometry x="484.920634920635" y="223.7142857142857" width="113.49206349206351" height="59.14285714285714" as="geometry" />
        </mxCell>
        <mxCell id="OfAU59fTZWmp4iSplw8R-50" value="" style="group" parent="WWFOWXg0JfWwrn1Fm2mf-2" vertex="1" connectable="0">
          <mxGeometry x="111.2857142857143" y="163.92857142857142" width="113.49206349206351" height="122.14285714285714" as="geometry" />
        </mxCell>
        <mxCell id="OfAU59fTZWmp4iSplw8R-51" value="" style="shape=image;verticalLabelPosition=bottom;verticalAlign=top;imageAspect=0;aspect=fixed;image=data:image/svg+xml,PHN2ZyB4bWxucz0iaHR0cDovL3d3dy53My5vcmcvMjAwMC9zdmciIGZpbGw9Im5vbmUiIHZpZXdCb3g9IjAgMCA0OSA0OSIgaGVpZ2h0PSI0OSIgd2lkdGg9IjQ5Ij4mI3hhOzxnIGNsaXAtcGF0aD0idXJsKCNjbGlwMF8yNjIyXzQwOTQpIj4mI3hhOzxjaXJjbGUgc3Ryb2tlLXdpZHRoPSIwLjg1NzE0MyIgc3Ryb2tlPSIjRDVEQUREIiBmaWxsPSJ1cmwoI3BhaW50MF9saW5lYXJfMjYyMl80MDk0KSIgcj0iMjMuNTcxNCIgY3k9IjI0LjAzNDkiIGN4PSIyNC41Ii8+JiN4YTs8ZyBjbGlwLXBhdGg9InVybCgjY2xpcDFfMjYyMl80MDk0KSI+JiN4YTs8bWFzayBoZWlnaHQ9IjI4IiB3aWR0aD0iMjciIHk9IjkiIHg9IjEyIiBtYXNrVW5pdHM9InVzZXJTcGFjZU9uVXNlIiBzdHlsZT0ibWFzay10eXBlOmx1bWluYW5jZSIgaWQ9Im1hc2swXzI2MjJfNDA5NCI+JiN4YTs8cGF0aCBmaWxsPSJ3aGl0ZSIgZD0iTTI1LjIwMDQgOS41MzQ4OEMyNS4yMDA0IDkuNTM0ODggMjUuMTk3MSAxMC42NTg2IDI4LjEzNDcgMTIuNDQzM0MzMy44MzgyIDE1LjkwNjkgMzMuODE4OCAxOS4wODQ4IDMzLjgxODggMTkuNzUxN0MzMy44MTg4IDIyLjU4MzQgMzAuODcxNCAyNC40MTQgMjkuNTA0MiAyMi45MzIzQzI5LjUwNDIgMjIuOTMyMyAzMC44NDYxIDIxLjkzNjUgMzAuODQ2MSAyMC40MDUxQzMwLjg0NjEgMjAuNDA1MSAyOS44NjIyIDIxLjA1MzEgMjkuMzQ3NiAyMS4xNjU0QzI5LjM0NzYgMjEuMTY1NCAzMC4wMTgyIDE5Ljk4MDEgMjkuNzA1NiAxNy45MDA2QzI5LjcwNTYgMTcuOTAwNiAyOS4xNjg4IDE4Ljk1MTQgMjcuNDQ2OCAxOS44MDE0QzI3LjQ0NjggMTkuODAxNCAyOC4xMTc0IDE4LjMwMjkgMjcuNDkxNiAxNi44NzE5QzI3LjQ5MTYgMTYuODcxOSAyNy42MjU1IDE4LjY2MDkgMjMuNTU1IDIwLjU2MTdDMTkuNDg0NSAyMi40NjI1IDIwLjczNzMgMjQuMzYzOCAyMC43MzczIDI0LjM2MzhDMjAuNzM3MyAyNC4zNjM4IDIxLjU0NzMgMjMuNDk5OCAyMi45MjY0IDI0LjEwNzNDMjQuNzkgMjQuOTI2IDI0LjAzNjcgMjguMjExMyAyMS4wMzk3IDI4LjIxMTNDMTguMTIzNyAyOC4yMTEzIDE2LjIwNzIgMjUuMDM4MyAxNi4yMDcyIDIyLjU2MDJDMTYuMjA3MiAyMS41MzQyIDE2LjMxODQgMTkuNjUxMiAxOC4xNjkgMTcuNTc4MkMxOS42NDExIDE1LjkyOTYgMjEuNDU2NSAxNS4wNTk2IDIxLjg0NTkgMTMuMjM2NkMxOS44MzAxIDE1LjEwNTUgMTYuMTkxIDE2LjMyNTkgMTQuMDI4MyAxOS41MjQ5QzEyLjA4NDMgMjIuMzk4MiAxMi43MTYxIDI2LjE5OTMgMTMuMDY1NSAyNy4zNjg0QzE0LjY1MiAzMi42NzA2IDE5LjU2NzYgMzYuNTM0OSAyNS4zODU2IDM2LjUzNDlDMzIuNDg3MSAzNi41MzQ5IDM4LjMxNzUgMzAuODUyNSAzOC4zMTc1IDIzLjc1MDlDMzguMzE3NSAxMy4wMDA2IDI4LjA5NzUgMTEuODYwMSAyNS4yMDA0IDkuNTM0ODhaTTIzLjQ3OTkgMjIuNjk1MkMyMy4yNjM5IDIyLjc0NTQgMjMuMDU2IDIyLjY1NDcgMjIuNzEwNCAyMi41NUMyMi4zODY0IDIyLjQ1MTcgMjIuMjcyNSAyMi40NyAyMi4yNzI1IDIyLjQ3QzIyLjQ5MDggMjIuMzIzMSAyMi43MTk1IDIyLjE5MjEgMjIuOTU2NyAyMi4wNzhDMjMuMzAwMSAyMS45MTk4IDIzLjU5MzkgMjEuOTExNyAyMy43Mjk5IDIyLjIyNkMyMy44MTk2IDIyLjQzMjggMjMuNjU3IDIyLjY1MzYgMjMuNDc5OSAyMi42OTUyWiIvPiYjeGE7PC9tYXNrPiYjeGE7PGcgbWFzaz0idXJsKCNtYXNrMF8yNjIyXzQwOTQpIj4mI3hhOzxwYXRoIGZpbGw9InVybCgjcGFpbnQxX3JhZGlhbF8yNjIyXzQwOTQpIiBkPSJNMjUuMjAwNCA5LjUzNDg4QzI1LjIwMDQgOS41MzQ4OCAyNS4xOTcxIDEwLjY1ODYgMjguMTM0NyAxMi40NDMzQzMzLjgzODIgMTUuOTA2OSAzMy44MTg4IDE5LjA4NDggMzMuODE4OCAxOS43NTE3QzMzLjgxODggMjIuNTgzNCAzMC44NzE0IDI0LjQxNCAyOS41MDQyIDIyLjkzMjNDMjkuNTA0MiAyMi45MzIzIDMwLjg0NjEgMjEuOTM2NSAzMC44NDYxIDIwLjQwNTFDMzAuODQ2MSAyMC40MDUxIDI5Ljg2MjIgMjEuMDUzMSAyOS4zNDc2IDIxLjE2NTRDMjkuMzQ3NiAyMS4xNjU0IDMwLjAxODIgMTkuOTgwMSAyOS43MDU2IDE3LjkwMDZDMjkuNzA1NiAxNy45MDA2IDI5LjE2ODggMTguOTUxNCAyNy40NDY4IDE5LjgwMTRDMjcuNDQ2OCAxOS44MDE0IDI4LjExNzQgMTguMzAyOSAyNy40OTE2IDE2Ljg3MTlDMjcuNDkxNiAxNi44NzE5IDI3LjYyNTUgMTguNjYwOSAyMy41NTUgMjAuNTYxN0MxOS40ODQ1IDIyLjQ2MjUgMjAuNzM3MyAyNC4zNjM4IDIwLjczNzMgMjQuMzYzOEMyMC43MzczIDI0LjM2MzggMjEuNTQ3MyAyMy40OTk4IDIyLjkyNjQgMjQuMTA3M0MyNC43OSAyNC45MjYgMjQuMDM2NyAyOC4yMTEzIDIxLjAzOTcgMjguMjExM0MxOC4xMjM3IDI4LjIxMTMgMTYuMjA3MiAyNS4wMzgzIDE2LjIwNzIgMjIuNTYwMkMxNi4yMDcyIDIxLjUzNDIgMTYuMzE4NCAxOS42NTEyIDE4LjE2OSAxNy41NzgyQzE5LjY0MTEgMTUuOTI5NiAyMS40NTY1IDE1LjA1OTYgMjEuODQ1OSAxMy4yMzY2QzE5LjgzMDEgMTUuMTA1NSAxNi4xOTEgMTYuMzI1OSAxNC4wMjgzIDE5LjUyNDlDMTIuMDg0MyAyMi4zOTgyIDEyLjcxNjEgMjYuMTk5MyAxMy4wNjU1IDI3LjM2ODRDMTQuNjUyIDMyLjY3MDYgMTkuNTY3NiAzNi41MzQ5IDI1LjM4NTYgMzYuNTM0OUMzMi40ODcxIDM2LjUzNDkgMzguMzE3NSAzMC44NTI1IDM4LjMxNzUgMjMuNzUwOUMzOC4zMTc1IDEzLjAwMDYgMjguMDk3NSAxMS44NjAxIDI1LjIwMDQgOS41MzQ4OFoiLz4mI3hhOzxwYXRoIGZpbGw9InVybCgjcGFpbnQyX3JhZGlhbF8yNjIyXzQwOTQpIiBkPSJNMjQuNDYyMSAyMi45NjRDMjYuNzI2MyAyMS43OTcxIDI3LjQ1MjEgMTkuNzk3NCAyNy40NTIxIDE5Ljc5NzRDMjcuNDUyMSAxOS43OTc0IDI4LjEyMjggMTguMjk4NCAyNy40OTY0IDE2Ljg2NThDMjcuNDk2NCAxNi44NjU4IDI3LjYzMDMgMTguNjU2NCAyMy41NTQ0IDIwLjU1ODhDMTkuNDc4NSAyMi40NjEzIDIwLjczNDUgMjQuMzYzNyAyMC43MzQ1IDI0LjM2MzdDMjAuOTQ3OCAyNC4xNzM2IDIxLjE1MDggMjQuMDQ1MSAyMS41NTMxIDIzLjkzNzFDMjIuMjI2IDIzLjc1NjcgMjMuMjgwNiAyMy41NzQ3IDI0LjQ2MjEgMjIuOTY0WiIgb3BhY2l0eT0iMC42Ii8+JiN4YTs8cGF0aCBmaWxsPSJ1cmwoI3BhaW50M19yYWRpYWxfMjYyMl80MDk0KSIgZD0iTTI0LjU3ODggMjMuNzkwOEMyNi4zMjg0IDIzLjc5MDggMjguMzUyOCAyMi45Nzc1IDI5LjM1NDUgMjEuMTYxQzI5LjUxMTEgMjAuODc3NSAyOS42NTA1IDIwLjQxNjkgMjkuNzIwMSAxOS45ODMyQzI5LjgyODEgMTkuMjkyIDI5Ljg0MTYgMTguNzc4IDI5LjcxNDIgMTcuODQ0M0MyOS43MTQyIDE3Ljg0NDMgMjkuMzgyNiAxOC43NzM2IDI3LjQ1MjEgMTkuNzk1M0MyNi43NTAxIDIwLjE2NjMgMjUuODUzMiAyMC41MzczIDI0LjY2NTIgMjAuODk4QzIwLjA2MjIgMjIuMjk1IDIwLjczNzIgMjQuMzYxNiAyMC43MzcyIDI0LjM2MTZDMjEuNDYyNCAyMy44ODM3IDIxLjQ2NjggMjMuNzkwOCAyNC41Nzg4IDIzLjc5MDhaIiBvcGFjaXR5PSIwLjQiLz4mI3hhOzxwYXRoIGZpbGw9InVybCgjcGFpbnQ0X3JhZGlhbF8yNjIyXzQwOTQpIiBkPSJNMjQuNTc4NyAyMy43OTA3QzI2LjE4NzQgMjMuNzkwNyAyOC4zNzQ0IDIzLjg4MTQgMjkuNTEwNiAyMi45MjY3QzMwLjIwNzIgMjIuMzQzIDMwLjg0MzMgMjEuNTcxMyAzMC44NTUyIDIwLjM5NTJDMzAuODU1MiAyMC4zOTUyIDI5LjkwMjEgMjEuMDI0MyAyOS4zNTQ1IDIxLjE1OTNDMjguNTk4NSAyMS4zNDYxIDI3LjIzMjggMjEuNjMzNCAyNS45ODU0IDIxLjU2MjdDMjEuNzUxMyAyMS4zMjI0IDIwLjczNzIgMjQuMzU5MyAyMC43MzcyIDI0LjM1OTNDMjEuMzIwOSAyMy44MjM3IDIyLjAzMTYgMjMuNzkwNyAyNC41Nzg3IDIzLjc5MDdaIiBvcGFjaXR5PSIwLjIiLz4mI3hhOzxwYXRoIGZpbGw9InVybCgjcGFpbnQ1X3JhZGlhbF8yNjIyXzQwOTQpIiBkPSJNMjQuNDYyMSAyMi45NjRDMjYuNzI2NCAyMS43OTcxIDI3LjQ1MjEgMTkuNzk3NSAyNy40NTIxIDE5Ljc5NzVDMjYuNzUwMSAyMC4xNjg1IDI1Ljg1MzIgMjAuNTM5NCAyNC42NjUyIDIwLjkwMDJDMjAuMDYyMiAyMi4yOTcxIDIwLjczNzIgMjQuMzYzNyAyMC43MzcyIDI0LjM2MzdDMjAuOTUwNSAyNC4xNzM2IDIxLjE1MzYgMjQuMDQ1MSAyMS41NTU5IDIzLjkzNzFDMjIuMjI2IDIzLjc1NjggMjMuMjgwNiAyMy41NzQ4IDI0LjQ2MjEgMjIuOTY0WiIgb3BhY2l0eT0iMC40Ii8+JiN4YTs8cGF0aCBmaWxsPSJ1cmwoI3BhaW50Nl9yYWRpYWxfMjYyMl80MDk0KSIgZD0iTTIxLjU1OCAyMy45MzcxQzIyLjIyODEgMjMuNzU2NyAyMy4yODI3IDIzLjU3MzEgMjQuNDY0MyAyMi45NjUxQzI1LjE0ODYgMjIuNjEyMiAyNS43NjU5IDIyLjE0MjMgMjYuMjg4NCAyMS41NzY3QzI2LjE4NjkgMjEuNTc2NyAyNi4wODU5IDIxLjU3MyAyNS45ODU0IDIxLjU2NzZDMjEuNzUxMyAyMS4zMjczIDIwLjczNzIgMjQuMzY0MiAyMC43MzcyIDI0LjM2NDJDMjAuOTIxMSAyNC4xODk5IDIxLjE0MjkgMjQuMDYwNSAyMS4zODUyIDIzLjk4NjJDMjEuNDM5NyAyMy45NzA2IDIxLjQ5NDggMjMuOTUyNyAyMS41NTggMjMuOTM3MVoiLz4mI3hhOzxwYXRoIGZpbGw9InVybCgjcGFpbnQ3X3JhZGlhbF8yNjIyXzQwOTQpIiBkPSJNMzguMzE3NSAyMy43NTA4QzM4LjMxNzUgMjEuNjA3IDM3LjkxMDMgMTkuODQ2MSAzNy4yMzc1IDE4LjM4MDVDMzcuMzAxNyAxOC41NzQ0IDM4LjYwMzcgMjIuNjQ2NSAzNS4zNDQyIDI1LjkwNDNDMzMuNDgzNCAyNy43NjUyIDMwLjMxNzQgMjguNDA5NCAyNy43NzE4IDI2LjM3NDdDMjcuNzcxOCAyNi4zNzQ3IDI4LjA5NTggMzEuNDgyIDIyLjA0NDYgMzIuMjM1M0MxOC4wOTM0IDMyLjcyNzIgMTQuOTg0MSAzMC4yMDk3IDEzLjYzNTEgMjcuMDAzMkMxMi42OTY2IDI0Ljc3MyAxMi42MDkxIDIyLjIwOTYgMTMuNjgzNyAyMC4wOTEyQzEyLjE2NTggMjIuODc5MiAxMi43Mzg3IDI2LjI3NDggMTMuMDY1NCAyNy4zNjgzQzE0LjY1MiAzMi42NzA1IDE5LjU2NzYgMzYuNTM0OCAyNS4zODU1IDM2LjUzNDhDMzIuNDg3MSAzNi41MzQ4IDM4LjMxNzUgMzAuODUyMyAzOC4zMTc1IDIzLjc1MDhaIiBvcGFjaXR5PSIwLjQiLz4mI3hhOzxwYXRoIGZpbGw9InVybCgjcGFpbnQ4X3JhZGlhbF8yNjIyXzQwOTQpIiBkPSJNMzcuMDExOSAyOS4zNTgyQzM2LjM0MTIgMjkuNTM5NiAzMS4wODQ5IDMwLjc5MDMgMjcuNzcwOSAyNi4zNzQ3QzI3Ljc3MDkgMjYuMzc0NyAyOS4zMTQyIDMyLjM2MDYgMjIuNzU0MyAzNi4yNjQ4QzIzLjYxOTggMzYuNDQ0OSAyNC41MDE2IDM2LjUzNTMgMjUuMzg1NyAzNi41MzQ4QzMwLjQ3MDkgMzYuNTM0OCAzNC45MDQzIDMzLjYxODggMzcuMDExOSAyOS4zNTgyWiIgb3BhY2l0eT0iMC42Ii8+JiN4YTs8cGF0aCBmaWxsPSJ1cmwoI3BhaW50OV9yYWRpYWxfMjYyMl80MDk0KSIgZD0iTTM0LjE1NzkgMzMuMTQyNUMzMC4wNDc5IDMxLjAyNjggMjcuNzcwOCAyNi4zNzQ3IDI3Ljc3MDggMjYuMzc0N0MyOS42MDI0IDMwLjg0MjEgMjguODA4NiAzNC4zMjg0IDI3Ljk4NjggMzYuMjc1MUMzMC4yODk1IDM1LjgwODkgMzIuNDIyNCAzNC43MjYyIDM0LjE1NzkgMzMuMTQyNVoiIG9wYWNpdHk9IjAuNyIvPiYjeGE7PC9nPiYjeGE7PC9nPiYjeGE7PC9nPiYjeGE7PGRlZnM+JiN4YTs8bGluZWFyR3JhZGllbnQgZ3JhZGllbnRVbml0cz0idXNlclNwYWNlT25Vc2UiIHkyPSI0NC4yNzkyIiB4Mj0iNDEuNTY0NSIgeTE9IjYuODQ3NzUiIHgxPSI0Ljg1Mjg3IiBpZD0icGFpbnQwX2xpbmVhcl8yNjIyXzQwOTQiPiYjeGE7PHN0b3Agc3RvcC1jb2xvcj0id2hpdGUiLz4mI3hhOzxzdG9wIHN0b3AtY29sb3I9IiNFQUVDRUUiIG9mZnNldD0iMSIvPiYjeGE7PC9saW5lYXJHcmFkaWVudD4mI3hhOzxyYWRpYWxHcmFkaWVudCBncmFkaWVudFRyYW5zZm9ybT0idHJhbnNsYXRlKDE2LjY1NzYgMTMuNDk5Mykgcm90YXRlKDQ2LjgwMjgpIHNjYWxlKDI1LjkyODYgNDguODk2MikiIGdyYWRpZW50VW5pdHM9InVzZXJTcGFjZU9uVXNlIiByPSIxIiBjeT0iMCIgY3g9IjAiIGlkPSJwYWludDFfcmFkaWFsXzI2MjJfNDA5NCI+JiN4YTs8c3RvcCBzdG9wLWNvbG9yPSIjMDE5NUZGIi8+JiN4YTs8c3RvcCBzdG9wLWNvbG9yPSIjMTE0N0U5IiBvZmZzZXQ9IjEiLz4mI3hhOzwvcmFkaWFsR3JhZGllbnQ+JiN4YTs8cmFkaWFsR3JhZGllbnQgZ3JhZGllbnRUcmFuc2Zvcm09InRyYW5zbGF0ZSgyMS42OTk2IDE3Ljk5MTEpIHJvdGF0ZSg0Ni4xMTQpIHNjYWxlKDcuMjg1NTEgOC44MzUzKSIgZ3JhZGllbnRVbml0cz0idXNlclNwYWNlT25Vc2UiIHI9IjEiIGN5PSIwIiBjeD0iMCIgaWQ9InBhaW50Ml9yYWRpYWxfMjYyMl80MDk0Ij4mI3hhOzxzdG9wIHN0b3AtY29sb3I9IiMwMEJCRkYiLz4mI3hhOzxzdG9wIHN0b3AtY29sb3I9IiMwMDhCRkYiIG9mZnNldD0iMSIvPiYjeGE7PC9yYWRpYWxHcmFkaWVudD4mI3hhOzxyYWRpYWxHcmFkaWVudCBncmFkaWVudFRyYW5zZm9ybT0idHJhbnNsYXRlKDIyLjE1MTIgMTguODIyNCkgcm90YXRlKDM1LjYwMDgpIHNjYWxlKDcuODQwMjQgOS4wMDc2NikiIGdyYWRpZW50VW5pdHM9InVzZXJTcGFjZU9uVXNlIiByPSIxIiBjeT0iMCIgY3g9IjAiIGlkPSJwYWludDNfcmFkaWFsXzI2MjJfNDA5NCI+JiN4YTs8c3RvcCBzdG9wLWNvbG9yPSIjMDBCQkZGIi8+JiN4YTs8c3RvcCBzdG9wLWNvbG9yPSIjMDA4QkZGIiBvZmZzZXQ9IjEiLz4mI3hhOzwvcmFkaWFsR3JhZGllbnQ+JiN4YTs8cmFkaWFsR3JhZGllbnQgZ3JhZGllbnRUcmFuc2Zvcm09InRyYW5zbGF0ZSgyMi4zNDc0IDIwLjk5MDIpIHJvdGF0ZSgyMS4zOTQ4KSBzY2FsZSg3LjYxMDA5IDYuMjc0MDMpIiBncmFkaWVudFVuaXRzPSJ1c2VyU3BhY2VPblVzZSIgcj0iMSIgY3k9IjAiIGN4PSIwIiBpZD0icGFpbnQ0X3JhZGlhbF8yNjIyXzQwOTQiPiYjeGE7PHN0b3Agc3RvcC1jb2xvcj0iIzAwQkJGRiIvPiYjeGE7PHN0b3Agc3RvcC1jb2xvcj0iIzAwOEJGRiIgb2Zmc2V0PSIxIi8+JiN4YTs8L3JhZGlhbEdyYWRpZW50PiYjeGE7PHJhZGlhbEdyYWRpZW50IGdyYWRpZW50VHJhbnNmb3JtPSJ0cmFuc2xhdGUoMjEuNzc2NyAyMC40ODI4KSByb3RhdGUoMzQuMDc5MSkgc2NhbGUoNS43MDY4NSA2LjQyODg3KSIgZ3JhZGllbnRVbml0cz0idXNlclNwYWNlT25Vc2UiIHI9IjEiIGN5PSIwIiBjeD0iMCIgaWQ9InBhaW50NV9yYWRpYWxfMjYyMl80MDk0Ij4mI3hhOzxzdG9wIHN0b3AtY29sb3I9IiMwMEJCRkYiLz4mI3hhOzxzdG9wIHN0b3AtY29sb3I9IiMwMDhCRkYiIG9mZnNldD0iMSIvPiYjeGE7PC9yYWRpYWxHcmFkaWVudD4mI3hhOzxyYWRpYWxHcmFkaWVudCBncmFkaWVudFRyYW5zZm9ybT0idHJhbnNsYXRlKDIxLjYyMDYgMjEuOTc1OCkgcm90YXRlKDI2Ljg1MDEpIHNjYWxlKDQuMzU3MjggNC4yNjE4OSkiIGdyYWRpZW50VW5pdHM9InVzZXJTcGFjZU9uVXNlIiByPSIxIiBjeT0iMCIgY3g9IjAiIGlkPSJwYWludDZfcmFkaWFsXzI2MjJfNDA5NCI+JiN4YTs8c3RvcCBzdG9wLWNvbG9yPSIjMDBCQkZGIi8+JiN4YTs8c3RvcCBzdG9wLWNvbG9yPSIjMDA4QkZGIiBvZmZzZXQ9IjEiLz4mI3hhOzwvcmFkaWFsR3JhZGllbnQ+JiN4YTs8cmFkaWFsR3JhZGllbnQgZ3JhZGllbnRUcmFuc2Zvcm09InRyYW5zbGF0ZSgxNi42NTIyIDIxLjExMTUpIHJvdGF0ZSgzNS4zMDU4KSBzY2FsZSgyMS44ODA4IDE4LjgwODQpIiBncmFkaWVudFVuaXRzPSJ1c2VyU3BhY2VPblVzZSIgcj0iMSIgY3k9IjAiIGN4PSIwIiBpZD0icGFpbnQ3X3JhZGlhbF8yNjIyXzQwOTQiPiYjeGE7PHN0b3Agc3RvcC1jb2xvcj0iIzEzNDhGRiIvPiYjeGE7PHN0b3Agc3RvcC1jb2xvcj0iIzA2MjM4RCIgb2Zmc2V0PSIxIi8+JiN4YTs8L3JhZGlhbEdyYWRpZW50PiYjeGE7PHJhZGlhbEdyYWRpZW50IGdyYWRpZW50VHJhbnNmb3JtPSJ0cmFuc2xhdGUoMjQuOTY1MyAyNy44NjY1KSByb3RhdGUoMzUuNzc1Mikgc2NhbGUoMTIuMTY2OSAyMS44MDgyKSIgZ3JhZGllbnRVbml0cz0idXNlclNwYWNlT25Vc2UiIHI9IjEiIGN5PSIwIiBjeD0iMCIgaWQ9InBhaW50OF9yYWRpYWxfMjYyMl80MDk0Ij4mI3hhOzxzdG9wIHN0b3AtY29sb3I9IiMwMTk1RkYiLz4mI3hhOzxzdG9wIHN0b3AtY29sb3I9IiMxMTQ3RTkiIG9mZnNldD0iMSIvPiYjeGE7PC9yYWRpYWxHcmFkaWVudD4mI3hhOzxyYWRpYWxHcmFkaWVudCBncmFkaWVudFRyYW5zZm9ybT0idHJhbnNsYXRlKDI4Ljc4NzIgMjcuODYwNikgcm90YXRlKDU3LjE3MjMpIHNjYWxlKDguMjUwOSA5LjEyMzIzKSIgZ3JhZGllbnRVbml0cz0idXNlclNwYWNlT25Vc2UiIHI9IjEiIGN5PSIwIiBjeD0iMCIgaWQ9InBhaW50OV9yYWRpYWxfMjYyMl80MDk0Ij4mI3hhOzxzdG9wIHN0b3AtY29sb3I9IiMwMEJCRkYiLz4mI3hhOzxzdG9wIHN0b3AtY29sb3I9IiMwMDhCRkYiIG9mZnNldD0iMSIvPiYjeGE7PC9yYWRpYWxHcmFkaWVudD4mI3hhOzxjbGlwUGF0aCBpZD0iY2xpcDBfMjYyMl80MDk0Ij4mI3hhOzxyZWN0IHRyYW5zZm9ybT0idHJhbnNsYXRlKDAuNSAwLjAzNDkxMjEpIiBmaWxsPSJ3aGl0ZSIgaGVpZ2h0PSI0OCIgd2lkdGg9IjQ4Ii8+JiN4YTs8L2NsaXBQYXRoPiYjeGE7PGNsaXBQYXRoIGlkPSJjbGlwMV8yNjIyXzQwOTQiPiYjeGE7PHJlY3QgdHJhbnNmb3JtPSJ0cmFuc2xhdGUoMTIgOS41MzQ5MSkiIGZpbGw9IndoaXRlIiBoZWlnaHQ9IjI3IiB3aWR0aD0iMjciLz4mI3hhOzwvY2xpcFBhdGg+JiN4YTs8L2RlZnM+JiN4YTs8L3N2Zz4=;points=[[0,0,0,0,0],[0,0.25,0,0,0],[0,0.5,0,0,0],[0,0.75,0,0,0],[0.25,0,0,0,0],[0.5,0,0,0,0],[0.75,0,0,0,0],[1,0,0,0,0],[1,0.25,0,0,0],[1,0.5,0,0,0],[1,0.75,0,0,0]];" parent="OfAU59fTZWmp4iSplw8R-50" vertex="1">
          <mxGeometry x="31.468253968253972" y="12.857142857142856" width="40.23809523809524" height="40.23809523809524" as="geometry" />
        </mxCell>
        <mxCell id="OfAU59fTZWmp4iSplw8R-52" value="&lt;div style=&quot;&quot;&gt;&lt;b style=&quot;color: rgb(29, 45, 62); font-family: arial; background-color: initial;&quot;&gt;&lt;font style=&quot;font-size: 10px;&quot;&gt;Predict Customer Consumption&lt;/font&gt;&lt;/b&gt;&lt;/div&gt;" style="text;html=1;align=center;verticalAlign=top;resizable=1;points=[[0,0.5,0,0,0],[0.21,1,0,0,0],[0.5,1,0,0,0],[0.85,1,0,0,0],[1,0.5,0,0,0]];autosize=0;strokeColor=none;fillColor=none;fontSize=12;fontColor=default;fontFamily=Helvetica;fixedWidth=1;imageWidth=24;whiteSpace=wrap;labelBackgroundColor=none;" parent="WWFOWXg0JfWwrn1Fm2mf-2" vertex="1">
          <mxGeometry x="108.29" y="138.57" width="113.49" height="41.43" as="geometry" />
        </mxCell>
        <mxCell id="OfAU59fTZWmp4iSplw8R-53" style="rounded=0;orthogonalLoop=1;jettySize=auto;html=1;exitX=1;exitY=0.5;exitDx=0;exitDy=0;exitPerimeter=0;endArrow=blockThin;endFill=1;startArrow=blockThin;startFill=1;entryX=0;entryY=0.5;entryDx=0;entryDy=0;" parent="WWFOWXg0JfWwrn1Fm2mf-2" source="OfAU59fTZWmp4iSplw8R-51" target="m9YYBKn2A9ynQCPHmd28-12" edge="1">
          <mxGeometry relative="1" as="geometry">
            <mxPoint x="250" y="231" as="targetPoint" />
          </mxGeometry>
        </mxCell>
        <mxCell id="OfAU59fTZWmp4iSplw8R-68" value="" style="group" parent="WWFOWXg0JfWwrn1Fm2mf-2" vertex="1" connectable="0">
          <mxGeometry x="484.920634920635" y="25.71428571428571" width="113.49206349206351" height="122.14285714285714" as="geometry" />
        </mxCell>
        <mxCell id="OfAU59fTZWmp4iSplw8R-70" value="&lt;font color=&quot;#1d2d3e&quot; size=&quot;1&quot; face=&quot;arial&quot; style=&quot;&quot;&gt;&lt;b style=&quot;font-size: 14px;&quot;&gt;Connectivity&lt;br&gt;&lt;/b&gt;&lt;/font&gt;" style="text;html=1;align=center;verticalAlign=top;resizable=1;points=[[0,0.5,0,0,0],[0.21,1,0,0,0],[0.5,1,0,0,0],[0.85,1,0,0,0],[1,0.5,0,0,0]];autosize=0;strokeColor=none;fillColor=none;fontSize=12;fontColor=default;fontFamily=Helvetica;fixedWidth=1;imageWidth=24;whiteSpace=wrap;labelBackgroundColor=none;" parent="OfAU59fTZWmp4iSplw8R-68" vertex="1">
          <mxGeometry x="-1.0317460317460319" y="16.142857142857142" width="113.49206349206351" height="59.14285714285714" as="geometry" />
        </mxCell>
        <mxCell id="OfAU59fTZWmp4iSplw8R-69" value="" style="shape=image;verticalLabelPosition=bottom;verticalAlign=top;imageAspect=0;aspect=fixed;image=data:image/svg+xml,PHN2ZyB4bWxucz0iaHR0cDovL3d3dy53My5vcmcvMjAwMC9zdmciIGZpbGw9Im5vbmUiIHZpZXdCb3g9IjAgMCA0OSA0OSIgaGVpZ2h0PSI0OSIgd2lkdGg9IjQ5Ij4mI3hhOzxjaXJjbGUgc3Ryb2tlLXdpZHRoPSIwLjg1NzE0MyIgc3Ryb2tlPSIjRDVEQUREIiBmaWxsPSJ1cmwoI3BhaW50MF9saW5lYXJfMjYyMl8yOTA3KSIgcj0iMjMuNTcxNCIgY3k9IjI0LjAzNDkiIGN4PSIyNC41Ii8+JiN4YTs8ZyBjbGlwLXBhdGg9InVybCgjY2xpcDBfMjYyMl8yOTA3KSI+JiN4YTs8cGF0aCBmaWxsPSJ1cmwoI3BhaW50MV9yYWRpYWxfMjYyMl8yOTA3KSIgZD0iTTI2LjA3NjEgMTMuNTQ3OEMyNi4wNzYxIDEyLjgwMjIgMjYuNjgwNSAxMi4xOTc4IDI3LjQyNjEgMTIuMTk3OEgzMS41OTM0QzM0LjIwMjkgMTIuMTk3OCAzNi4zMTg0IDE0LjMxMzIgMzYuMzE4NCAxNi45MjI4VjIwLjUxMTdDMzYuMzE4NCAyMS4yNTczIDM1LjcxNCAyMS44NjE3IDM0Ljk2ODQgMjEuODYxN0MzNC4yMjI4IDIxLjg2MTcgMzMuNjE4NCAyMS4yNTczIDMzLjYxODQgMjAuNTExN1YxNi45MjI4QzMzLjYxODQgMTUuODA0NCAzMi43MTE4IDE0Ljg5NzggMzEuNTkzNCAxNC44OTc4SDI3LjQyNjFDMjYuNjgwNSAxNC44OTc4IDI2LjA3NjEgMTQuMjkzNCAyNi4wNzYxIDEzLjU0NzhaTTE0LjAzMDQgMjUuNDc3OEMxNC43NzYgMjUuNDc3OCAxNS4zODA0IDI2LjA4MjIgMTUuMzgwNCAyNi44Mjc4VjMxLjEzMzlDMTUuMzgwNCAzMi4yNTIzIDE2LjI4NyAzMy4xNTg5IDE3LjQwNTQgMzMuMTU4OUgyMS45ODkyQzIyLjczNDcgMzMuMTU4OSAyMy4zMzkyIDMzLjc2MzMgMjMuMzM5MiAzNC41MDg5QzIzLjMzOTIgMzUuMjU0NSAyMi43MzQ3IDM1Ljg1ODkgMjEuOTg5MiAzNS44NTg5SDE3LjQwNTRDMTQuNzk1OSAzNS44NTg5IDEyLjY4MDQgMzMuNzQzNCAxMi42ODA0IDMxLjEzMzlWMjYuODI3OEMxMi42ODA0IDI2LjA4MjIgMTMuMjg0OCAyNS40Nzc4IDE0LjAzMDQgMjUuNDc3OFoiIGNsaXAtcnVsZT0iZXZlbm9kZCIgZmlsbC1ydWxlPSJldmVub2RkIi8+JiN4YTs8cGF0aCBmaWxsPSJ1cmwoI3BhaW50Ml9yYWRpYWxfMjYyMl8yOTA3KSIgZD0iTTM3LjU3ODEgMzQuNjU2NkMzNy44NTk0IDM0LjkzNzggMzggMzUuMjM2NyAzOCAzNS41NTMxQzM4IDM1LjkwNDYgMzcuODU5NCAzNi4yMjEgMzcuNTc4MSAzNi41MDIzQzM3LjI5NjkgMzYuNzgzNSAzNi45ODA1IDM2LjkyNDIgMzYuNjI4OSAzNi45MjQyQzM2LjMxMjUgMzYuOTI0MiAzNi4wMTM3IDM2Ljc4MzUgMzUuNzMyNCAzNi41MDIzTDMxLjk4ODMgMzIuNzU4MUMzMC44OTg0IDMzLjcwNzQgMjkuNjY4IDM0LjE2NDQgMjguMjk2OSAzNC4xMjkyQzI2LjkyNTggMzQuMDU4OSAyNS43MzA1IDMzLjUxNCAyNC43MTA5IDMyLjQ5NDVMMjMuNDk4IDMxLjI4MTZDMjMuMjE2OCAzMS4wMDAzIDIzLjA3NjIgMzAuNzAxNSAyMy4wNzYyIDMwLjM4NTFDMjMuMDc2MiAzMC4wMzM1IDIzLjIxNjggMjkuNzE3MSAyMy40OTggMjkuNDM1OUwzMC4zNTM1IDIyLjU4MDRDMzAuNjM0OCAyMi4yOTkyIDMwLjk1MTIgMjIuMTU4NSAzMS4zMDI3IDIyLjE1ODVDMzEuNjU0MyAyMi4xNTg1IDMxLjk3MDcgMjIuMjk5MiAzMi4yNTIgMjIuNTgwNEwzMy40NjQ4IDIzLjc5MzNDMzQuNDg0NCAyNC44MTI4IDM1LjAxMTcgMjUuOTkwNiAzNS4wNDY5IDI3LjMyNjVDMzUuMTE3MiAyOC42MjczIDM0LjcxMjkgMjkuODA1IDMzLjgzNCAzMC44NTk3TDM3LjU3ODEgMzQuNjU2NloiIGNsaXAtcnVsZT0iZXZlbm9kZCIgZmlsbC1ydWxlPSJldmVub2RkIi8+JiN4YTs8cGF0aCBmaWxsPSJ1cmwoI3BhaW50M19yYWRpYWxfMjYyMl8yOTA3KSIgZD0iTTIzLjczMjMgMjUuOTM4NkMyMy40NTExIDI2LjIxOTggMjMuMTM0NyAyNi4zNjA1IDIyLjc4MzEgMjYuMzYwNUMyMi40NjY3IDI2LjM2MDUgMjIuMTY3OSAyNi4yMTk4IDIxLjg4NjYgMjUuOTM4NkwxOS40NjA4IDIzLjUxMjhMMTguNDA2MSAyNC41Njc1QzE4LjEyNDkgMjQuODQ4NyAxNy44MDg1IDI0Ljk4OTQgMTcuNDU2OSAyNC45ODk0QzE3LjA3MDIgMjQuOTg5NCAxNi43NTM4IDI0Ljg0ODcgMTYuNTA3NyAyNC41Njc1TDE1LjI5NDggMjMuNDA3M0MxNC4yNzUzIDIyLjM4NzggMTMuNzMwMyAyMS4yMjc2IDEzLjY2IDE5LjkyNjlDMTMuNTg5NyAxOC41OTA5IDEzLjk1ODkgMTcuMzc4IDE0Ljc2NzUgMTYuMjg4MkwxMS40MjE5IDEyLjg1NTJDMTEuMTQwNiAxMi41NzQgMTEgMTIuMjU3NiAxMSAxMS45MDZDMTEgMTEuNTU0NCAxMS4xNDA2IDExLjIzOCAxMS40MjE5IDEwLjk1NjhDMTEuNzAzMSAxMC42NzU1IDEyLjAwMiAxMC41MzQ5IDEyLjMxODQgMTAuNTM0OUMxMi42Njk5IDEwLjUzNDkgMTIuOTg2MyAxMC42NzU1IDEzLjI2NzYgMTAuOTU2OEwxNi42MTMyIDE0LjM4OThDMTcuNzAzIDEzLjUxMDggMTguOTMzNSAxMy4xMDY1IDIwLjMwNDYgMTMuMTc2OUMyMS42NzU3IDEzLjI0NzIgMjIuODcxIDEzLjc5MjEgMjMuODkwNSAxNC44MTE2TDI1LjEwMzQgMTYuMDI0NUMyNS4zNDk1IDE2LjI3MDYgMjUuNDcyNiAxNi41ODcgMjUuNDcyNiAxNi45NzM3QzI1LjQ3MjYgMTcuMzI1MyAyNS4zNDk1IDE3LjYyNDEgMjUuMTAzNCAxNy44NzAyTDIzLjk5NiAxOC45Nzc2TDI2LjQyMTggMjEuMzUwN0MyNi43MDMxIDIxLjYzMTkgMjYuODQzNyAyMS45NDgzIDI2Ljg0MzcgMjIuMjk5OUMyNi44NDM3IDIyLjY1MTUgMjYuNzAzMSAyMi45Njc5IDI2LjQyMTggMjMuMjQ5MUMyNi4xNDA2IDIzLjUzMDQgMjUuODI0MSAyMy42NzEgMjUuNDcyNiAyMy42NzFDMjUuMTIxIDIzLjY3MSAyNC44MDQ2IDIzLjUzMDQgMjQuNTIzNCAyMy4yNDkxTDIyLjE1MDMgMjAuODIzM0wyMS4zMDY1IDIxLjY2NzFMMjIuNTE5NCAyMi44NTM2TDIzLjczMjMgMjQuMDQwMUMyNC4wMTM2IDI0LjMyMTQgMjQuMTU0MiAyNC42Mzc4IDI0LjE1NDIgMjQuOTg5NEMyNC4xNTQyIDI1LjM0MDkgMjQuMDEzNiAyNS42NTczIDIzLjczMjMgMjUuOTM4NloiLz4mI3hhOzwvZz4mI3hhOzxkZWZzPiYjeGE7PGxpbmVhckdyYWRpZW50IGdyYWRpZW50VW5pdHM9InVzZXJTcGFjZU9uVXNlIiB5Mj0iNDQuMjc5MiIgeDI9IjQxLjU2NDUiIHkxPSI2Ljg0Nzc1IiB4MT0iNC44NTI4NyIgaWQ9InBhaW50MF9saW5lYXJfMjYyMl8yOTA3Ij4mI3hhOzxzdG9wIHN0b3AtY29sb3I9IndoaXRlIi8+JiN4YTs8c3RvcCBzdG9wLWNvbG9yPSIjRUFFQ0VFIiBvZmZzZXQ9IjEiLz4mI3hhOzwvbGluZWFyR3JhZGllbnQ+JiN4YTs8cmFkaWFsR3JhZGllbnQgZ3JhZGllbnRUcmFuc2Zvcm09InRyYW5zbGF0ZSgxNi4zNDYgMTUuNjcxOSkgcm90YXRlKDQ1LjM0NjEpIHNjYWxlKDIzLjI4NTYgNDMuOTk1OCkiIGdyYWRpZW50VW5pdHM9InVzZXJTcGFjZU9uVXNlIiByPSIxIiBjeT0iMCIgY3g9IjAiIGlkPSJwYWludDFfcmFkaWFsXzI2MjJfMjkwNyI+JiN4YTs8c3RvcCBzdG9wLWNvbG9yPSIjMDE5NUZGIi8+JiN4YTs8c3RvcCBzdG9wLWNvbG9yPSIjMTE0N0U5IiBvZmZzZXQ9IjEiLz4mI3hhOzwvcmFkaWFsR3JhZGllbnQ+JiN4YTs8cmFkaWFsR3JhZGllbnQgZ3JhZGllbnRUcmFuc2Zvcm09InRyYW5zbGF0ZSgyNS40NTEyIDI0LjM3NDYpIHJvdGF0ZSg0NC42OTQ3KSBzY2FsZSgxNC43MDIxIDE3Ljg0MjEpIiBncmFkaWVudFVuaXRzPSJ1c2VyU3BhY2VPblVzZSIgcj0iMSIgY3k9IjAiIGN4PSIwIiBpZD0icGFpbnQyX3JhZGlhbF8yNjIyXzI5MDciPiYjeGE7PHN0b3Agc3RvcC1jb2xvcj0iIzAwQkJGRiIvPiYjeGE7PHN0b3Agc3RvcC1jb2xvcj0iIzAwOEJGRiIgb2Zmc2V0PSIxIi8+JiN4YTs8L3JhZGlhbEdyYWRpZW50PiYjeGE7PHJhZGlhbEdyYWRpZW50IGdyYWRpZW50VHJhbnNmb3JtPSJ0cmFuc2xhdGUoMTMuNDUzNCAxMi45MTU2KSByb3RhdGUoNDQuOTY3Mikgc2NhbGUoMTUuNTk4NyAxNC4yMTQ1KSIgZ3JhZGllbnRVbml0cz0idXNlclNwYWNlT25Vc2UiIHI9IjEiIGN5PSIwIiBjeD0iMCIgaWQ9InBhaW50M19yYWRpYWxfMjYyMl8yOTA3Ij4mI3hhOzxzdG9wIHN0b3AtY29sb3I9IiMxMzQ4RkYiLz4mI3hhOzxzdG9wIHN0b3AtY29sb3I9IiMwNjIzOEQiIG9mZnNldD0iMSIvPiYjeGE7PC9yYWRpYWxHcmFkaWVudD4mI3hhOzxjbGlwUGF0aCBpZD0iY2xpcDBfMjYyMl8yOTA3Ij4mI3hhOzxyZWN0IHRyYW5zZm9ybT0idHJhbnNsYXRlKDExIDEwLjUzNDkpIiBmaWxsPSJ3aGl0ZSIgaGVpZ2h0PSIyNyIgd2lkdGg9IjI3Ii8+JiN4YTs8L2NsaXBQYXRoPiYjeGE7PC9kZWZzPiYjeGE7PC9zdmc+;points=[[0,0,0,0,0],[0,0.25,0,0,0],[0,0.5,0,0,0],[0,0.75,0,0,0],[0.25,0,0,0,0],[0.5,0,0,0,0],[0.75,0,0,0,0],[1,0,0,0,0],[1,0.25,0,0,0],[1,0.5,0,0,0],[1,0.75,0,0,0]];" parent="OfAU59fTZWmp4iSplw8R-68" vertex="1">
          <mxGeometry x="31.468253968253972" y="42.42857142857143" width="50.555555555555564" height="50.555555555555564" as="geometry" />
        </mxCell>
        <mxCell id="OfAU59fTZWmp4iSplw8R-71" style="edgeStyle=orthogonalEdgeStyle;rounded=0;orthogonalLoop=1;jettySize=auto;html=1;exitX=0.5;exitY=0;exitDx=0;exitDy=0;exitPerimeter=0;startArrow=blockThin;startFill=1;endArrow=blockThin;endFill=1;" parent="WWFOWXg0JfWwrn1Fm2mf-2" source="OfAU59fTZWmp4iSplw8R-31" target="OfAU59fTZWmp4iSplw8R-69" edge="1">
          <mxGeometry relative="1" as="geometry" />
        </mxCell>
        <mxCell id="OfAU59fTZWmp4iSplw8R-83" value="" style="group" parent="WWFOWXg0JfWwrn1Fm2mf-2" vertex="1" connectable="0">
          <mxGeometry x="106.12698412698415" y="295.1428571428571" width="92.85714285714286" height="93.85714285714286" as="geometry" />
        </mxCell>
        <mxCell id="OfAU59fTZWmp4iSplw8R-84" value="" style="shape=image;verticalLabelPosition=bottom;labelBackgroundColor=default;verticalAlign=top;aspect=fixed;imageAspect=0;image=data:image/svg+xml,PHN2ZyB4bWxucz0iaHR0cDovL3d3dy53My5vcmcvMjAwMC9zdmciIGZpbGw9Im5vbmUiIHZpZXdCb3g9IjAgMCAxNiAxNiIgaGVpZ2h0PSIxNiIgd2lkdGg9IjE2Ij4mI3hhOzxnIGNsaXAtcGF0aD0idXJsKCNjbGlwMF8zMTA2XzI3MTAxKSI+JiN4YTs8Y2lyY2xlIHN0cm9rZS13aWR0aD0iMC4yNzM4MDkiIHN0cm9rZT0iI0Q1REFERCIgZmlsbD0idXJsKCNwYWludDBfbGluZWFyXzMxMDZfMjcxMDEpIiByPSI3LjUyOTc0IiBjeT0iNy45OTk4OSIgY3g9IjcuOTk4OTIiLz4mI3hhOzxnIGNsaXAtcGF0aD0idXJsKCNjbGlwMV8zMTA2XzI3MTAxKSI+JiN4YTs8bWFzayBoZWlnaHQ9IjEzIiB3aWR0aD0iMTIiIHk9IjIiIHg9IjIiIG1hc2tVbml0cz0idXNlclNwYWNlT25Vc2UiIHN0eWxlPSJtYXNrLXR5cGU6YWxwaGEiIGlkPSJtYXNrMF8zMTA2XzI3MTAxIj4mI3hhOzxwYXRoIGZpbGw9ImJsYWNrIiBkPSJNOC40MjExOCAxMC43MzMzQzguNjQxMDYgMTEuMzUyNCA5LjI4Njc1IDExLjcwNDcgMTAuMDEwNSAxMS43MDQ3QzEwLjczNDIgMTEuNzA0NyAxMS4zNDY4IDExLjE3OTEgMTEuNTE5NyAxMC43MDdMMTIuODg3NyA2LjkzODQ5QzEzLjE2MDEgNi4xODgwNCAxMi43NzQyIDUuMzU4MjQgMTIuMDI1OCA1LjA4NTFDMTEuMzM3NCA0LjgzMzg5IDEwLjU4MjIgNS4xNDEgMTAuMjUzNCA1Ljc3NTcyQzEwLjIwMTEgNS44OTQwOSAxMC4xNDc1IDYuMDcyMTYgMTAuMjExNiA2LjI2MTc3TDEwLjg5OTYgOC4xNjUzMUMxMC45MzQxIDguMjYwNzUgMTAuODg5NSA4LjM2NjczIDEwLjc5NzIgOC40MDg0NUMxMC42ODMzIDguNDU5OTMgMTAuNTQ2OCA4LjM5MjYzIDEwLjUxNjggOC4yNzEwNkMxMC4yOTc0IDcuMzgyODcgOS41NjI3OCA2LjgxNjE3IDguNjU0NiA3LjE1MDYzQzcuNzQ2NDIgNy40ODUxIDcuNTU1MjEgOC4zNDc3MiA3LjgyNzYzIDkuMDk4MThMOC40MjExOCAxMC43MzMzWiIvPiYjeGE7PHBhdGggZmlsbD0iYmxhY2siIGQ9Ik0zLjQ3MjEzIDYuOTMyNDVDMy4xOTk3MiA2LjE4MTk5IDMuNTg1NjIgNS4zNTIyIDQuMzM0MDYgNS4wNzkwNkM1LjA4MjUxIDQuODA1OTEgNS45MTAwOCA1LjE5Mjg1IDYuMTgyNSA1Ljk0MzMxTDcuNTQ5NzQgOS43MDk4MkM3LjgyMjE1IDEwLjQ2MDMgNy40MzYyNiAxMS4yOTAxIDYuNjg3ODEgMTEuNTYzMkM1LjkzOTM2IDExLjgzNjQgNS4xMTE3OSAxMS40NDk0IDQuODM5MzcgMTAuNjk5TDMuNDcyMTMgNi45MzI0NVoiLz4mI3hhOzwvbWFzaz4mI3hhOzxnIG1hc2s9InVybCgjbWFzazBfMzEwNl8yNzEwMSkiPiYjeGE7PGcgZmlsdGVyPSJ1cmwoI2ZpbHRlcjBfZF8zMTA2XzI3MTAxKSI+JiN4YTs8cGF0aCBmaWxsPSJ1cmwoI3BhaW50MV9yYWRpYWxfMzEwNl8yNzEwMSkiIGQ9Ik02LjYzNDM0IDAuODcxOTU0QzguNjcyNDkgMC4yOTI4MzUgMTEuMDgyMyAxLjI5MTgzIDEyLjU1MTQgMy45Mzg4NEMxNi4zMzM1IDkuMDE5NDkgMTkuNzUzNyAxNC45MTk2IDExLjk2MDkgMTcuNjc2OEM0LjE2ODEzIDIwLjQzNCA0LjM1MDY3IDE0Ljc3ODIgMS43NTIyNSAxMC4wOTY0Qy0wLjg0NjE2NyA1LjQxNDU1IDQuNTk2MTkgMS40NTEwNyA2LjYzNDM0IDAuODcxOTU0WiIvPiYjeGE7PC9nPiYjeGE7PGcgZmlsdGVyPSJ1cmwoI2ZpbHRlcjFfZF8zMTA2XzI3MTAxKSI+JiN4YTs8cGF0aCBmaWxsPSJ1cmwoI3BhaW50Ml9yYWRpYWxfMzEwNl8yNzEwMSkiIGQ9Ik0xMi42NTQyIDEwLjI3OThDMTEuODQ2MiAxMi4wMTA3IDkuNTMyOTggMTQuMDk2MSA3Ljk2MzgxIDE0LjIzNTdDNC43NDYwMyAxNC45MzE0IC0wLjI2MjI1NSAxMS43NDczIDAuMTY2MTEgOS41ODQ4MUMwLjU5NDQ3NSA3LjQyMjM3IDQuNjY1NjUgNi4zNjU5OSA3LjQ1MjY5IDYuMzg5OTNDMTAuMjM5NyA2LjQxMzg4IDEzLjQ2MjEgOC41NDg5NSAxMi42NTQyIDEwLjI3OThaIi8+JiN4YTs8L2c+JiN4YTs8ZyBmaWx0ZXI9InVybCgjZmlsdGVyMl9kXzMxMDZfMjcxMDEpIj4mI3hhOzxwYXRoIGZpbGw9InVybCgjcGFpbnQzX3JhZGlhbF8zMTA2XzI3MTAxKSIgZD0iTTMuMzUzNjEgOC4zOTkzNkM2Ljk2MjAxIDcuNDQ1NTcgMTAuMTEwOSA3LjMwNjg2IDEwLjQ4NjcgMTAuNjg5NkMxMC43OTE3IDEzLjQzNDkgNi45NTY4IDE1LjY1NzggNC4yMTE0NyAxNS45NjI4QzEuNDY2MTQgMTYuMjY3OCAtMC4xMDIyOTYgOS4zMTI4NCAzLjM1MzYxIDguMzk5MzZaIi8+JiN4YTs8L2c+JiN4YTs8L2c+JiN4YTs8L2c+JiN4YTs8L2c+JiN4YTs8ZGVmcz4mI3hhOzxmaWx0ZXIgY29sb3ItaW50ZXJwb2xhdGlvbi1maWx0ZXJzPSJzUkdCIiBmaWx0ZXJVbml0cz0idXNlclNwYWNlT25Vc2UiIGhlaWdodD0iMTkuMDM1MiIgd2lkdGg9IjE2Ljk0MTQiIHk9IjAuMDg1MTI1NCIgeD0iMC42MTQ4MjkiIGlkPSJmaWx0ZXIwX2RfMzEwNl8yNzEwMSI+JiN4YTs8ZmVGbG9vZCByZXN1bHQ9IkJhY2tncm91bmRJbWFnZUZpeCIgZmxvb2Qtb3BhY2l0eT0iMCIvPiYjeGE7PGZlQ29sb3JNYXRyaXggcmVzdWx0PSJoYXJkQWxwaGEiIHZhbHVlcz0iMCAwIDAgMCAwIDAgMCAwIDAgMCAwIDAgMCAwIDAgMCAwIDAgMTI3IDAiIHR5cGU9Im1hdHJpeCIgaW49IlNvdXJjZUFscGhhIi8+JiN4YTs8ZmVPZmZzZXQgZHk9IjAuMDQ0ODQwNCIgZHg9IjAuMjI0MjAyIi8+JiN4YTs8ZmVHYXVzc2lhbkJsdXIgc3RkRGV2aWF0aW9uPSIwLjMzNjMwMyIvPiYjeGE7PGZlQ29tcG9zaXRlIG9wZXJhdG9yPSJvdXQiIGluMj0iaGFyZEFscGhhIi8+JiN4YTs8ZmVDb2xvck1hdHJpeCB2YWx1ZXM9IjAgMCAwIDAgMCAwIDAgMCAwIDAgMCAwIDAgMCAwIDAgMCAwIDAuNCAwIiB0eXBlPSJtYXRyaXgiLz4mI3hhOzxmZUJsZW5kIHJlc3VsdD0iZWZmZWN0MV9kcm9wU2hhZG93XzMxMDZfMjcxMDEiIGluMj0iQmFja2dyb3VuZEltYWdlRml4IiBtb2RlPSJub3JtYWwiLz4mI3hhOzxmZUJsZW5kIHJlc3VsdD0ic2hhcGUiIGluMj0iZWZmZWN0MV9kcm9wU2hhZG93XzMxMDZfMjcxMDEiIGluPSJTb3VyY2VHcmFwaGljIiBtb2RlPSJub3JtYWwiLz4mI3hhOzwvZmlsdGVyPiYjeGE7PGZpbHRlciBjb2xvci1pbnRlcnBvbGF0aW9uLWZpbHRlcnM9InNSR0IiIGZpbHRlclVuaXRzPSJ1c2VyU3BhY2VPblVzZSIgaGVpZ2h0PSI5LjI4ODU3IiB3aWR0aD0iMTMuOTg1MyIgeT0iNS43NjE4OCIgeD0iLTAuMzA4MDIzIiBpZD0iZmlsdGVyMV9kXzMxMDZfMjcxMDEiPiYjeGE7PGZlRmxvb2QgcmVzdWx0PSJCYWNrZ3JvdW5kSW1hZ2VGaXgiIGZsb29kLW9wYWNpdHk9IjAiLz4mI3hhOzxmZUNvbG9yTWF0cml4IHJlc3VsdD0iaGFyZEFscGhhIiB2YWx1ZXM9IjAgMCAwIDAgMCAwIDAgMCAwIDAgMCAwIDAgMCAwIDAgMCAwIDEyNyAwIiB0eXBlPSJtYXRyaXgiIGluPSJTb3VyY2VBbHBoYSIvPiYjeGE7PGZlT2Zmc2V0IGR5PSIwLjA0NDg0MDQiIGR4PSIwLjIyNDIwMiIvPiYjeGE7PGZlR2F1c3NpYW5CbHVyIHN0ZERldmlhdGlvbj0iMC4zMzYzMDMiLz4mI3hhOzxmZUNvbXBvc2l0ZSBvcGVyYXRvcj0ib3V0IiBpbjI9ImhhcmRBbHBoYSIvPiYjeGE7PGZlQ29sb3JNYXRyaXggdmFsdWVzPSIwIDAgMCAwIDAgMCAwIDAgMCAwIDAgMCAwIDAgMCAwIDAgMCAwLjQgMCIgdHlwZT0ibWF0cml4Ii8+JiN4YTs8ZmVCbGVuZCByZXN1bHQ9ImVmZmVjdDFfZHJvcFNoYWRvd18zMTA2XzI3MTAxIiBpbjI9IkJhY2tncm91bmRJbWFnZUZpeCIgbW9kZT0ibm9ybWFsIi8+JiN4YTs8ZmVCbGVuZCByZXN1bHQ9InNoYXBlIiBpbjI9ImVmZmVjdDFfZHJvcFNoYWRvd18zMTA2XzI3MTAxIiBpbj0iU291cmNlR3JhcGhpYyIgbW9kZT0ibm9ybWFsIi8+JiN4YTs8L2ZpbHRlcj4mI3hhOzxmaWx0ZXIgY29sb3ItaW50ZXJwb2xhdGlvbi1maWx0ZXJzPSJzUkdCIiBmaWx0ZXJVbml0cz0idXNlclNwYWNlT25Vc2UiIGhlaWdodD0iOS41MDUzNyIgd2lkdGg9IjEwLjQ3NzgiIHk9IjcuMTg0NDkiIHg9IjAuOTIyOTM0IiBpZD0iZmlsdGVyMl9kXzMxMDZfMjcxMDEiPiYjeGE7PGZlRmxvb2QgcmVzdWx0PSJCYWNrZ3JvdW5kSW1hZ2VGaXgiIGZsb29kLW9wYWNpdHk9IjAiLz4mI3hhOzxmZUNvbG9yTWF0cml4IHJlc3VsdD0iaGFyZEFscGhhIiB2YWx1ZXM9IjAgMCAwIDAgMCAwIDAgMCAwIDAgMCAwIDAgMCAwIDAgMCAwIDEyNyAwIiB0eXBlPSJtYXRyaXgiIGluPSJTb3VyY2VBbHBoYSIvPiYjeGE7PGZlT2Zmc2V0IGR5PSIwLjA0NDg0MDQiIGR4PSIwLjIyNDIwMiIvPiYjeGE7PGZlR2F1c3NpYW5CbHVyIHN0ZERldmlhdGlvbj0iMC4zMzYzMDMiLz4mI3hhOzxmZUNvbXBvc2l0ZSBvcGVyYXRvcj0ib3V0IiBpbjI9ImhhcmRBbHBoYSIvPiYjeGE7PGZlQ29sb3JNYXRyaXggdmFsdWVzPSIwIDAgMCAwIDAgMCAwIDAgMCAwIDAgMCAwIDAgMCAwIDAgMCAwLjQgMCIgdHlwZT0ibWF0cml4Ii8+JiN4YTs8ZmVCbGVuZCByZXN1bHQ9ImVmZmVjdDFfZHJvcFNoYWRvd18zMTA2XzI3MTAxIiBpbjI9IkJhY2tncm91bmRJbWFnZUZpeCIgbW9kZT0ibm9ybWFsIi8+JiN4YTs8ZmVCbGVuZCByZXN1bHQ9InNoYXBlIiBpbjI9ImVmZmVjdDFfZHJvcFNoYWRvd18zMTA2XzI3MTAxIiBpbj0iU291cmNlR3JhcGhpYyIgbW9kZT0ibm9ybWFsIi8+JiN4YTs8L2ZpbHRlcj4mI3hhOzxsaW5lYXJHcmFkaWVudCBncmFkaWVudFVuaXRzPSJ1c2VyU3BhY2VPblVzZSIgeTI9IjE0LjQ2NjgiIHgyPSIxMy40NTAxIiB5MT0iMi41MDk1NyIgeDE9IjEuNzIyNzciIGlkPSJwYWludDBfbGluZWFyXzMxMDZfMjcxMDEiPiYjeGE7PHN0b3Agc3RvcC1jb2xvcj0id2hpdGUiLz4mI3hhOzxzdG9wIHN0b3AtY29sb3I9IiNFQUVDRUUiIG9mZnNldD0iMSIvPiYjeGE7PC9saW5lYXJHcmFkaWVudD4mI3hhOzxyYWRpYWxHcmFkaWVudCBncmFkaWVudFRyYW5zZm9ybT0idHJhbnNsYXRlKDcuMTQyMiAxMC41MTEzKSByb3RhdGUoLTc1LjY1MTMpIHNjYWxlKDE1Ljk3MDUgMTUuNzQ5OCkiIGdyYWRpZW50VW5pdHM9InVzZXJTcGFjZU9uVXNlIiByPSIxIiBjeT0iMCIgY3g9IjAiIGlkPSJwYWludDFfcmFkaWFsXzMxMDZfMjcxMDEiPiYjeGE7PHN0b3Agc3RvcC1jb2xvcj0iIzEzNDhGRiIvPiYjeGE7PHN0b3Agc3RvcC1jb2xvcj0iIzA2MjM4RCIgb2Zmc2V0PSIxIi8+JiN4YTs8L3JhZGlhbEdyYWRpZW50PiYjeGE7PHJhZGlhbEdyYWRpZW50IGdyYWRpZW50VHJhbnNmb3JtPSJ0cmFuc2xhdGUoMy4xOTI5OSA3LjMwMjE1KSByb3RhdGUoMzEuOTgpIHNjYWxlKDE1LjI2ODUgMjcuNTc2KSIgZ3JhZGllbnRVbml0cz0idXNlclNwYWNlT25Vc2UiIHI9IjEiIGN5PSIwIiBjeD0iMCIgaWQ9InBhaW50Ml9yYWRpYWxfMzEwNl8yNzEwMSI+JiN4YTs8c3RvcCBzdG9wLWNvbG9yPSIjMDE5NUZGIi8+JiN4YTs8c3RvcCBzdG9wLWNvbG9yPSIjMTE0N0U5IiBvZmZzZXQ9IjEiLz4mI3hhOzwvcmFkaWFsR3JhZGllbnQ+JiN4YTs8cmFkaWFsR3JhZGllbnQgZ3JhZGllbnRUcmFuc2Zvcm09InRyYW5zbGF0ZSgzLjg2NDM3IDE1LjI1NDIpIHJvdGF0ZSgtNDYuOTU3OSkgc2NhbGUoMTEuNzY0NCAxNi4xODIpIiBncmFkaWVudFVuaXRzPSJ1c2VyU3BhY2VPblVzZSIgcj0iMSIgY3k9IjAiIGN4PSIwIiBpZD0icGFpbnQzX3JhZGlhbF8zMTA2XzI3MTAxIj4mI3hhOzxzdG9wIHN0b3AtY29sb3I9IiMwMEJCRkYiLz4mI3hhOzxzdG9wIHN0b3AtY29sb3I9IiMwMDhCRkYiIG9mZnNldD0iMSIvPiYjeGE7PC9yYWRpYWxHcmFkaWVudD4mI3hhOzxjbGlwUGF0aCBpZD0iY2xpcDBfMzEwNl8yNzEwMSI+JiN4YTs8cmVjdCB0cmFuc2Zvcm09InRyYW5zbGF0ZSgtMC4wMDA5NzY1NjIpIiBmaWxsPSJ3aGl0ZSIgaGVpZ2h0PSIxNS45OTk5IiB3aWR0aD0iMTUuOTk5OSIvPiYjeGE7PC9jbGlwUGF0aD4mI3hhOzxjbGlwUGF0aCBpZD0iY2xpcDFfMzEwNl8yNzEwMSI+JiN4YTs8cmVjdCB0cmFuc2Zvcm09InRyYW5zbGF0ZSgzLjMzMjI4IDMuNSkiIGZpbGw9IndoaXRlIiBoZWlnaHQ9IjkuNjY2NjQiIHdpZHRoPSI5LjY2NjY0Ii8+JiN4YTs8L2NsaXBQYXRoPiYjeGE7PC9kZWZzPiYjeGE7PC9zdmc+;points=[[0,0,0,0,0],[0,0.25,0,0,0],[0,0.5,0,0,0],[0,0.75,0,0,0],[0.25,0,0,0,0],[0.5,0,0,0,0],[0.75,0,0,0,0],[1,0,0,0,0],[1,0.25,0,0,0],[1,0.5,0,0,0],[1,0.75,0,0,0]];" parent="OfAU59fTZWmp4iSplw8R-83" vertex="1">
          <mxGeometry x="38.179292929292934" width="38.84795321637427" height="38.84795321637427" as="geometry" />
        </mxCell>
        <mxCell id="OfAU59fTZWmp4iSplw8R-85" value="&lt;div style=&quot;&quot;&gt;&lt;b style=&quot;color: rgb(29, 45, 62); font-family: arial; background-color: initial;&quot;&gt;SAP Build Work Zone - Standard Edition&lt;/b&gt;&lt;/div&gt;" style="text;html=1;align=center;verticalAlign=top;resizable=1;points=[[0,0.5,0,0,0],[0.21,1,0,0,0],[0.5,1,0,0,0],[0.85,1,0,0,0],[1,0.5,0,0,0]];autosize=0;strokeColor=none;fillColor=none;fontSize=12;fontColor=default;fontFamily=Helvetica;fixedWidth=1;imageWidth=24;whiteSpace=wrap;labelBackgroundColor=none;" parent="OfAU59fTZWmp4iSplw8R-83" vertex="1">
          <mxGeometry x="5.158730158730159" y="48.40714285714285" width="103.17460317460319" height="45.45" as="geometry" />
        </mxCell>
        <mxCell id="OfAU59fTZWmp4iSplw8R-86" style="edgeStyle=orthogonalEdgeStyle;rounded=0;orthogonalLoop=1;jettySize=auto;html=1;exitX=0.5;exitY=0;exitDx=0;exitDy=0;exitPerimeter=0;endArrow=blockThin;endFill=1;startArrow=blockThin;startFill=1;entryX=0.502;entryY=0.974;entryDx=0;entryDy=0;entryPerimeter=0;" parent="WWFOWXg0JfWwrn1Fm2mf-2" source="OfAU59fTZWmp4iSplw8R-84" target="OfAU59fTZWmp4iSplw8R-51" edge="1">
          <mxGeometry relative="1" as="geometry">
            <mxPoint x="163" y="231" as="targetPoint" />
          </mxGeometry>
        </mxCell>
        <mxCell id="OfAU59fTZWmp4iSplw8R-91" value="" style="group" parent="WWFOWXg0JfWwrn1Fm2mf-2" vertex="1" connectable="0">
          <mxGeometry x="26.82539682539683" y="176.14285714285714" width="102.14285714285715" height="101.57142857142857" as="geometry" />
        </mxCell>
        <mxCell id="OfAU59fTZWmp4iSplw8R-92" value="" style="shape=image;verticalLabelPosition=bottom;verticalAlign=top;imageAspect=0;aspect=fixed;image=data:image/svg+xml,PHN2ZyB4bWxucz0iaHR0cDovL3d3dy53My5vcmcvMjAwMC9zdmciIGZpbGw9Im5vbmUiIHZpZXdCb3g9IjAgMCA0OSA0OSIgaGVpZ2h0PSI0OSIgd2lkdGg9IjQ5Ij4mI3hhOzxnIGNsaXAtcGF0aD0idXJsKCNjbGlwMF8yNjIyXzQwOTQpIj4mI3hhOzxjaXJjbGUgc3Ryb2tlLXdpZHRoPSIwLjg1NzE0MyIgc3Ryb2tlPSIjRDVEQUREIiBmaWxsPSJ1cmwoI3BhaW50MF9saW5lYXJfMjYyMl80MDk0KSIgcj0iMjMuNTcxNCIgY3k9IjI0LjAzNDkiIGN4PSIyNC41Ii8+JiN4YTs8ZyBjbGlwLXBhdGg9InVybCgjY2xpcDFfMjYyMl80MDk0KSI+JiN4YTs8bWFzayBoZWlnaHQ9IjI4IiB3aWR0aD0iMjciIHk9IjkiIHg9IjEyIiBtYXNrVW5pdHM9InVzZXJTcGFjZU9uVXNlIiBzdHlsZT0ibWFzay10eXBlOmx1bWluYW5jZSIgaWQ9Im1hc2swXzI2MjJfNDA5NCI+JiN4YTs8cGF0aCBmaWxsPSJ3aGl0ZSIgZD0iTTI1LjIwMDQgOS41MzQ4OEMyNS4yMDA0IDkuNTM0ODggMjUuMTk3MSAxMC42NTg2IDI4LjEzNDcgMTIuNDQzM0MzMy44MzgyIDE1LjkwNjkgMzMuODE4OCAxOS4wODQ4IDMzLjgxODggMTkuNzUxN0MzMy44MTg4IDIyLjU4MzQgMzAuODcxNCAyNC40MTQgMjkuNTA0MiAyMi45MzIzQzI5LjUwNDIgMjIuOTMyMyAzMC44NDYxIDIxLjkzNjUgMzAuODQ2MSAyMC40MDUxQzMwLjg0NjEgMjAuNDA1MSAyOS44NjIyIDIxLjA1MzEgMjkuMzQ3NiAyMS4xNjU0QzI5LjM0NzYgMjEuMTY1NCAzMC4wMTgyIDE5Ljk4MDEgMjkuNzA1NiAxNy45MDA2QzI5LjcwNTYgMTcuOTAwNiAyOS4xNjg4IDE4Ljk1MTQgMjcuNDQ2OCAxOS44MDE0QzI3LjQ0NjggMTkuODAxNCAyOC4xMTc0IDE4LjMwMjkgMjcuNDkxNiAxNi44NzE5QzI3LjQ5MTYgMTYuODcxOSAyNy42MjU1IDE4LjY2MDkgMjMuNTU1IDIwLjU2MTdDMTkuNDg0NSAyMi40NjI1IDIwLjczNzMgMjQuMzYzOCAyMC43MzczIDI0LjM2MzhDMjAuNzM3MyAyNC4zNjM4IDIxLjU0NzMgMjMuNDk5OCAyMi45MjY0IDI0LjEwNzNDMjQuNzkgMjQuOTI2IDI0LjAzNjcgMjguMjExMyAyMS4wMzk3IDI4LjIxMTNDMTguMTIzNyAyOC4yMTEzIDE2LjIwNzIgMjUuMDM4MyAxNi4yMDcyIDIyLjU2MDJDMTYuMjA3MiAyMS41MzQyIDE2LjMxODQgMTkuNjUxMiAxOC4xNjkgMTcuNTc4MkMxOS42NDExIDE1LjkyOTYgMjEuNDU2NSAxNS4wNTk2IDIxLjg0NTkgMTMuMjM2NkMxOS44MzAxIDE1LjEwNTUgMTYuMTkxIDE2LjMyNTkgMTQuMDI4MyAxOS41MjQ5QzEyLjA4NDMgMjIuMzk4MiAxMi43MTYxIDI2LjE5OTMgMTMuMDY1NSAyNy4zNjg0QzE0LjY1MiAzMi42NzA2IDE5LjU2NzYgMzYuNTM0OSAyNS4zODU2IDM2LjUzNDlDMzIuNDg3MSAzNi41MzQ5IDM4LjMxNzUgMzAuODUyNSAzOC4zMTc1IDIzLjc1MDlDMzguMzE3NSAxMy4wMDA2IDI4LjA5NzUgMTEuODYwMSAyNS4yMDA0IDkuNTM0ODhaTTIzLjQ3OTkgMjIuNjk1MkMyMy4yNjM5IDIyLjc0NTQgMjMuMDU2IDIyLjY1NDcgMjIuNzEwNCAyMi41NUMyMi4zODY0IDIyLjQ1MTcgMjIuMjcyNSAyMi40NyAyMi4yNzI1IDIyLjQ3QzIyLjQ5MDggMjIuMzIzMSAyMi43MTk1IDIyLjE5MjEgMjIuOTU2NyAyMi4wNzhDMjMuMzAwMSAyMS45MTk4IDIzLjU5MzkgMjEuOTExNyAyMy43Mjk5IDIyLjIyNkMyMy44MTk2IDIyLjQzMjggMjMuNjU3IDIyLjY1MzYgMjMuNDc5OSAyMi42OTUyWiIvPiYjeGE7PC9tYXNrPiYjeGE7PGcgbWFzaz0idXJsKCNtYXNrMF8yNjIyXzQwOTQpIj4mI3hhOzxwYXRoIGZpbGw9InVybCgjcGFpbnQxX3JhZGlhbF8yNjIyXzQwOTQpIiBkPSJNMjUuMjAwNCA5LjUzNDg4QzI1LjIwMDQgOS41MzQ4OCAyNS4xOTcxIDEwLjY1ODYgMjguMTM0NyAxMi40NDMzQzMzLjgzODIgMTUuOTA2OSAzMy44MTg4IDE5LjA4NDggMzMuODE4OCAxOS43NTE3QzMzLjgxODggMjIuNTgzNCAzMC44NzE0IDI0LjQxNCAyOS41MDQyIDIyLjkzMjNDMjkuNTA0MiAyMi45MzIzIDMwLjg0NjEgMjEuOTM2NSAzMC44NDYxIDIwLjQwNTFDMzAuODQ2MSAyMC40MDUxIDI5Ljg2MjIgMjEuMDUzMSAyOS4zNDc2IDIxLjE2NTRDMjkuMzQ3NiAyMS4xNjU0IDMwLjAxODIgMTkuOTgwMSAyOS43MDU2IDE3LjkwMDZDMjkuNzA1NiAxNy45MDA2IDI5LjE2ODggMTguOTUxNCAyNy40NDY4IDE5LjgwMTRDMjcuNDQ2OCAxOS44MDE0IDI4LjExNzQgMTguMzAyOSAyNy40OTE2IDE2Ljg3MTlDMjcuNDkxNiAxNi44NzE5IDI3LjYyNTUgMTguNjYwOSAyMy41NTUgMjAuNTYxN0MxOS40ODQ1IDIyLjQ2MjUgMjAuNzM3MyAyNC4zNjM4IDIwLjczNzMgMjQuMzYzOEMyMC43MzczIDI0LjM2MzggMjEuNTQ3MyAyMy40OTk4IDIyLjkyNjQgMjQuMTA3M0MyNC43OSAyNC45MjYgMjQuMDM2NyAyOC4yMTEzIDIxLjAzOTcgMjguMjExM0MxOC4xMjM3IDI4LjIxMTMgMTYuMjA3MiAyNS4wMzgzIDE2LjIwNzIgMjIuNTYwMkMxNi4yMDcyIDIxLjUzNDIgMTYuMzE4NCAxOS42NTEyIDE4LjE2OSAxNy41NzgyQzE5LjY0MTEgMTUuOTI5NiAyMS40NTY1IDE1LjA1OTYgMjEuODQ1OSAxMy4yMzY2QzE5LjgzMDEgMTUuMTA1NSAxNi4xOTEgMTYuMzI1OSAxNC4wMjgzIDE5LjUyNDlDMTIuMDg0MyAyMi4zOTgyIDEyLjcxNjEgMjYuMTk5MyAxMy4wNjU1IDI3LjM2ODRDMTQuNjUyIDMyLjY3MDYgMTkuNTY3NiAzNi41MzQ5IDI1LjM4NTYgMzYuNTM0OUMzMi40ODcxIDM2LjUzNDkgMzguMzE3NSAzMC44NTI1IDM4LjMxNzUgMjMuNzUwOUMzOC4zMTc1IDEzLjAwMDYgMjguMDk3NSAxMS44NjAxIDI1LjIwMDQgOS41MzQ4OFoiLz4mI3hhOzxwYXRoIGZpbGw9InVybCgjcGFpbnQyX3JhZGlhbF8yNjIyXzQwOTQpIiBkPSJNMjQuNDYyMSAyMi45NjRDMjYuNzI2MyAyMS43OTcxIDI3LjQ1MjEgMTkuNzk3NCAyNy40NTIxIDE5Ljc5NzRDMjcuNDUyMSAxOS43OTc0IDI4LjEyMjggMTguMjk4NCAyNy40OTY0IDE2Ljg2NThDMjcuNDk2NCAxNi44NjU4IDI3LjYzMDMgMTguNjU2NCAyMy41NTQ0IDIwLjU1ODhDMTkuNDc4NSAyMi40NjEzIDIwLjczNDUgMjQuMzYzNyAyMC43MzQ1IDI0LjM2MzdDMjAuOTQ3OCAyNC4xNzM2IDIxLjE1MDggMjQuMDQ1MSAyMS41NTMxIDIzLjkzNzFDMjIuMjI2IDIzLjc1NjcgMjMuMjgwNiAyMy41NzQ3IDI0LjQ2MjEgMjIuOTY0WiIgb3BhY2l0eT0iMC42Ii8+JiN4YTs8cGF0aCBmaWxsPSJ1cmwoI3BhaW50M19yYWRpYWxfMjYyMl80MDk0KSIgZD0iTTI0LjU3ODggMjMuNzkwOEMyNi4zMjg0IDIzLjc5MDggMjguMzUyOCAyMi45Nzc1IDI5LjM1NDUgMjEuMTYxQzI5LjUxMTEgMjAuODc3NSAyOS42NTA1IDIwLjQxNjkgMjkuNzIwMSAxOS45ODMyQzI5LjgyODEgMTkuMjkyIDI5Ljg0MTYgMTguNzc4IDI5LjcxNDIgMTcuODQ0M0MyOS43MTQyIDE3Ljg0NDMgMjkuMzgyNiAxOC43NzM2IDI3LjQ1MjEgMTkuNzk1M0MyNi43NTAxIDIwLjE2NjMgMjUuODUzMiAyMC41MzczIDI0LjY2NTIgMjAuODk4QzIwLjA2MjIgMjIuMjk1IDIwLjczNzIgMjQuMzYxNiAyMC43MzcyIDI0LjM2MTZDMjEuNDYyNCAyMy44ODM3IDIxLjQ2NjggMjMuNzkwOCAyNC41Nzg4IDIzLjc5MDhaIiBvcGFjaXR5PSIwLjQiLz4mI3hhOzxwYXRoIGZpbGw9InVybCgjcGFpbnQ0X3JhZGlhbF8yNjIyXzQwOTQpIiBkPSJNMjQuNTc4NyAyMy43OTA3QzI2LjE4NzQgMjMuNzkwNyAyOC4zNzQ0IDIzLjg4MTQgMjkuNTEwNiAyMi45MjY3QzMwLjIwNzIgMjIuMzQzIDMwLjg0MzMgMjEuNTcxMyAzMC44NTUyIDIwLjM5NTJDMzAuODU1MiAyMC4zOTUyIDI5LjkwMjEgMjEuMDI0MyAyOS4zNTQ1IDIxLjE1OTNDMjguNTk4NSAyMS4zNDYxIDI3LjIzMjggMjEuNjMzNCAyNS45ODU0IDIxLjU2MjdDMjEuNzUxMyAyMS4zMjI0IDIwLjczNzIgMjQuMzU5MyAyMC43MzcyIDI0LjM1OTNDMjEuMzIwOSAyMy44MjM3IDIyLjAzMTYgMjMuNzkwNyAyNC41Nzg3IDIzLjc5MDdaIiBvcGFjaXR5PSIwLjIiLz4mI3hhOzxwYXRoIGZpbGw9InVybCgjcGFpbnQ1X3JhZGlhbF8yNjIyXzQwOTQpIiBkPSJNMjQuNDYyMSAyMi45NjRDMjYuNzI2NCAyMS43OTcxIDI3LjQ1MjEgMTkuNzk3NSAyNy40NTIxIDE5Ljc5NzVDMjYuNzUwMSAyMC4xNjg1IDI1Ljg1MzIgMjAuNTM5NCAyNC42NjUyIDIwLjkwMDJDMjAuMDYyMiAyMi4yOTcxIDIwLjczNzIgMjQuMzYzNyAyMC43MzcyIDI0LjM2MzdDMjAuOTUwNSAyNC4xNzM2IDIxLjE1MzYgMjQuMDQ1MSAyMS41NTU5IDIzLjkzNzFDMjIuMjI2IDIzLjc1NjggMjMuMjgwNiAyMy41NzQ4IDI0LjQ2MjEgMjIuOTY0WiIgb3BhY2l0eT0iMC40Ii8+JiN4YTs8cGF0aCBmaWxsPSJ1cmwoI3BhaW50Nl9yYWRpYWxfMjYyMl80MDk0KSIgZD0iTTIxLjU1OCAyMy45MzcxQzIyLjIyODEgMjMuNzU2NyAyMy4yODI3IDIzLjU3MzEgMjQuNDY0MyAyMi45NjUxQzI1LjE0ODYgMjIuNjEyMiAyNS43NjU5IDIyLjE0MjMgMjYuMjg4NCAyMS41NzY3QzI2LjE4NjkgMjEuNTc2NyAyNi4wODU5IDIxLjU3MyAyNS45ODU0IDIxLjU2NzZDMjEuNzUxMyAyMS4zMjczIDIwLjczNzIgMjQuMzY0MiAyMC43MzcyIDI0LjM2NDJDMjAuOTIxMSAyNC4xODk5IDIxLjE0MjkgMjQuMDYwNSAyMS4zODUyIDIzLjk4NjJDMjEuNDM5NyAyMy45NzA2IDIxLjQ5NDggMjMuOTUyNyAyMS41NTggMjMuOTM3MVoiLz4mI3hhOzxwYXRoIGZpbGw9InVybCgjcGFpbnQ3X3JhZGlhbF8yNjIyXzQwOTQpIiBkPSJNMzguMzE3NSAyMy43NTA4QzM4LjMxNzUgMjEuNjA3IDM3LjkxMDMgMTkuODQ2MSAzNy4yMzc1IDE4LjM4MDVDMzcuMzAxNyAxOC41NzQ0IDM4LjYwMzcgMjIuNjQ2NSAzNS4zNDQyIDI1LjkwNDNDMzMuNDgzNCAyNy43NjUyIDMwLjMxNzQgMjguNDA5NCAyNy43NzE4IDI2LjM3NDdDMjcuNzcxOCAyNi4zNzQ3IDI4LjA5NTggMzEuNDgyIDIyLjA0NDYgMzIuMjM1M0MxOC4wOTM0IDMyLjcyNzIgMTQuOTg0MSAzMC4yMDk3IDEzLjYzNTEgMjcuMDAzMkMxMi42OTY2IDI0Ljc3MyAxMi42MDkxIDIyLjIwOTYgMTMuNjgzNyAyMC4wOTEyQzEyLjE2NTggMjIuODc5MiAxMi43Mzg3IDI2LjI3NDggMTMuMDY1NCAyNy4zNjgzQzE0LjY1MiAzMi42NzA1IDE5LjU2NzYgMzYuNTM0OCAyNS4zODU1IDM2LjUzNDhDMzIuNDg3MSAzNi41MzQ4IDM4LjMxNzUgMzAuODUyMyAzOC4zMTc1IDIzLjc1MDhaIiBvcGFjaXR5PSIwLjQiLz4mI3hhOzxwYXRoIGZpbGw9InVybCgjcGFpbnQ4X3JhZGlhbF8yNjIyXzQwOTQpIiBkPSJNMzcuMDExOSAyOS4zNTgyQzM2LjM0MTIgMjkuNTM5NiAzMS4wODQ5IDMwLjc5MDMgMjcuNzcwOSAyNi4zNzQ3QzI3Ljc3MDkgMjYuMzc0NyAyOS4zMTQyIDMyLjM2MDYgMjIuNzU0MyAzNi4yNjQ4QzIzLjYxOTggMzYuNDQ0OSAyNC41MDE2IDM2LjUzNTMgMjUuMzg1NyAzNi41MzQ4QzMwLjQ3MDkgMzYuNTM0OCAzNC45MDQzIDMzLjYxODggMzcuMDExOSAyOS4zNTgyWiIgb3BhY2l0eT0iMC42Ii8+JiN4YTs8cGF0aCBmaWxsPSJ1cmwoI3BhaW50OV9yYWRpYWxfMjYyMl80MDk0KSIgZD0iTTM0LjE1NzkgMzMuMTQyNUMzMC4wNDc5IDMxLjAyNjggMjcuNzcwOCAyNi4zNzQ3IDI3Ljc3MDggMjYuMzc0N0MyOS42MDI0IDMwLjg0MjEgMjguODA4NiAzNC4zMjg0IDI3Ljk4NjggMzYuMjc1MUMzMC4yODk1IDM1LjgwODkgMzIuNDIyNCAzNC43MjYyIDM0LjE1NzkgMzMuMTQyNVoiIG9wYWNpdHk9IjAuNyIvPiYjeGE7PC9nPiYjeGE7PC9nPiYjeGE7PC9nPiYjeGE7PGRlZnM+JiN4YTs8bGluZWFyR3JhZGllbnQgZ3JhZGllbnRVbml0cz0idXNlclNwYWNlT25Vc2UiIHkyPSI0NC4yNzkyIiB4Mj0iNDEuNTY0NSIgeTE9IjYuODQ3NzUiIHgxPSI0Ljg1Mjg3IiBpZD0icGFpbnQwX2xpbmVhcl8yNjIyXzQwOTQiPiYjeGE7PHN0b3Agc3RvcC1jb2xvcj0id2hpdGUiLz4mI3hhOzxzdG9wIHN0b3AtY29sb3I9IiNFQUVDRUUiIG9mZnNldD0iMSIvPiYjeGE7PC9saW5lYXJHcmFkaWVudD4mI3hhOzxyYWRpYWxHcmFkaWVudCBncmFkaWVudFRyYW5zZm9ybT0idHJhbnNsYXRlKDE2LjY1NzYgMTMuNDk5Mykgcm90YXRlKDQ2LjgwMjgpIHNjYWxlKDI1LjkyODYgNDguODk2MikiIGdyYWRpZW50VW5pdHM9InVzZXJTcGFjZU9uVXNlIiByPSIxIiBjeT0iMCIgY3g9IjAiIGlkPSJwYWludDFfcmFkaWFsXzI2MjJfNDA5NCI+JiN4YTs8c3RvcCBzdG9wLWNvbG9yPSIjMDE5NUZGIi8+JiN4YTs8c3RvcCBzdG9wLWNvbG9yPSIjMTE0N0U5IiBvZmZzZXQ9IjEiLz4mI3hhOzwvcmFkaWFsR3JhZGllbnQ+JiN4YTs8cmFkaWFsR3JhZGllbnQgZ3JhZGllbnRUcmFuc2Zvcm09InRyYW5zbGF0ZSgyMS42OTk2IDE3Ljk5MTEpIHJvdGF0ZSg0Ni4xMTQpIHNjYWxlKDcuMjg1NTEgOC44MzUzKSIgZ3JhZGllbnRVbml0cz0idXNlclNwYWNlT25Vc2UiIHI9IjEiIGN5PSIwIiBjeD0iMCIgaWQ9InBhaW50Ml9yYWRpYWxfMjYyMl80MDk0Ij4mI3hhOzxzdG9wIHN0b3AtY29sb3I9IiMwMEJCRkYiLz4mI3hhOzxzdG9wIHN0b3AtY29sb3I9IiMwMDhCRkYiIG9mZnNldD0iMSIvPiYjeGE7PC9yYWRpYWxHcmFkaWVudD4mI3hhOzxyYWRpYWxHcmFkaWVudCBncmFkaWVudFRyYW5zZm9ybT0idHJhbnNsYXRlKDIyLjE1MTIgMTguODIyNCkgcm90YXRlKDM1LjYwMDgpIHNjYWxlKDcuODQwMjQgOS4wMDc2NikiIGdyYWRpZW50VW5pdHM9InVzZXJTcGFjZU9uVXNlIiByPSIxIiBjeT0iMCIgY3g9IjAiIGlkPSJwYWludDNfcmFkaWFsXzI2MjJfNDA5NCI+JiN4YTs8c3RvcCBzdG9wLWNvbG9yPSIjMDBCQkZGIi8+JiN4YTs8c3RvcCBzdG9wLWNvbG9yPSIjMDA4QkZGIiBvZmZzZXQ9IjEiLz4mI3hhOzwvcmFkaWFsR3JhZGllbnQ+JiN4YTs8cmFkaWFsR3JhZGllbnQgZ3JhZGllbnRUcmFuc2Zvcm09InRyYW5zbGF0ZSgyMi4zNDc0IDIwLjk5MDIpIHJvdGF0ZSgyMS4zOTQ4KSBzY2FsZSg3LjYxMDA5IDYuMjc0MDMpIiBncmFkaWVudFVuaXRzPSJ1c2VyU3BhY2VPblVzZSIgcj0iMSIgY3k9IjAiIGN4PSIwIiBpZD0icGFpbnQ0X3JhZGlhbF8yNjIyXzQwOTQiPiYjeGE7PHN0b3Agc3RvcC1jb2xvcj0iIzAwQkJGRiIvPiYjeGE7PHN0b3Agc3RvcC1jb2xvcj0iIzAwOEJGRiIgb2Zmc2V0PSIxIi8+JiN4YTs8L3JhZGlhbEdyYWRpZW50PiYjeGE7PHJhZGlhbEdyYWRpZW50IGdyYWRpZW50VHJhbnNmb3JtPSJ0cmFuc2xhdGUoMjEuNzc2NyAyMC40ODI4KSByb3RhdGUoMzQuMDc5MSkgc2NhbGUoNS43MDY4NSA2LjQyODg3KSIgZ3JhZGllbnRVbml0cz0idXNlclNwYWNlT25Vc2UiIHI9IjEiIGN5PSIwIiBjeD0iMCIgaWQ9InBhaW50NV9yYWRpYWxfMjYyMl80MDk0Ij4mI3hhOzxzdG9wIHN0b3AtY29sb3I9IiMwMEJCRkYiLz4mI3hhOzxzdG9wIHN0b3AtY29sb3I9IiMwMDhCRkYiIG9mZnNldD0iMSIvPiYjeGE7PC9yYWRpYWxHcmFkaWVudD4mI3hhOzxyYWRpYWxHcmFkaWVudCBncmFkaWVudFRyYW5zZm9ybT0idHJhbnNsYXRlKDIxLjYyMDYgMjEuOTc1OCkgcm90YXRlKDI2Ljg1MDEpIHNjYWxlKDQuMzU3MjggNC4yNjE4OSkiIGdyYWRpZW50VW5pdHM9InVzZXJTcGFjZU9uVXNlIiByPSIxIiBjeT0iMCIgY3g9IjAiIGlkPSJwYWludDZfcmFkaWFsXzI2MjJfNDA5NCI+JiN4YTs8c3RvcCBzdG9wLWNvbG9yPSIjMDBCQkZGIi8+JiN4YTs8c3RvcCBzdG9wLWNvbG9yPSIjMDA4QkZGIiBvZmZzZXQ9IjEiLz4mI3hhOzwvcmFkaWFsR3JhZGllbnQ+JiN4YTs8cmFkaWFsR3JhZGllbnQgZ3JhZGllbnRUcmFuc2Zvcm09InRyYW5zbGF0ZSgxNi42NTIyIDIxLjExMTUpIHJvdGF0ZSgzNS4zMDU4KSBzY2FsZSgyMS44ODA4IDE4LjgwODQpIiBncmFkaWVudFVuaXRzPSJ1c2VyU3BhY2VPblVzZSIgcj0iMSIgY3k9IjAiIGN4PSIwIiBpZD0icGFpbnQ3X3JhZGlhbF8yNjIyXzQwOTQiPiYjeGE7PHN0b3Agc3RvcC1jb2xvcj0iIzEzNDhGRiIvPiYjeGE7PHN0b3Agc3RvcC1jb2xvcj0iIzA2MjM4RCIgb2Zmc2V0PSIxIi8+JiN4YTs8L3JhZGlhbEdyYWRpZW50PiYjeGE7PHJhZGlhbEdyYWRpZW50IGdyYWRpZW50VHJhbnNmb3JtPSJ0cmFuc2xhdGUoMjQuOTY1MyAyNy44NjY1KSByb3RhdGUoMzUuNzc1Mikgc2NhbGUoMTIuMTY2OSAyMS44MDgyKSIgZ3JhZGllbnRVbml0cz0idXNlclNwYWNlT25Vc2UiIHI9IjEiIGN5PSIwIiBjeD0iMCIgaWQ9InBhaW50OF9yYWRpYWxfMjYyMl80MDk0Ij4mI3hhOzxzdG9wIHN0b3AtY29sb3I9IiMwMTk1RkYiLz4mI3hhOzxzdG9wIHN0b3AtY29sb3I9IiMxMTQ3RTkiIG9mZnNldD0iMSIvPiYjeGE7PC9yYWRpYWxHcmFkaWVudD4mI3hhOzxyYWRpYWxHcmFkaWVudCBncmFkaWVudFRyYW5zZm9ybT0idHJhbnNsYXRlKDI4Ljc4NzIgMjcuODYwNikgcm90YXRlKDU3LjE3MjMpIHNjYWxlKDguMjUwOSA5LjEyMzIzKSIgZ3JhZGllbnRVbml0cz0idXNlclNwYWNlT25Vc2UiIHI9IjEiIGN5PSIwIiBjeD0iMCIgaWQ9InBhaW50OV9yYWRpYWxfMjYyMl80MDk0Ij4mI3hhOzxzdG9wIHN0b3AtY29sb3I9IiMwMEJCRkYiLz4mI3hhOzxzdG9wIHN0b3AtY29sb3I9IiMwMDhCRkYiIG9mZnNldD0iMSIvPiYjeGE7PC9yYWRpYWxHcmFkaWVudD4mI3hhOzxjbGlwUGF0aCBpZD0iY2xpcDBfMjYyMl80MDk0Ij4mI3hhOzxyZWN0IHRyYW5zZm9ybT0idHJhbnNsYXRlKDAuNSAwLjAzNDkxMjEpIiBmaWxsPSJ3aGl0ZSIgaGVpZ2h0PSI0OCIgd2lkdGg9IjQ4Ii8+JiN4YTs8L2NsaXBQYXRoPiYjeGE7PGNsaXBQYXRoIGlkPSJjbGlwMV8yNjIyXzQwOTQiPiYjeGE7PHJlY3QgdHJhbnNmb3JtPSJ0cmFuc2xhdGUoMTIgOS41MzQ5MSkiIGZpbGw9IndoaXRlIiBoZWlnaHQ9IjI3IiB3aWR0aD0iMjciLz4mI3hhOzwvY2xpcFBhdGg+JiN4YTs8L2RlZnM+JiN4YTs8L3N2Zz4=;points=[[0,0,0,0,0],[0,0.25,0,0,0],[0,0.5,0,0,0],[0,0.75,0,0,0],[0.25,0,0,0,0],[0.5,0,0,0,0],[0.75,0,0,0,0],[1,0,0,0,0],[1,0.25,0,0,0],[1,0.5,0,0,0],[1,0.75,0,0,0]];" parent="OfAU59fTZWmp4iSplw8R-91" vertex="1">
          <mxGeometry x="28.321428571428573" width="40.38764044943821" height="40.38764044943821" as="geometry" />
        </mxCell>
        <mxCell id="OfAU59fTZWmp4iSplw8R-93" value="&lt;b&gt;&lt;font style=&quot;font-size: 10px;&quot;&gt;EKS Kundenportal&lt;/font&gt;&lt;/b&gt;" style="text;html=1;align=center;verticalAlign=top;resizable=1;points=[[0,0.5,0,0,0],[0.21,1,0,0,0],[0.5,1,0,0,0],[0.85,1,0,0,0],[1,0.5,0,0,0]];autosize=0;strokeColor=none;fillColor=none;fontSize=12;fontColor=default;fontFamily=Helvetica;fixedWidth=1;imageWidth=24;whiteSpace=wrap;labelBackgroundColor=none;" parent="OfAU59fTZWmp4iSplw8R-91" vertex="1">
          <mxGeometry y="34.39" width="102.14" height="27.61" as="geometry" />
        </mxCell>
        <mxCell id="m9YYBKn2A9ynQCPHmd28-12" value="" style="rounded=1;whiteSpace=wrap;html=1;strokeColor=#0070F2;fillColor=#EBF8FF;arcSize=24;absoluteArcSize=1;imageWidth=64;imageHeight=64;strokeWidth=1.5;" vertex="1" parent="WWFOWXg0JfWwrn1Fm2mf-2">
          <mxGeometry x="233" y="130" width="114" height="133.29" as="geometry" />
        </mxCell>
        <mxCell id="OfAU59fTZWmp4iSplw8R-97" value="&lt;font size=&quot;1&quot; color=&quot;#f5f6f7&quot;&gt;&lt;b style=&quot;&quot;&gt;https&lt;/b&gt;&lt;/font&gt;" style="rounded=1;whiteSpace=wrap;html=1;arcSize=50;strokeColor=none;fillColor=#354b5f;strokeWidth=1.5;" parent="WWFOWXg0JfWwrn1Fm2mf-2" vertex="1">
          <mxGeometry x="-45.5619047619045" y="186.57142857142858" width="76.51428571428572" height="20.57142857142857" as="geometry" />
        </mxCell>
        <mxCell id="OfAU59fTZWmp4iSplw8R-95" style="rounded=0;orthogonalLoop=1;jettySize=auto;html=1;endArrow=block;endFill=1;strokeColor=#354c5f;strokeWidth=1.5;entryX=0;entryY=0.5;entryDx=0;entryDy=0;entryPerimeter=0;" parent="WWFOWXg0JfWwrn1Fm2mf-2" source="OfAU59fTZWmp4iSplw8R-97" target="OfAU59fTZWmp4iSplw8R-92" edge="1">
          <mxGeometry relative="1" as="geometry">
            <mxPoint x="169.34391534391523" y="-78.42857142857143" as="targetPoint" />
          </mxGeometry>
        </mxCell>
        <mxCell id="OfAU59fTZWmp4iSplw8R-103" value="" style="endArrow=blockThin;html=1;strokeColor=#000000;bendable=1;rounded=0;endFill=1;endSize=4;strokeWidth=1.5;startSize=4;startArrow=none;startFill=0;exitX=0.5;exitY=0;exitDx=0;exitDy=0;exitPerimeter=0;entryX=0;entryY=0.25;entryDx=0;entryDy=0;" parent="WWFOWXg0JfWwrn1Fm2mf-2" source="OfAU59fTZWmp4iSplw8R-6" edge="1" target="m9YYBKn2A9ynQCPHmd28-9">
          <mxGeometry width="50" height="50" relative="1" as="geometry">
            <mxPoint x="299.2063492063492" y="309.85714285714283" as="sourcePoint" />
            <mxPoint x="370" y="291" as="targetPoint" />
            <Array as="points">
              <mxPoint x="290" y="311" />
            </Array>
          </mxGeometry>
        </mxCell>
        <mxCell id="OfAU59fTZWmp4iSplw8R-104" value="" style="group" parent="WWFOWXg0JfWwrn1Fm2mf-2" vertex="1" connectable="0">
          <mxGeometry x="245.55555555555557" y="-117" width="88.73015873015873" height="90" as="geometry" />
        </mxCell>
        <mxCell id="OfAU59fTZWmp4iSplw8R-105" value="" style="shape=image;verticalLabelPosition=bottom;labelBackgroundColor=default;verticalAlign=top;aspect=fixed;imageAspect=0;image=data:image/svg+xml,PHN2ZyB4bWxucz0iaHR0cDovL3d3dy53My5vcmcvMjAwMC9zdmciIGZpbGw9Im5vbmUiIHZpZXdCb3g9IjAgMCA0OCA0OCIgaGVpZ2h0PSI0OCIgd2lkdGg9IjQ4Ij4mI3hhOzxnIGNsaXAtcGF0aD0idXJsKCNjbGlwMF8zMjAyXzE4NTc3KSI+JiN4YTs8Y2lyY2xlIHN0cm9rZS13aWR0aD0iMC44NTcxNDMiIHN0cm9rZT0iI0Q1REFERCIgZmlsbD0idXJsKCNwYWludDBfbGluZWFyXzMyMDJfMTg1NzcpIiByPSIyMy41NzE0IiBjeT0iMjMuNzU3MyIgY3g9IjI0LjAwMSIvPiYjeGE7PGcgY2xpcC1wYXRoPSJ1cmwoI2NsaXAxXzMyMDJfMTg1NzcpIj4mI3hhOzxwYXRoIGZpbGw9InVybCgjcGFpbnQxX2xpbmVhcl8zMjAyXzE4NTc3KSIgZD0iTTIzLjgwOTggMTEuMjAzMUMxOS41MjczIDExLjIwMzEgMTYuNDg0NyAxNC42ODkxIDE1Ljk3NzcgMTguMzI4NEMxNC42MDAyIDE4LjQxMDQgMTMuMzgzOCAxOC45MjgxIDEyLjQzOTEgMTkuNzk3N0MxMS4xNjExIDIwLjk3NDEgMTAuNTAxIDIyLjY4MTYgMTAuNTAxIDI0LjQ4MjNDMTAuNTAxIDI2LjE1NTcgMTEuMDA4NiAyNy43Mzc0IDEyLjE0ODIgMjguOTA2OUMxMy4yOTU1IDMwLjA4NDMgMTQuOTI0NCAzMC42ODA3IDE2Ljg0MjMgMzAuNjgwN0gxNy42ODUxQzE3LjY5NzEgMzAuNjYyMyAxNy43MDkyIDMwLjY0NCAxNy43MjE0IDMwLjYyNThMMTcuNzMzNSAzMC42MDc2TDE3Ljc0NjEgMzAuNTg5OEMxOC4xMjI5IDMwLjA1NzggMTguNTY4MSAyOS41ODg2IDE5LjA3OTEgMjkuMTg2M0MxOS4xMTA0IDI5LjE2MDUgMTkuMTQxOSAyOS4xMzUyIDE5LjE3MzYgMjkuMTEwMUMxOC44OTkxIDI4LjQ3MjMgMTguNzYzMSAyNy43NzQyIDE4Ljc2MzEgMjcuMDMyNkMxOC43NjMxIDI2LjMyODcgMTguODk3OCAyNS42NDY3IDE5LjE3MTMgMjUuMDAwMkMxOS40MzU1IDI0LjM3NTYgMTkuODA0NyAyMy44MTY2IDIwLjI4MTkgMjMuMzM5NUMyMC43NjkxIDIyLjg1MjMgMjEuMzM0MyAyMi40NzEzIDIxLjk2ODcgMjIuMjAyOUMyMi42MTUxIDIxLjkyOTQgMjMuMjk3MSAyMS43OTQ3IDI0LjAwMSAyMS43OTQ3QzI0LjcwNDggMjEuNzk0NyAyNS4zODY4IDIxLjkyOTQgMjYuMDMzMyAyMi4yMDI5QzI2LjY2MjcgMjIuNDY5MiAyNy4yMjEgMjIuODQ4OCAyNy42OTQzIDIzLjMzOTJDMjguMTg0OCAyMy44MTI1IDI4LjU2NDQgMjQuMzcwOCAyOC44MzA3IDI1LjAwMDJDMjkuMTA0MiAyNS42NDY3IDI5LjIzODggMjYuMzI4NyAyOS4yMzg4IDI3LjAzMjZDMjkuMjM4OCAyNy43MzY0IDI5LjEwNDIgMjguNDE4NCAyOC44MzA3IDI5LjA2NDlMMjguODI2NCAyOS4wNzVMMjguODIxNCAyOS4wODYzQzI5LjM2OSAyOS41MDUxIDI5Ljg1MDEgMzAuMDEwMSAzMC4yNjA4IDMwLjU5NjhDMzAuMjgyNCAzMC42Mjc3IDMwLjMwMzcgMzAuNjU4NyAzMC4zMjQ3IDMwLjY4OThDMzQuMDU2NSAzMC41ODc1IDM3LjQxNjYgMjcuNzgwMSAzNy40MTY2IDIzLjMyNTFDMzcuNDE2NiAxOS4zNDExIDM0LjU2OTIgMTYuMjc5NSAzMS4xNDE0IDE1Ljk1NTdDMjkuNzY3MyAxMy4xMTQyIDI3LjIxNjYgMTEuMjAzMSAyMy44MDk4IDExLjIwMzFaIi8+JiN4YTs8cGF0aCBmaWxsPSJ1cmwoI3BhaW50Ml9saW5lYXJfMzIwMl8xODU3NykiIGQ9Ik0yNi41ODY2IDI5Ljc3MzdDMjcuNTU4IDMwLjE1NTMgMjguMzQ3MiAzMC43Nzk4IDI4Ljk1NDMgMzEuNjQ3MUMyOS41NjE0IDMyLjUxNDQgMjkuODY1IDMzLjQ5NDQgMjkuODY1IDM0LjU4NzJWMzYuMDcwM0MyOS44NjUgMzYuMjc4NCAyOS43ODY5IDM2LjQ1MTkgMjkuNjMwOCAzNi41OTA2QzI5LjQ5MjEgMzYuNzI5NCAyOS4zMjczIDM2Ljc5ODggMjkuMTM2NSAzNi43OTg4SDI3LjY1MzRDMjcuNDQ1MiAzNi43OTg4IDI3LjI2MzEgMzYuNzI5NCAyNy4xMDcgMzYuNTkwNkMyNi45NjgyIDM2LjQ1MTkgMjYuODk4OSAzNi4yNzg0IDI2Ljg5ODkgMzYuMDcwM0MyNi44OTg5IDM1Ljg2MjEgMjYuOTY4MiAzNS42ODg2IDI3LjEwNyAzNS41NDk5QzI3LjI2MzEgMzUuMzkzOCAyNy40NDUyIDM1LjMxNTcgMjcuNjUzNCAzNS4zMTU3SDI4LjM4MTlWMzQuNTg3MkMyOC4zODE5IDM0LjA4NDIgMjguMjg2NSAzMy42MDcxIDI4LjA5NTcgMzMuMTU2MUMyNy45MDQ5IDMyLjcwNTIgMjcuNjM2MSAzMi4zMTQ5IDI3LjI4OTEgMzEuOTg1M0MyNi45NTk2IDMxLjYzODQgMjYuNTY5MyAzMS4zNjk1IDI2LjExODMgMzEuMTc4N0MyNS42ODQ2IDMwLjk4NzkgMjUuMjA3NiAzMC44OTI1IDI0LjY4NzMgMzAuODkyNUgyMy4yMzAyQzIyLjcwOTggMzAuODkyNSAyMi4yMjQyIDMwLjk4NzkgMjEuNzczMiAzMS4xNzg3QzIxLjMzOTUgMzEuMzY5NSAyMC45NDkyIDMxLjYzODQgMjAuNjAyMyAzMS45ODUzQzIwLjI3MjggMzIuMzE0OSAyMC4wMTI2IDMyLjcwNTIgMTkuODIxOCAzMy4xNTYxQzE5LjYzMSAzMy42MDcxIDE5LjUzNTYgMzQuMDg0MiAxOS41MzU2IDM0LjU4NzJWMzUuMzE1N0gyMC4yNjQxQzIwLjQ3MjIgMzUuMzE1NyAyMC42NDU3IDM1LjM5MzggMjAuNzg0NSAzNS41NDk5QzIwLjkyMzIgMzUuNjg4NiAyMC45OTI2IDM1Ljg2MjEgMjAuOTkyNiAzNi4wNzAzQzIwLjk5MjYgMzYuMjc4NCAyMC45MjMyIDM2LjQ1MTkgMjAuNzg0NSAzNi41OTA2QzIwLjY0NTcgMzYuNzI5NCAyMC40NzIyIDM2Ljc5ODggMjAuMjY0MSAzNi43OTg4SDE4Ljc4MUMxOC41OTAyIDM2Ljc5ODggMTguNDE2OCAzNi43Mjk0IDE4LjI2MDYgMzYuNTkwNkMxOC4xMjE5IDM2LjQ1MTkgMTguMDUyNSAzNi4yNzg0IDE4LjA1MjUgMzYuMDcwM1YzNC41ODcyQzE4LjA1MjUgMzQuMDMyMSAxOC4xMzA1IDMzLjUxMTcgMTguMjg2NyAzMy4wMjYxQzE4LjQ2MDEgMzIuNTIzIDE4LjY4NTYgMzIuMDYzNCAxOC45NjMxIDMxLjY0NzFDMTkuMjU4IDMxLjIzMDggMTkuNjA0OSAzMC44NjY1IDIwLjAwMzkgMzAuNTU0M0MyMC40MDI4IDMwLjIyNDcgMjAuODQ1MiAyOS45NjQ1IDIxLjMzMDggMjkuNzczN0MyMC42MTk3IDI5LjA5NzIgMjAuMjY0MSAyOC4yMzg2IDIwLjI2NDEgMjcuMTk3OEMyMC4yNjQxIDI2LjY5NDggMjAuMzU5NSAyNi4yMTc4IDIwLjU1MDMgMjUuNzY2OEMyMC43NDExIDI1LjMxNTggMjEuMDAxMyAyNC45MjU1IDIxLjMzMDggMjQuNTk2QzIxLjY3NzggMjQuMjQ5IDIyLjA3NjcgMjMuOTgwMiAyMi41Mjc3IDIzLjc4OTRDMjIuOTc4NyAyMy41OTg2IDIzLjQ1NTcgMjMuNTAzMiAyMy45NTg3IDIzLjUwMzJDMjQuNDYxOCAyMy41MDMyIDI0LjkzODggMjMuNTk4NiAyNS4zODk4IDIzLjc4OTRDMjUuODQwOCAyMy45ODAyIDI2LjIzMSAyNC4yNDkgMjYuNTYwNiAyNC41OTZDMjYuOTA3NSAyNC45MjU1IDI3LjE3NjQgMjUuMzE1OCAyNy4zNjcyIDI1Ljc2NjhDMjcuNTU4IDI2LjIxNzggMjcuNjUzNCAyNi42OTQ4IDI3LjY1MzQgMjcuMTk3OEMyNy42NTM0IDI3LjcwMDkgMjcuNTU4IDI4LjE3NzkgMjcuMzY3MiAyOC42Mjg5QzI3LjE3NjQgMjkuMDYyNSAyNi45MTYyIDI5LjQ0NDEgMjYuNTg2NiAyOS43NzM3Wk0yMy45NTg3IDI0Ljk4NjJDMjMuMzUxNiAyNC45ODYyIDIyLjgzMTMgMjUuMjAzMSAyMi4zOTc2IDI1LjYzNjdDMjEuOTY0IDI2LjA3MDQgMjEuNzQ3MSAyNi41OTA3IDIxLjc0NzEgMjcuMTk3OEMyMS43NDcxIDI3LjgwNDkgMjEuOTY0IDI4LjMyNTMgMjIuMzk3NiAyOC43NTlDMjIuODMxMyAyOS4xOTI2IDIzLjM1MTYgMjkuNDA5NCAyMy45NTg3IDI5LjQwOTRDMjQuNTY1OCAyOS40MDk0IDI1LjA4NjIgMjkuMTkyNiAyNS41MTk5IDI4Ljc1OUMyNS45NTM1IDI4LjMyNTMgMjYuMTcwMyAyNy44MDQ5IDI2LjE3MDMgMjcuMTk3OEMyNi4xNzAzIDI2LjU5MDcgMjUuOTUzNSAyNi4wNzA0IDI1LjUxOTkgMjUuNjM2N0MyNS4wODYyIDI1LjIwMzEgMjQuNTY1OCAyNC45ODYyIDIzLjk1ODcgMjQuOTg2MloiLz4mI3hhOzwvZz4mI3hhOzwvZz4mI3hhOzxkZWZzPiYjeGE7PGxpbmVhckdyYWRpZW50IGdyYWRpZW50VW5pdHM9InVzZXJTcGFjZU9uVXNlIiB5Mj0iNDQuMDAxNiIgeDI9IjQxLjA2NTUiIHkxPSI2LjU3MDE3IiB4MT0iNC4zNTM4NCIgaWQ9InBhaW50MF9saW5lYXJfMzIwMl8xODU3NyI+JiN4YTs8c3RvcCBzdG9wLWNvbG9yPSJ3aGl0ZSIvPiYjeGE7PHN0b3Agc3RvcC1jb2xvcj0iI0VBRUNFRSIgb2Zmc2V0PSIxIi8+JiN4YTs8L2xpbmVhckdyYWRpZW50PiYjeGE7PGxpbmVhckdyYWRpZW50IGdyYWRpZW50VW5pdHM9InVzZXJTcGFjZU9uVXNlIiB5Mj0iMzIuMDI1NyIgeDI9IjI3LjQ5NjgiIHkxPSIxNC4xMTcyIiB4MT0iMTQuNTM1NyIgaWQ9InBhaW50MV9saW5lYXJfMzIwMl8xODU3NyI+JiN4YTs8c3RvcCBzdG9wLWNvbG9yPSIjMDE5NUZGIi8+JiN4YTs8c3RvcCBzdG9wLWNvbG9yPSIjMTE0N0U5IiBvZmZzZXQ9IjAuOTkxMDI4Ii8+JiN4YTs8L2xpbmVhckdyYWRpZW50PiYjeGE7PGxpbmVhckdyYWRpZW50IGdyYWRpZW50VW5pdHM9InVzZXJTcGFjZU9uVXNlIiB5Mj0iMzMuNzA4MiIgeDI9IjI5LjA0MzciIHkxPSIyNS40NTkyIiB4MT0iMTkuNzk4OSIgaWQ9InBhaW50Ml9saW5lYXJfMzIwMl8xODU3NyI+JiN4YTs8c3RvcCBzdG9wLWNvbG9yPSIjMTM0OEZGIi8+JiN4YTs8c3RvcCBzdG9wLWNvbG9yPSIjMDYyMzhEIiBvZmZzZXQ9IjEiLz4mI3hhOzwvbGluZWFyR3JhZGllbnQ+JiN4YTs8Y2xpcFBhdGggaWQ9ImNsaXAwXzMyMDJfMTg1NzciPiYjeGE7PHJlY3QgdHJhbnNmb3JtPSJ0cmFuc2xhdGUoMCAwLjAwMDk3NjU2MikiIGZpbGw9IndoaXRlIiBoZWlnaHQ9IjQ4IiB3aWR0aD0iNDgiLz4mI3hhOzwvY2xpcFBhdGg+JiN4YTs8Y2xpcFBhdGggaWQ9ImNsaXAxXzMyMDJfMTg1NzciPiYjeGE7PHJlY3QgdHJhbnNmb3JtPSJ0cmFuc2xhdGUoMTAuNTAxIDEwLjUwMSkiIGZpbGw9IndoaXRlIiBoZWlnaHQ9IjI3IiB3aWR0aD0iMjciLz4mI3hhOzwvY2xpcFBhdGg+JiN4YTs8L2RlZnM+JiN4YTs8L3N2Zz4=;points=[[0,0,0,0,0],[0,0.25,0,0,0],[0,0.5,0,0,0],[0,0.75,0,0,0],[0.25,0,0,0,0],[0.5,0,0,0,0],[0.75,0,0,0,0],[1,0,0,0,0],[1,0.25,0,0,0],[1,0.5,0,0,0],[1,0.75,0,0,0]];" parent="OfAU59fTZWmp4iSplw8R-104" vertex="1">
          <mxGeometry x="25.00952380952381" y="15" width="36.8952380952381" height="36.8952380952381" as="geometry" />
        </mxCell>
        <mxCell id="OfAU59fTZWmp4iSplw8R-106" value="&lt;font color=&quot;#1d2d3e&quot; size=&quot;1&quot; face=&quot;arial&quot; style=&quot;&quot;&gt;&lt;b style=&quot;font-size: 12px;&quot;&gt;Identity Authentication&lt;br&gt;&lt;/b&gt;&lt;/font&gt;" style="text;html=1;align=center;verticalAlign=top;resizable=1;points=[[0,0.5,0,0,0],[0.21,1,0,0,0],[0.5,1,0,0,0],[0.85,1,0,0,0],[1,0.5,0,0,0]];autosize=0;strokeColor=none;fillColor=none;fontSize=12;fontColor=default;fontFamily=Helvetica;fixedWidth=1;imageWidth=24;whiteSpace=wrap;labelBackgroundColor=none;" parent="OfAU59fTZWmp4iSplw8R-104" vertex="1">
          <mxGeometry y="48.42" width="88.73" height="41.58" as="geometry" />
        </mxCell>
        <mxCell id="OfAU59fTZWmp4iSplw8R-101" style="edgeStyle=orthogonalEdgeStyle;rounded=0;orthogonalLoop=1;jettySize=auto;html=1;entryX=0;entryY=0.5;entryDx=0;entryDy=0;entryPerimeter=0;endArrow=blockThin;endFill=1;startArrow=blockThin;startFill=1;exitX=1;exitY=0.5;exitDx=0;exitDy=0;exitPerimeter=0;" parent="WWFOWXg0JfWwrn1Fm2mf-2" source="OfAU59fTZWmp4iSplw8R-92" target="OfAU59fTZWmp4iSplw8R-51" edge="1">
          <mxGeometry relative="1" as="geometry">
            <mxPoint x="113.49206349206351" y="168.42857142857142" as="sourcePoint" />
            <mxPoint x="170.75396825396828" y="201.85714285714283" as="targetPoint" />
          </mxGeometry>
        </mxCell>
        <mxCell id="OfAU59fTZWmp4iSplw8R-10" value="" style="group" parent="WWFOWXg0JfWwrn1Fm2mf-2" vertex="1" connectable="0">
          <mxGeometry x="236.5" y="111" width="137.5" height="52.71" as="geometry" />
        </mxCell>
        <mxCell id="WWFOWXg0JfWwrn1Fm2mf-5" value="" style="shape=image;verticalLabelPosition=bottom;verticalAlign=top;imageAspect=0;aspect=fixed;image=data:image/svg+xml,PHN2ZyB4bWxucz0iaHR0cDovL3d3dy53My5vcmcvMjAwMC9zdmciIGZpbGw9Im5vbmUiIHZpZXdCb3g9IjAgMCAxNyAxNyIgaGVpZ2h0PSIxNyIgd2lkdGg9IjE3Ij4mI3hhOzxwYXRoIGZpbGw9InVybCgjcGFpbnQwX2xpbmVhcl8yXzI4ODA5KSIgZD0iTTE0Ljk2MzkgNS4wNTI3M0MxNS4xOTMgNS4xOTg1NyAxNS4zMDc2IDUuMzg2MDcgMTUuMzA3NiA1LjYxNTIzQzE1LjMwNzYgNS42Nzc3MyAxNS4yOTcyIDUuNzI5ODIgMTUuMjc2NCA1Ljc3MTQ4VjEyLjE0NjVDMTUuMjc2NCAxMi40NTkgMTUuMTQxIDEyLjY5ODYgMTQuODcwMSAxMi44NjUyTDguNTI2MzcgMTYuODM0QzguMzgwNTMgMTYuOTE3MyA4LjIyNDI4IDE2Ljk1OSA4LjA1NzYyIDE2Ljk1OUM3Ljg3MDEyIDE2Ljk1OSA3LjczNDcgMTYuOTE3MyA3LjY1MTM3IDE2LjgzNEwxLjI3NjM3IDEyLjg2NTJDMS4xNTEzNyAxMi43ODE5IDEuMDQ3MiAxMi42NjczIDAuOTYzODY3IDEyLjUyMTVDMC45MDEzNjcgMTIuMzc1NyAwLjg3MDExNyAxMi4yNTA3IDAuODcwMTE3IDEyLjE0NjVWNS43NzE0OEMwLjg3MDExNyA1LjQ1ODk4IDEuMDA1NTMgNS4yMTk0IDEuMjc2MzcgNS4wNTI3M0w0LjQ2Mzg3IDMuMDUyNzNDNC42MzA1MyAyLjk5MDIzIDQuNzg2NzggMi45NTg5OCA0LjkzMjYyIDIuOTU4OThDNS4wNzg0NSAyLjk1ODk4IDUuMjEzODcgMi45OTAyMyA1LjMzODg3IDMuMDUyNzNMMTEuNzEzOSA3LjA1MjczQzExLjgxOCA3LjA5NDQgMTEuOTAxNCA3LjE4ODE1IDExLjk2MzkgNy4zMzM5OEMxMi4wNDcyIDcuNDU4OTggMTIuMDg4OSA3LjU3MzU3IDEyLjA4ODkgNy42Nzc3M1YxMC40NTlDMTIuMDg4OSAxMS4wMDA3IDExLjgyODUgMTEuMjcxNSAxMS4zMDc2IDExLjI3MTVDMTEuMDc4NSAxMS4yNzE1IDEwLjg4MDUgMTEuMTk4NiAxMC43MTM5IDExLjA1MjdDMTAuNTY4IDEwLjkwNjkgMTAuNDk1MSAxMC43MDkgMTAuNDk1MSAxMC40NTlWOC4xNDY0OEw0LjkzMjYyIDQuNjQ2NDhMMi41NTc2MiA2LjE3NzczVjExLjY3NzdMOC4xMjAxMiAxNS4xNzc3TDEzLjY4MjYgMTEuNjc3N1Y2LjE3NzczTDcuNzEzODcgMi40Mjc3M0M3LjQ2Mzg3IDIuMjYxMDcgNy4zMzg4NyAyLjA0MjMyIDcuMzM4ODcgMS43NzE0OEM3LjMzODg3IDEuNjY3MzIgNy4zODA1MyAxLjUxMTA3IDcuNDYzODcgMS4zMDI3M0M3LjY1MTM3IDEuMDczNTcgNy44OTA5NSAwLjk1ODk4NCA4LjE4MjYyIDAuOTU4OTg0QzguMzQ5MjggMC45NTg5ODQgOC40ODQ3IDEuMDAwNjUgOC41ODg4NyAxLjA4Mzk4TDE0Ljk2MzkgNS4wNTI3M1pNNy4wMjYzNyAxMS4xNzc3QzcuMjc2MzcgMTEuMzIzNiA3LjQwMTM3IDExLjU0MjMgNy40MDEzNyAxMS44MzRDNy40MDEzNyAxMi4wMDA3IDcuMzU5NyAxMi4xNTY5IDcuMjc2MzcgMTIuMzAyN0M3LjEwOTcgMTIuNTMxOSA2Ljg3MDEyIDEyLjY0NjUgNi41NTc2MiAxMi42NDY1QzYuNDExNzggMTIuNjQ2NSA2LjI3NjM3IDEyLjYxNTIgNi4xNTEzNyAxMi41NTI3TDQuNTU3NjIgMTEuNTg0QzQuMzA3NjIgMTEuNDE3MyA0LjE4MjYyIDExLjIwOSA0LjE4MjYyIDEwLjk1OUM0LjE4MjYyIDEwLjc5MjMgNC4yMzQ3IDEwLjYyNTcgNC4zMzg4NyAxMC40NTlDNC41MjYzNyAxMC4yMjk4IDQuNzU1NTMgMTAuMTE1MiA1LjAyNjM3IDEwLjExNTJDNS4xOTMwMyAxMC4xMTUyIDUuMzI4NDUgMTAuMTU2OSA1LjQzMjYyIDEwLjI0MDJMNy4wMjYzNyAxMS4xNzc3WiIvPiYjeGE7PGRlZnM+JiN4YTs8bGluZWFyR3JhZGllbnQgZ3JhZGllbnRVbml0cz0idXNlclNwYWNlT25Vc2UiIHkyPSI5LjU0NDQ0IiB4Mj0iMTYuMTIwNCIgeTE9IjIuNDY0MDciIHgxPSIyLjczNjAzIiBpZD0icGFpbnQwX2xpbmVhcl8yXzI4ODA5Ij4mI3hhOzxzdG9wIHN0b3AtY29sb3I9IiMyMzk1RkYiLz4mI3hhOzxzdG9wIHN0b3AtY29sb3I9IiMwMDU3RDIiIG9mZnNldD0iMSIvPiYjeGE7PC9saW5lYXJHcmFkaWVudD4mI3hhOzwvZGVmcz4mI3hhOzwvc3ZnPg==" parent="OfAU59fTZWmp4iSplw8R-10" vertex="1">
          <mxGeometry x="6.31" y="25.21607399138893" width="23.85440599585393" height="23.85440599585393" as="geometry" />
        </mxCell>
        <mxCell id="OfAU59fTZWmp4iSplw8R-4" value="&lt;font style=&quot;font-size: 11px;&quot;&gt;&lt;b&gt;CAP&amp;nbsp;&lt;/b&gt;&lt;b style=&quot;background-color: initial;&quot;&gt;Service&lt;/b&gt;&lt;/font&gt;" style="text;whiteSpace=wrap;html=1;align=center;verticalAlign=top;points=[[0,0,0,0,0],[0,0.25,0,0,0],[0,0.5,0,0,0],[0,0.75,0,0,0],[0,1,0,0,0],[0.25,0,0,0,0],[0.25,1,0,0,0],[0.5,0,0,0,0],[0.5,1,0,0,0],[0.75,0,0,0,0],[0.75,1,0,0,0],[1,0,0,0,0],[1,0.25,0,0,0],[1,0.5,0,0,0],[1,0.75,0,0,0],[1,1,0,0,0]];" parent="OfAU59fTZWmp4iSplw8R-10" vertex="1">
          <mxGeometry x="18.060000000000002" y="23" width="94.94" height="26.01" as="geometry" />
        </mxCell>
        <mxCell id="m9YYBKn2A9ynQCPHmd28-13" value="&lt;font color=&quot;#475f75&quot; size=&quot;1&quot;&gt;&lt;b style=&quot;&quot;&gt;App Logic&lt;/b&gt;&lt;/font&gt;" style="rounded=1;whiteSpace=wrap;html=1;arcSize=50;strokeColor=#475f75;fillColor=default;strokeWidth=1.5;" vertex="1" parent="WWFOWXg0JfWwrn1Fm2mf-2">
          <mxGeometry x="240" y="172" width="98" height="16" as="geometry" />
        </mxCell>
        <mxCell id="OfAU59fTZWmp4iSplw8R-109" style="rounded=0;orthogonalLoop=1;jettySize=auto;html=1;entryX=0.5;entryY=1;entryDx=0;entryDy=0;entryPerimeter=0;endArrow=blockThin;endFill=1;exitX=0.5;exitY=0;exitDx=0;exitDy=0;" parent="WWFOWXg0JfWwrn1Fm2mf-2" source="m9YYBKn2A9ynQCPHmd28-12" target="OfAU59fTZWmp4iSplw8R-106" edge="1">
          <mxGeometry relative="1" as="geometry">
            <mxPoint x="360" y="-19" as="sourcePoint" />
            <mxPoint x="233.42222222222225" y="-79.22571428571429" as="targetPoint" />
          </mxGeometry>
        </mxCell>
        <mxCell id="OfAU59fTZWmp4iSplw8R-59" value="" style="group" parent="1" vertex="1" connectable="0">
          <mxGeometry x="840" y="165" width="194.51999999999998" height="154.12" as="geometry" />
        </mxCell>
        <mxCell id="OfAU59fTZWmp4iSplw8R-60" value="" style="group" parent="OfAU59fTZWmp4iSplw8R-59" vertex="1" connectable="0">
          <mxGeometry width="194.51999999999998" height="154.12" as="geometry" />
        </mxCell>
        <mxCell id="OfAU59fTZWmp4iSplw8R-61" value="" style="rounded=1;whiteSpace=wrap;html=1;strokeColor=#0070F2;strokeWidth=1.5;arcSize=16;fillColor=#FFFFFF;perimeterSpacing=0;absoluteArcSize=1;" parent="OfAU59fTZWmp4iSplw8R-60" vertex="1">
          <mxGeometry width="189" height="154.12" as="geometry" />
        </mxCell>
        <mxCell id="OfAU59fTZWmp4iSplw8R-62" value="&lt;font face=&quot;arial&quot; style=&quot;font-size: 16px;&quot;&gt;&lt;b style=&quot;font-size: 16px;&quot;&gt;SAP On-Premise &lt;br&gt;Solutions&lt;/b&gt;&lt;/font&gt;" style="text;html=1;align=left;verticalAlign=middle;resizable=0;points=[];autosize=1;strokeColor=none;fillColor=none;fontSize=12;fontColor=#1d2d3e;fontFamily=Helvetica;" parent="OfAU59fTZWmp4iSplw8R-60" vertex="1">
          <mxGeometry x="49.999999999999986" y="8.999999999999993" width="150" height="50" as="geometry" />
        </mxCell>
        <mxCell id="OfAU59fTZWmp4iSplw8R-63" value="" style="shape=image;verticalLabelPosition=bottom;labelBackgroundColor=default;verticalAlign=top;aspect=fixed;imageAspect=0;image=data:image/svg+xml,PHN2ZyB4bWxucz0iaHR0cDovL3d3dy53My5vcmcvMjAwMC9zdmciIGZpbGw9Im5vbmUiIHZpZXdCb3g9IjAgMCAxNiAxNyIgaGVpZ2h0PSIxNyIgd2lkdGg9IjE2Ij4mI3hhOzxwYXRoIGZpbGw9InVybCgjcGFpbnQwX2xpbmVhcl83MjRfMTIpIiBkPSJNMTQuMzMzNSA1LjgzNDk0QzE0LjU4MzUgNi4wODQ5NCAxNC43ODE0IDYuMzc2NjEgMTQuOTI3MiA2LjcwOTk0QzE1LjA5MzkgNy4wMjI0NCAxNS4xNzcyIDcuMzY2MTkgMTUuMTc3MiA3Ljc0MTE5VjE0LjQyODdDMTUuMTc3MiAxNS4xMzcgMTQuOTM3NiAxNS43MjA0IDE0LjQ1ODUgMTYuMTc4N0MxMy45NzkzIDE2LjY1NzkgMTMuMzg1NSAxNi44OTc1IDEyLjY3NzIgMTYuODk3NUgyLjc3MDk0QzIuMDgzNDQgMTYuODk3NSAxLjUwMDExIDE2LjY1NzkgMS4wMjA5NCAxNi4xNzg3QzAuNTQxNzY4IDE1LjcyMDQgMC4zMDIxODUgMTUuMTM3IDAuMzAyMTg1IDE0LjQyODdWNy43NDExOUMwLjMwMjE4NSA2Ljk0OTUyIDAuNTgzNDM1IDYuMzE0MTEgMS4xNDU5NCA1LjgzNDk0TDYuMDgzNDQgMS41NTM2OUM2LjU4MzQ0IDEuMTM3MDIgNy4xNDU5NCAwLjkyODY4OCA3Ljc3MDk0IDAuOTI4Njg4QzguMzk1OTQgMC45Mjg2ODggOC45Mzc2MSAxLjEzNzAyIDkuMzk1OTQgMS41NTM2OUwxNC4zMzM1IDUuODM0OTRaTTguOTg5NjkgMTAuMzAzN0g2LjQ4OTY5VjE1LjI3MjVIOC45ODk2OVYxMC4zMDM3Wk0xMy40MjcyIDcuNzQxMTlDMTMuNDI3MiA3LjQ3MDM2IDEzLjM0MzkgNy4yNTE2MSAxMy4xNzcyIDcuMDg0OTRMOC4yMzk2OSAyLjgwMzY5QzcuODg1NTIgMi41MzI4NiA3LjUyMDk0IDIuNTMyODYgNy4xNDU5NCAyLjgwMzY5TDIuMjA4NDQgNy4wODQ5NEMyLjA0MTc3IDcuMjUxNjEgMS45NTg0NCA3LjQ3MDM2IDEuOTU4NDQgNy43NDExOVYxNC40Mjg3QzEuOTU4NDQgMTQuNjc4NyAyLjAzMTM2IDE0Ljg4NyAyLjE3NzE5IDE1LjA1MzdDMi4zNDM4NiAxNS4xOTk1IDIuNTQxNzcgMTUuMjcyNSAyLjc3MDk0IDE1LjI3MjVINC44MzM0NFYxMC4zMDM3QzQuODMzNDQgOS44NDUzNiA0Ljk4OTY5IDkuNDU5OTQgNS4zMDIxOSA5LjE0NzQ0QzUuNjM1NTIgOC44MTQxMSA2LjAzMTM2IDguNjQ3NDQgNi40ODk2OSA4LjY0NzQ0SDguOTg5NjlDOS40NDgwMiA4LjY0NzQ0IDkuODMzNDkgOC44MTQxMSAxMC4xNDU5IDkuMTQ3NDRDMTAuNDU4NSA5LjQ1OTk0IDEwLjYxNDcgOS44NDUzNiAxMC42MTQ3IDEwLjMwMzdWMTUuMjcyNUgxMi42NzcyQzEyLjkyNzIgMTUuMjcyNSAxMy4xMjUxIDE1LjE5OTUgMTMuMjcwOSAxNS4wNTM3QzEzLjQzNzYgMTQuODg3IDEzLjUyMDkgMTQuNjc4NyAxMy41MjA5IDE0LjQyODdMMTMuNDI3MiA3Ljc0MTE5WiIvPiYjeGE7PGRlZnM+JiN4YTs8bGluZWFyR3JhZGllbnQgZ3JhZGllbnRVbml0cz0idXNlclNwYWNlT25Vc2UiIHkyPSI5Ljg1NDkiIHgyPSIxNS44MTkzIiB5MT0iMi40MzA4NCIgeDE9IjIuMjI0NjQiIGlkPSJwYWludDBfbGluZWFyXzcyNF8xMiI+JiN4YTs8c3RvcCBzdG9wLWNvbG9yPSIjMjM5NUZGIi8+JiN4YTs8c3RvcCBzdG9wLWNvbG9yPSIjMDA1N0QyIiBvZmZzZXQ9IjEiLz4mI3hhOzwvbGluZWFyR3JhZGllbnQ+JiN4YTs8L2RlZnM+JiN4YTs8L3N2Zz4=;strokeWidth=1.5;" parent="OfAU59fTZWmp4iSplw8R-60" vertex="1">
          <mxGeometry x="14" y="16.00000000000005" width="28.24" height="30" as="geometry" />
        </mxCell>
        <mxCell id="OfAU59fTZWmp4iSplw8R-64" value="" style="group" parent="OfAU59fTZWmp4iSplw8R-59" vertex="1" connectable="0">
          <mxGeometry x="61" y="74.25999999999999" width="67" height="68.25" as="geometry" />
        </mxCell>
        <mxCell id="OfAU59fTZWmp4iSplw8R-65" value="" style="shape=image;verticalLabelPosition=bottom;labelBackgroundColor=default;verticalAlign=top;aspect=fixed;imageAspect=0;image=data:image/svg+xml,PHN2ZyB4bWxucz0iaHR0cDovL3d3dy53My5vcmcvMjAwMC9zdmciIGZpbGw9Im5vbmUiIHZpZXdCb3g9IjAgMCAxNyAxNyIgaGVpZ2h0PSIxNyIgd2lkdGg9IjE3Ij4mI3hhOzxwYXRoIGZpbGw9InVybCgjcGFpbnQwX2xpbmVhcl83MjNfMTEpIiBkPSJNMTUuODQ0NyAxNC45OTYyQzE2LjAxMTQgMTUuMTYyOSAxNi4wOTQ3IDE1LjM0IDE2LjA5NDcgMTUuNTI3NEMxNi4wOTQ3IDE1LjczNTggMTYuMDExNCAxNS45MjMzIDE1Ljg0NDcgMTYuMDlDMTUuNjc4IDE2LjI1NjYgMTUuNDkwNSAxNi4zNCAxNS4yODIyIDE2LjM0QzE1LjA3MzkgMTYuMzQgMTQuODg2NCAxNi4yNTY2IDE0LjcxOTcgMTYuMDlMMTEuNzgyMiAxMy4xNTI0QzExLjEzNjQgMTMuNjczMyAxMC40MDcyIDEzLjkxMjkgOS41OTQ2NyAxMy44NzEyQzguNzgyMTcgMTMuODI5NSA4LjA3Mzg0IDEzLjUwNjYgNy40Njk2NyAxMi45MDI0TDMuNjI1OTIgOS4wODk5N0MzLjMzNDI1IDguNzc3NDcgMy4xMDUwOSA4LjQ0NDE0IDIuOTM4NDIgOC4wODk5N0MyLjc3MTc1IDcuNzE0OTcgMi42NzggNy4zMzk5NyAyLjY1NzE3IDYuOTY0OTdDMi42NTcxNyA2LjU2OTE0IDIuNzA5MjUgNi4xODM3MiAyLjgxMzQyIDUuODA4NzJDMi45Mzg0MiA1LjQzMzcyIDMuMTM2MzQgNS4wODk5NyAzLjQwNzE3IDQuNzc3NDdMMC4zNDQ2NjYgMS43NDYyMkMwLjE3Nzk5OSAxLjU3OTU1IDAuMDk0NjY1NSAxLjM5MjA1IDAuMDk0NjY1NSAxLjE4MzcyQzAuMDk0NjY1NSAwLjk3NTM5IDAuMTc3OTk5IDAuNzg3ODkgMC4zNDQ2NjYgMC42MjEyMjNDMC41MTEzMzMgMC40NTQ1NTcgMC42OTg4MzMgMC4zNzEyMjMgMC45MDcxNjYgMC4zNzEyMjNDMS4xMTU1IDAuMzcxMjIzIDEuMzAzIDAuNDU0NTU3IDEuNDY5NjcgMC42MjEyMjNMNC41MDA5MiAzLjY1MjQ3QzUuMTQ2NzUgMy4xMzE2NCA1Ljg3NTkyIDIuODkyMDUgNi42ODg0MiAyLjkzMzcyQzcuNTAwOTIgMi45NzUzOSA4LjIwOTI1IDMuMjk4MyA4LjgxMzQyIDMuOTAyNDdMMTIuNjU3MiA3LjcxNDk3QzEyLjk0ODkgOC4wMjc0NyAxMy4xNzggOC4zNzEyMiAxMy4zNDQ3IDguNzQ2MjJDMTMuNTExNCA5LjEwMDM5IDEzLjYwNTEgOS40NzUzOSAxMy42MjU5IDkuODcxMjJDMTMuNjQ2OCAxMC4yNDYyIDEzLjU5NDcgMTAuNjIxMiAxMy40Njk3IDEwLjk5NjJDMTMuMzQ0NyAxMS4zNzEyIDEzLjE1NzIgMTEuNzE1IDEyLjkwNzIgMTIuMDI3NEwxNS44NDQ3IDE0Ljk5NjJaTTQuNzUwOTIgNS42NTI0N0M0LjQzODQyIDUuOTY0OTcgNC4yODIxNyA2LjMzOTk3IDQuMjgyMTcgNi43Nzc0N0M0LjI4MjE3IDcuMTk0MTQgNC40Mzg0MiA3LjU1ODcyIDQuNzUwOTIgNy44NzEyMkw2LjA5NDY3IDkuMjQ2MjJMOC45Njk2NyA2LjM3MTIyTDcuNjI1OTIgNC45OTYyMkM3LjMxMzQyIDQuNjgzNzIgNi45Mzg0MiA0LjUyNzQ3IDYuNTAwOTIgNC41Mjc0N0M2LjA4NDI1IDQuNTI3NDcgNS43MDkyNSA0LjY4MzcyIDUuMzc1OTIgNC45OTYyMkw0Ljc1MDkyIDUuNjUyNDdaTTguNTk0NjcgMTEuNzE1QzguOTA3MTcgMTIuMDI3NCA5LjI3MTc1IDEyLjE4MzcgOS42ODg0MiAxMi4xODM3QzEwLjEyNTkgMTIuMTgzNyAxMC41MDA5IDEyLjAyNzQgMTAuODEzNSAxMS43MTVMMTEuNDY5NyAxMS4wOUMxMS43ODIyIDEwLjc1NjYgMTEuOTM4NSAxMC4zODE2IDExLjkzODUgOS45NjQ5N0MxMS45Mzg1IDkuNTI3NDcgMTEuNzgyMiA5LjE1MjQ3IDExLjQ2OTcgOC44Mzk5N0wxMC4wOTQ3IDcuNDk2MjJMNy4yMTk2NyAxMC4zNzEyTDguNTk0NjcgMTEuNzE1WiIvPiYjeGE7PGRlZnM+JiN4YTs8bGluZWFyR3JhZGllbnQgZ3JhZGllbnRVbml0cz0idXNlclNwYWNlT25Vc2UiIHkyPSIxMC4xNjM5IiB4Mj0iMTYuMjc2NCIgeTE9IjEuODczMzgiIHgxPSIyLjE2MjUyIiBpZD0icGFpbnQwX2xpbmVhcl83MjNfMTEiPiYjeGE7PHN0b3Agc3RvcC1jb2xvcj0iIzIzOTVGRiIvPiYjeGE7PHN0b3Agc3RvcC1jb2xvcj0iIzAwNTdEMiIgb2Zmc2V0PSIxIi8+JiN4YTs8L2xpbmVhckdyYWRpZW50PiYjeGE7PC9kZWZzPiYjeGE7PC9zdmc+;" parent="OfAU59fTZWmp4iSplw8R-64" vertex="1">
          <mxGeometry x="17" width="31" height="31" as="geometry" />
        </mxCell>
        <mxCell id="OfAU59fTZWmp4iSplw8R-66" value="&lt;span style=&quot;font-family: Helvetica; font-style: normal; font-variant-ligatures: normal; font-variant-caps: normal; font-weight: 700; letter-spacing: normal; orphans: 2; text-indent: 0px; text-transform: none; widows: 2; word-spacing: 0px; -webkit-text-stroke-width: 0px; text-decoration-thickness: initial; text-decoration-style: initial; text-decoration-color: initial; float: none; display: inline !important;&quot;&gt;&lt;font style=&quot;font-size: 11px;&quot; color=&quot;#354a5f&quot;&gt;Cloud &lt;br&gt;Connector&lt;/font&gt;&lt;/span&gt;" style="text;whiteSpace=wrap;html=1;align=center;" parent="OfAU59fTZWmp4iSplw8R-64" vertex="1">
          <mxGeometry y="28.25" width="67" height="40" as="geometry" />
        </mxCell>
        <mxCell id="OfAU59fTZWmp4iSplw8R-75" style="edgeStyle=orthogonalEdgeStyle;rounded=0;orthogonalLoop=1;jettySize=auto;html=1;exitX=1;exitY=0.5;exitDx=0;exitDy=0;exitPerimeter=0;entryX=0;entryY=0.5;entryDx=0;entryDy=0;endArrow=blockThin;endFill=1;startArrow=blockThin;startFill=1;" parent="1" source="OfAU59fTZWmp4iSplw8R-69" target="OfAU59fTZWmp4iSplw8R-61" edge="1">
          <mxGeometry relative="1" as="geometry" />
        </mxCell>
        <mxCell id="OfAU59fTZWmp4iSplw8R-77" value="" style="group" parent="1" vertex="1" connectable="0">
          <mxGeometry x="45" y="325.00000000000057" width="50" height="78" as="geometry" />
        </mxCell>
        <mxCell id="OfAU59fTZWmp4iSplw8R-78" value="" style="shape=image;verticalLabelPosition=bottom;verticalAlign=top;imageAspect=0;aspect=fixed;image=data:image/svg+xml,PHN2ZyB4bWxucz0iaHR0cDovL3d3dy53My5vcmcvMjAwMC9zdmciIGZpbGw9Im5vbmUiIHZpZXdCb3g9IjAgMCAxNyAxNyIgaGVpZ2h0PSIxNyIgd2lkdGg9IjE3Ij4mI3hhOzxwYXRoIGZpbGw9InVybCgjcGFpbnQwX2xpbmVhcl8yXzI4Nzk4KSIgZD0iTTAuMjEzODY3IDguNTUyNzNDMC4yMTM4NjcgNy40Njk0IDAuNDIyMjAxIDYuNDU4OTggMC44Mzg4NjcgNS41MjE0OEMxLjI1NTUzIDQuNTYzMTUgMS44MTgwMyAzLjcyOTgyIDIuNTI2MzcgMy4wMjE0OEMzLjIzNDcgMi4zMTMxNSA0LjA2ODAzIDEuNzUwNjUgNS4wMjYzNyAxLjMzMzk4QzUuOTg0NyAwLjkxNzMxOCA3LjAwNTUzIDAuNzA4OTg0IDguMDg4ODcgMC43MDg5ODRDOS4xNzIyIDAuNzA4OTg0IDEwLjE4MjYgMC45MTczMTggMTEuMTIwMSAxLjMzMzk4QzEyLjA3ODUgMS43NTA2NSAxMi45MTE4IDIuMzEzMTUgMTMuNjIwMSAzLjAyMTQ4QzE0LjMyODUgMy43Mjk4MiAxNC44OTEgNC41NjMxNSAxNS4zMDc2IDUuNTIxNDhDMTUuNzI0MyA2LjQ1ODk4IDE1LjkzMjYgNy40Njk0IDE1LjkzMjYgOC41NTI3M0MxNS45MzI2IDkuNjM2MDcgMTUuNzI0MyAxMC42NTY5IDE1LjMwNzYgMTEuNjE1MkMxNC44OTEgMTIuNTczNiAxNC4zMjg1IDEzLjQwNjkgMTMuNjIwMSAxNC4xMTUyQzEyLjkxMTggMTQuODIzNiAxMi4wNzg1IDE1LjM4NjEgMTEuMTIwMSAxNS44MDI3QzEwLjE4MjYgMTYuMjE5NCA5LjE3MjIgMTYuNDI3NyA4LjA4ODg3IDE2LjQyNzdDNy4wMDU1MyAxNi40Mjc3IDUuOTg0NyAxNi4yMTk0IDUuMDI2MzcgMTUuODAyN0M0LjA2ODAzIDE1LjM4NjEgMy4yMzQ3IDE0LjgyMzYgMi41MjYzNyAxNC4xMTUyQzEuODE4MDMgMTMuNDA2OSAxLjI1NTUzIDEyLjU3MzYgMC44Mzg4NjcgMTEuNjE1MkMwLjQyMjIwMSAxMC42NTY5IDAuMjEzODY3IDkuNjM2MDcgMC4yMTM4NjcgOC41NTI3M1pNOS42NTEzNyAxMC45Mjc3QzEwLjMxOCAxMC45Mjc3IDEwLjkzMjYgMTEuMDg0IDExLjQ5NTEgMTEuMzk2NUMxMi4wNTc2IDExLjY4ODIgMTIuNTE2IDEyLjA5NDQgMTIuODcwMSAxMi42MTUyQzEzLjM0OTMgMTIuMDczNiAxMy43MTM5IDExLjQ1OSAxMy45NjM5IDEwLjc3MTVDMTQuMjM0NyAxMC4wODQgMTQuMzcwMSA5LjM0NDQgMTQuMzcwMSA4LjU1MjczQzE0LjM3MDEgNy42Nzc3MyAxNC4yMDM1IDYuODY1MjMgMTMuODcwMSA2LjExNTIzQzEzLjUzNjggNS4zNDQ0IDEzLjA4ODkgNC42Nzc3MyAxMi41MjY0IDQuMTE1MjNDMTEuOTYzOSAzLjU1MjczIDExLjI5NzIgMy4xMDQ4MiAxMC41MjY0IDIuNzcxNDhDOS43NzYzNyAyLjQzODE1IDguOTYzODcgMi4yNzE0OCA4LjA4ODg3IDIuMjcxNDhDNy4yMTM4NyAyLjI3MTQ4IDYuMzkwOTUgMi40MzgxNSA1LjYyMDEyIDIuNzcxNDhDNC44NzAxMiAzLjEwNDgyIDQuMjAzNDUgMy41NTI3MyAzLjYyMDEyIDQuMTE1MjNDMy4wNTc2MiA0LjY3NzczIDIuNjA5NyA1LjM0NDQgMi4yNzYzNyA2LjExNTIzQzEuOTQzMDMgNi44NjUyMyAxLjc3NjM3IDcuNjc3NzMgMS43NzYzNyA4LjU1MjczQzEuNzc2MzcgOS4zNDQ0IDEuOTAxMzcgMTAuMDg0IDIuMTUxMzcgMTAuNzcxNUMyLjQyMjIgMTEuNDU5IDIuNzk3MiAxMi4wNzM2IDMuMjc2MzcgMTIuNjE1MkMzLjYzMDUzIDEyLjA5NDQgNC4wODg4NyAxMS42ODgyIDQuNjUxMzcgMTEuMzk2NUM1LjIxMzg3IDExLjA4NCA1LjgyODQ1IDEwLjkyNzcgNi40OTUxMiAxMC45Mjc3SDkuNjUxMzdaTTExLjIxMzkgNi45OTAyM0MxMS4yMTM5IDcuNDI3NzMgMTEuMTMwNSA3Ljg0NDQgMTAuOTYzOSA4LjI0MDIzQzEwLjc5NzIgOC42MTUyMyAxMC41NjggOC45NDg1NyAxMC4yNzY0IDkuMjQwMjNDMTAuMDA1NSA5LjUxMTA3IDkuNjgyNjIgOS43Mjk4MiA5LjMwNzYyIDkuODk2NDhDOC45MzI2MiAxMC4wNjMyIDguNTI2MzcgMTAuMTQ2NSA4LjA4ODg3IDEwLjE0NjVDNy42NTEzNyAxMC4xNDY1IDcuMjM0NyAxMC4wNjMyIDYuODM4ODcgOS44OTY0OEM2LjQ2Mzg3IDkuNzI5ODIgNi4xMzA1MyA5LjUxMTA3IDUuODM4ODcgOS4yNDAyM0M1LjU2ODAzIDguOTQ4NTcgNS4zNDkyOCA4LjYxNTIzIDUuMTgyNjIgOC4yNDAyM0M1LjAxNTk1IDcuODQ0NCA0LjkzMjYyIDcuNDI3NzMgNC45MzI2MiA2Ljk5MDIzQzQuOTMyNjIgNi41NTI3MyA1LjAxNTk1IDYuMTQ2NDggNS4xODI2MiA1Ljc3MTQ4QzUuMzQ5MjggNS4zOTY0OCA1LjU2ODAzIDUuMDYzMTUgNS44Mzg4NyA0Ljc3MTQ4QzYuMTMwNTMgNC40Nzk4MiA2LjQ2Mzg3IDQuMjUwNjUgNi44Mzg4NyA0LjA4Mzk4QzcuMjM0NyAzLjkxNzMyIDcuNjUxMzcgMy44MzM5OCA4LjA4ODg3IDMuODMzOThDOC41MjYzNyAzLjgzMzk4IDguOTMyNjIgMy45MTczMiA5LjMwNzYyIDQuMDgzOThDOS42ODI2MiA0LjI1MDY1IDEwLjAwNTUgNC40Nzk4MiAxMC4yNzY0IDQuNzcxNDhDMTAuNTY4IDUuMDYzMTUgMTAuNzk3MiA1LjM5NjQ4IDEwLjk2MzkgNS43NzE0OEMxMS4xMzA1IDYuMTQ2NDggMTEuMjEzOSA2LjU1MjczIDExLjIxMzkgNi45OTAyM1pNOS42NTEzNyA2Ljk5MDIzQzkuNjUxMzcgNi41NTI3MyA5LjQ5NTEyIDYuMTg4MTUgOS4xODI2MiA1Ljg5NjQ4QzguODcwMTIgNS41ODM5OCA4LjUwNTUzIDUuNDI3NzMgOC4wODg4NyA1LjQyNzczQzcuNjUxMzcgNS40Mjc3MyA3LjI3NjM3IDUuNTgzOTggNi45NjM4NyA1Ljg5NjQ4QzYuNjUxMzcgNi4xODgxNSA2LjQ5NTEyIDYuNTUyNzMgNi40OTUxMiA2Ljk5MDIzQzYuNDk1MTIgNy40Mjc3MyA2LjY1MTM3IDcuODAyNzMgNi45NjM4NyA4LjExNTIzQzcuMjc2MzcgOC40MDY5IDcuNjUxMzcgOC41NTI3MyA4LjA4ODg3IDguNTUyNzNDOC41MDU1MyA4LjU1MjczIDguODcwMTIgOC40MDY5IDkuMTgyNjIgOC4xMTUyM0M5LjQ5NTEyIDcuODAyNzMgOS42NTEzNyA3LjQyNzczIDkuNjUxMzcgNi45OTAyM1pNNC40NjM4NyAxMy43MDlDNC45NjM4NyAxNC4wNjMyIDUuNTE1OTUgMTQuMzQ0NCA2LjEyMDEyIDE0LjU1MjdDNi43NDUxMiAxNC43NjExIDcuNDAxMzcgMTQuODY1MiA4LjA4ODg3IDE0Ljg2NTJDOC43NTU1MyAxNC44NjUyIDkuMzkwOTUgMTQuNzYxMSA5Ljk5NTEyIDE0LjU1MjdDMTAuNjIwMSAxNC4zNDQ0IDExLjE4MjYgMTQuMDYzMiAxMS42ODI2IDEzLjcwOUMxMS40NzQzIDEzLjMzNCAxMS4xODI2IDEzLjA0MjMgMTAuODA3NiAxMi44MzRDMTAuNDUzNSAxMi42MDQ4IDEwLjA2OCAxMi40OTAyIDkuNjUxMzcgMTIuNDkwMkg2LjQ5NTEyQzYuMDc4NDUgMTIuNDkwMiA1LjY4MjYyIDEyLjYwNDggNS4zMDc2MiAxMi44MzRDNC45NTM0NSAxMy4wNDIzIDQuNjcyMiAxMy4zMzQgNC40NjM4NyAxMy43MDlaIi8+JiN4YTs8ZGVmcz4mI3hhOzxsaW5lYXJHcmFkaWVudCBncmFkaWVudFVuaXRzPSJ1c2VyU3BhY2VPblVzZSIgeTI9IjE2LjQyNzciIHgyPSI4LjA3MzI0IiB5MT0iMC43MDg5ODQiIHgxPSI4LjA3MzI0IiBpZD0icGFpbnQwX2xpbmVhcl8yXzI4Nzk4Ij4mI3hhOzxzdG9wIHN0b3AtY29sb3I9IiM1QjczOEIiLz4mI3hhOzxzdG9wIHN0b3AtY29sb3I9IiMyMjM1NDgiIG9mZnNldD0iMSIvPiYjeGE7PC9saW5lYXJHcmFkaWVudD4mI3hhOzwvZGVmcz4mI3hhOzwvc3ZnPg==;strokeWidth=1.5;container=0;" parent="OfAU59fTZWmp4iSplw8R-77" vertex="1">
          <mxGeometry x="2" y="-3" width="48" height="48" as="geometry" />
        </mxCell>
        <mxCell id="OfAU59fTZWmp4iSplw8R-79" value="&lt;font color=&quot;#1d2d3e&quot; size=&quot;1&quot; face=&quot;arial&quot; style=&quot;&quot;&gt;&lt;b style=&quot;font-size: 14px;&quot;&gt;User&lt;/b&gt;&lt;/font&gt;" style="text;html=1;align=center;verticalAlign=middle;resizable=0;points=[];autosize=1;strokeColor=none;fillColor=none;fontSize=12;fontColor=default;fontFamily=Helvetica;container=0;" parent="OfAU59fTZWmp4iSplw8R-77" vertex="1">
          <mxGeometry y="47" width="50" height="30" as="geometry" />
        </mxCell>
        <mxCell id="OfAU59fTZWmp4iSplw8R-80" value="" style="group" parent="1" vertex="1" connectable="0">
          <mxGeometry x="50" y="441.00000000000057" width="50" height="78" as="geometry" />
        </mxCell>
        <mxCell id="OfAU59fTZWmp4iSplw8R-81" value="" style="shape=image;verticalLabelPosition=bottom;verticalAlign=top;imageAspect=0;aspect=fixed;image=data:image/svg+xml,PHN2ZyB4bWxucz0iaHR0cDovL3d3dy53My5vcmcvMjAwMC9zdmciIGZpbGw9Im5vbmUiIHZpZXdCb3g9IjAgMCAxNyAxNyIgaGVpZ2h0PSIxNyIgd2lkdGg9IjE3Ij4mI3hhOzxwYXRoIGZpbGw9InVybCgjcGFpbnQwX2xpbmVhcl8yXzI4Nzk4KSIgZD0iTTAuMjEzODY3IDguNTUyNzNDMC4yMTM4NjcgNy40Njk0IDAuNDIyMjAxIDYuNDU4OTggMC44Mzg4NjcgNS41MjE0OEMxLjI1NTUzIDQuNTYzMTUgMS44MTgwMyAzLjcyOTgyIDIuNTI2MzcgMy4wMjE0OEMzLjIzNDcgMi4zMTMxNSA0LjA2ODAzIDEuNzUwNjUgNS4wMjYzNyAxLjMzMzk4QzUuOTg0NyAwLjkxNzMxOCA3LjAwNTUzIDAuNzA4OTg0IDguMDg4ODcgMC43MDg5ODRDOS4xNzIyIDAuNzA4OTg0IDEwLjE4MjYgMC45MTczMTggMTEuMTIwMSAxLjMzMzk4QzEyLjA3ODUgMS43NTA2NSAxMi45MTE4IDIuMzEzMTUgMTMuNjIwMSAzLjAyMTQ4QzE0LjMyODUgMy43Mjk4MiAxNC44OTEgNC41NjMxNSAxNS4zMDc2IDUuNTIxNDhDMTUuNzI0MyA2LjQ1ODk4IDE1LjkzMjYgNy40Njk0IDE1LjkzMjYgOC41NTI3M0MxNS45MzI2IDkuNjM2MDcgMTUuNzI0MyAxMC42NTY5IDE1LjMwNzYgMTEuNjE1MkMxNC44OTEgMTIuNTczNiAxNC4zMjg1IDEzLjQwNjkgMTMuNjIwMSAxNC4xMTUyQzEyLjkxMTggMTQuODIzNiAxMi4wNzg1IDE1LjM4NjEgMTEuMTIwMSAxNS44MDI3QzEwLjE4MjYgMTYuMjE5NCA5LjE3MjIgMTYuNDI3NyA4LjA4ODg3IDE2LjQyNzdDNy4wMDU1MyAxNi40Mjc3IDUuOTg0NyAxNi4yMTk0IDUuMDI2MzcgMTUuODAyN0M0LjA2ODAzIDE1LjM4NjEgMy4yMzQ3IDE0LjgyMzYgMi41MjYzNyAxNC4xMTUyQzEuODE4MDMgMTMuNDA2OSAxLjI1NTUzIDEyLjU3MzYgMC44Mzg4NjcgMTEuNjE1MkMwLjQyMjIwMSAxMC42NTY5IDAuMjEzODY3IDkuNjM2MDcgMC4yMTM4NjcgOC41NTI3M1pNOS42NTEzNyAxMC45Mjc3QzEwLjMxOCAxMC45Mjc3IDEwLjkzMjYgMTEuMDg0IDExLjQ5NTEgMTEuMzk2NUMxMi4wNTc2IDExLjY4ODIgMTIuNTE2IDEyLjA5NDQgMTIuODcwMSAxMi42MTUyQzEzLjM0OTMgMTIuMDczNiAxMy43MTM5IDExLjQ1OSAxMy45NjM5IDEwLjc3MTVDMTQuMjM0NyAxMC4wODQgMTQuMzcwMSA5LjM0NDQgMTQuMzcwMSA4LjU1MjczQzE0LjM3MDEgNy42Nzc3MyAxNC4yMDM1IDYuODY1MjMgMTMuODcwMSA2LjExNTIzQzEzLjUzNjggNS4zNDQ0IDEzLjA4ODkgNC42Nzc3MyAxMi41MjY0IDQuMTE1MjNDMTEuOTYzOSAzLjU1MjczIDExLjI5NzIgMy4xMDQ4MiAxMC41MjY0IDIuNzcxNDhDOS43NzYzNyAyLjQzODE1IDguOTYzODcgMi4yNzE0OCA4LjA4ODg3IDIuMjcxNDhDNy4yMTM4NyAyLjI3MTQ4IDYuMzkwOTUgMi40MzgxNSA1LjYyMDEyIDIuNzcxNDhDNC44NzAxMiAzLjEwNDgyIDQuMjAzNDUgMy41NTI3MyAzLjYyMDEyIDQuMTE1MjNDMy4wNTc2MiA0LjY3NzczIDIuNjA5NyA1LjM0NDQgMi4yNzYzNyA2LjExNTIzQzEuOTQzMDMgNi44NjUyMyAxLjc3NjM3IDcuNjc3NzMgMS43NzYzNyA4LjU1MjczQzEuNzc2MzcgOS4zNDQ0IDEuOTAxMzcgMTAuMDg0IDIuMTUxMzcgMTAuNzcxNUMyLjQyMjIgMTEuNDU5IDIuNzk3MiAxMi4wNzM2IDMuMjc2MzcgMTIuNjE1MkMzLjYzMDUzIDEyLjA5NDQgNC4wODg4NyAxMS42ODgyIDQuNjUxMzcgMTEuMzk2NUM1LjIxMzg3IDExLjA4NCA1LjgyODQ1IDEwLjkyNzcgNi40OTUxMiAxMC45Mjc3SDkuNjUxMzdaTTExLjIxMzkgNi45OTAyM0MxMS4yMTM5IDcuNDI3NzMgMTEuMTMwNSA3Ljg0NDQgMTAuOTYzOSA4LjI0MDIzQzEwLjc5NzIgOC42MTUyMyAxMC41NjggOC45NDg1NyAxMC4yNzY0IDkuMjQwMjNDMTAuMDA1NSA5LjUxMTA3IDkuNjgyNjIgOS43Mjk4MiA5LjMwNzYyIDkuODk2NDhDOC45MzI2MiAxMC4wNjMyIDguNTI2MzcgMTAuMTQ2NSA4LjA4ODg3IDEwLjE0NjVDNy42NTEzNyAxMC4xNDY1IDcuMjM0NyAxMC4wNjMyIDYuODM4ODcgOS44OTY0OEM2LjQ2Mzg3IDkuNzI5ODIgNi4xMzA1MyA5LjUxMTA3IDUuODM4ODcgOS4yNDAyM0M1LjU2ODAzIDguOTQ4NTcgNS4zNDkyOCA4LjYxNTIzIDUuMTgyNjIgOC4yNDAyM0M1LjAxNTk1IDcuODQ0NCA0LjkzMjYyIDcuNDI3NzMgNC45MzI2MiA2Ljk5MDIzQzQuOTMyNjIgNi41NTI3MyA1LjAxNTk1IDYuMTQ2NDggNS4xODI2MiA1Ljc3MTQ4QzUuMzQ5MjggNS4zOTY0OCA1LjU2ODAzIDUuMDYzMTUgNS44Mzg4NyA0Ljc3MTQ4QzYuMTMwNTMgNC40Nzk4MiA2LjQ2Mzg3IDQuMjUwNjUgNi44Mzg4NyA0LjA4Mzk4QzcuMjM0NyAzLjkxNzMyIDcuNjUxMzcgMy44MzM5OCA4LjA4ODg3IDMuODMzOThDOC41MjYzNyAzLjgzMzk4IDguOTMyNjIgMy45MTczMiA5LjMwNzYyIDQuMDgzOThDOS42ODI2MiA0LjI1MDY1IDEwLjAwNTUgNC40Nzk4MiAxMC4yNzY0IDQuNzcxNDhDMTAuNTY4IDUuMDYzMTUgMTAuNzk3MiA1LjM5NjQ4IDEwLjk2MzkgNS43NzE0OEMxMS4xMzA1IDYuMTQ2NDggMTEuMjEzOSA2LjU1MjczIDExLjIxMzkgNi45OTAyM1pNOS42NTEzNyA2Ljk5MDIzQzkuNjUxMzcgNi41NTI3MyA5LjQ5NTEyIDYuMTg4MTUgOS4xODI2MiA1Ljg5NjQ4QzguODcwMTIgNS41ODM5OCA4LjUwNTUzIDUuNDI3NzMgOC4wODg4NyA1LjQyNzczQzcuNjUxMzcgNS40Mjc3MyA3LjI3NjM3IDUuNTgzOTggNi45NjM4NyA1Ljg5NjQ4QzYuNjUxMzcgNi4xODgxNSA2LjQ5NTEyIDYuNTUyNzMgNi40OTUxMiA2Ljk5MDIzQzYuNDk1MTIgNy40Mjc3MyA2LjY1MTM3IDcuODAyNzMgNi45NjM4NyA4LjExNTIzQzcuMjc2MzcgOC40MDY5IDcuNjUxMzcgOC41NTI3MyA4LjA4ODg3IDguNTUyNzNDOC41MDU1MyA4LjU1MjczIDguODcwMTIgOC40MDY5IDkuMTgyNjIgOC4xMTUyM0M5LjQ5NTEyIDcuODAyNzMgOS42NTEzNyA3LjQyNzczIDkuNjUxMzcgNi45OTAyM1pNNC40NjM4NyAxMy43MDlDNC45NjM4NyAxNC4wNjMyIDUuNTE1OTUgMTQuMzQ0NCA2LjEyMDEyIDE0LjU1MjdDNi43NDUxMiAxNC43NjExIDcuNDAxMzcgMTQuODY1MiA4LjA4ODg3IDE0Ljg2NTJDOC43NTU1MyAxNC44NjUyIDkuMzkwOTUgMTQuNzYxMSA5Ljk5NTEyIDE0LjU1MjdDMTAuNjIwMSAxNC4zNDQ0IDExLjE4MjYgMTQuMDYzMiAxMS42ODI2IDEzLjcwOUMxMS40NzQzIDEzLjMzNCAxMS4xODI2IDEzLjA0MjMgMTAuODA3NiAxMi44MzRDMTAuNDUzNSAxMi42MDQ4IDEwLjA2OCAxMi40OTAyIDkuNjUxMzcgMTIuNDkwMkg2LjQ5NTEyQzYuMDc4NDUgMTIuNDkwMiA1LjY4MjYyIDEyLjYwNDggNS4zMDc2MiAxMi44MzRDNC45NTM0NSAxMy4wNDIzIDQuNjcyMiAxMy4zMzQgNC40NjM4NyAxMy43MDlaIi8+JiN4YTs8ZGVmcz4mI3hhOzxsaW5lYXJHcmFkaWVudCBncmFkaWVudFVuaXRzPSJ1c2VyU3BhY2VPblVzZSIgeTI9IjE2LjQyNzciIHgyPSI4LjA3MzI0IiB5MT0iMC43MDg5ODQiIHgxPSI4LjA3MzI0IiBpZD0icGFpbnQwX2xpbmVhcl8yXzI4Nzk4Ij4mI3hhOzxzdG9wIHN0b3AtY29sb3I9IiM1QjczOEIiLz4mI3hhOzxzdG9wIHN0b3AtY29sb3I9IiMyMjM1NDgiIG9mZnNldD0iMSIvPiYjeGE7PC9saW5lYXJHcmFkaWVudD4mI3hhOzwvZGVmcz4mI3hhOzwvc3ZnPg==;strokeWidth=1.5;container=0;" parent="OfAU59fTZWmp4iSplw8R-80" vertex="1">
          <mxGeometry x="2" width="48" height="48" as="geometry" />
        </mxCell>
        <mxCell id="OfAU59fTZWmp4iSplw8R-82" value="&lt;font color=&quot;#1d2d3e&quot; size=&quot;1&quot; face=&quot;arial&quot; style=&quot;&quot;&gt;&lt;b style=&quot;font-size: 14px;&quot;&gt;EKS&lt;/b&gt;&lt;/font&gt;" style="text;html=1;align=center;verticalAlign=middle;resizable=0;points=[];autosize=1;strokeColor=none;fillColor=none;fontSize=12;fontColor=default;fontFamily=Helvetica;container=0;" parent="OfAU59fTZWmp4iSplw8R-80" vertex="1">
          <mxGeometry y="48" width="50" height="30" as="geometry" />
        </mxCell>
        <mxCell id="OfAU59fTZWmp4iSplw8R-87" style="rounded=0;orthogonalLoop=1;jettySize=auto;html=1;endArrow=block;endFill=1;strokeColor=#354c5f;strokeWidth=1.5;" parent="1" source="OfAU59fTZWmp4iSplw8R-89" target="OfAU59fTZWmp4iSplw8R-84" edge="1">
          <mxGeometry relative="1" as="geometry">
            <mxPoint x="334.1333333333332" y="359" as="targetPoint" />
          </mxGeometry>
        </mxCell>
        <mxCell id="OfAU59fTZWmp4iSplw8R-88" style="rounded=0;orthogonalLoop=1;jettySize=auto;html=1;exitX=0;exitY=0.5;exitDx=0;exitDy=0;endArrow=blockThin;endFill=1;strokeColor=#354c5f;strokeWidth=1.5;entryX=1;entryY=0.5;entryDx=0;entryDy=0;" parent="1" target="OfAU59fTZWmp4iSplw8R-81" edge="1" source="OfAU59fTZWmp4iSplw8R-89">
          <mxGeometry relative="1" as="geometry">
            <mxPoint x="100" y="383.00000000000057" as="targetPoint" />
            <mxPoint x="171.2700000000002" y="394" as="sourcePoint" />
          </mxGeometry>
        </mxCell>
        <mxCell id="OfAU59fTZWmp4iSplw8R-89" value="&lt;font size=&quot;1&quot; color=&quot;#f5f6f7&quot;&gt;&lt;b style=&quot;&quot;&gt;https&lt;/b&gt;&lt;/font&gt;" style="rounded=1;whiteSpace=wrap;html=1;arcSize=50;strokeColor=none;fillColor=#354b5f;strokeWidth=1.5;" parent="1" vertex="1">
          <mxGeometry x="135.27000000000027" y="457" width="74.16" height="16" as="geometry" />
        </mxCell>
        <mxCell id="OfAU59fTZWmp4iSplw8R-96" style="rounded=0;orthogonalLoop=1;jettySize=auto;html=1;exitX=0;exitY=0.5;exitDx=0;exitDy=0;endArrow=blockThin;endFill=1;strokeColor=#354c5f;strokeWidth=1.5;entryX=1;entryY=0.5;entryDx=0;entryDy=0;startArrow=none;startFill=0;" parent="1" source="OfAU59fTZWmp4iSplw8R-97" target="OfAU59fTZWmp4iSplw8R-78" edge="1">
          <mxGeometry relative="1" as="geometry">
            <mxPoint x="102" y="302.00000000000057" as="targetPoint" />
            <mxPoint x="116.84000000000026" y="297" as="sourcePoint" />
          </mxGeometry>
        </mxCell>
        <mxCell id="_ywG5binYb0rLTDRe6u4-1" value="" style="shape=image;verticalLabelPosition=bottom;verticalAlign=top;imageAspect=0;aspect=fixed;image=data:image/svg+xml,PHN2ZyB4bWxucz0iaHR0cDovL3d3dy53My5vcmcvMjAwMC9zdmciIGZpbGw9Im5vbmUiIHZpZXdCb3g9IjAgMCAxNyAxNyIgaGVpZ2h0PSIxNyIgd2lkdGg9IjE3Ij4mI3hhOzxwYXRoIGZpbGw9InVybCgjcGFpbnQwX2xpbmVhcl8yXzI4Nzk5KSIgZD0iTTE0LjUyNjQgMi4xMTUyM0MxNC43NzY0IDIuMzIzNTcgMTQuOTc0MyAyLjU1MjczIDE1LjEyMDEgMi44MDI3M0MxNS4yNjYgMy4wMzE5IDE1LjMzODkgMy4zMTMxNSAxNS4zMzg5IDMuNjQ2NDhWMTMuMzM0QzE1LjMzODkgMTMuNjQ2NSAxNS4yNTU1IDEzLjkyNzcgMTUuMDg4OSAxNC4xNzc3QzE0LjkyMjIgMTQuNDI3NyAxNC43MzQ3IDE0LjY1NjkgMTQuNTI2NCAxNC44NjUyQzE0LjMzODkgMTUuMDMxOSAxNC4wOTkzIDE1LjE4ODIgMTMuODA3NiAxNS4zMzRDMTMuNTM2OCAxNS40Nzk4IDEzLjI0NTEgMTUuNjE1MiAxMi45MzI2IDE1Ljc0MDJDMTIuMjg2OCAxNS45OTAyIDExLjU0NzIgMTYuMTY3MyAxMC43MTM5IDE2LjI3MTVDOS45MDEzNyAxNi4zOTY1IDkuMDI2MzcgMTYuNDU5IDguMDg4ODcgMTYuNDU5QzcuMTUxMzcgMTYuNDU5IDYuMjY1OTUgMTYuMzk2NSA1LjQzMjYyIDE2LjI3MTVDNC42MjAxMiAxNi4xNjczIDMuODkwOTUgMTUuOTkwMiAzLjI0NTEyIDE1Ljc0MDJDMi45NTM0NSAxNS42MzYxIDIuNjYxNzggMTUuNTIxNSAyLjM3MDEyIDE1LjM5NjVDMi4wOTkyOCAxNS4yNTA3IDEuODU5NyAxNS4wNzM2IDEuNjUxMzcgMTQuODY1MkMxLjEwOTcgMTQuNDI3NyAwLjgzODg2NyAxMy45MTczIDAuODM4ODY3IDEzLjMzNFYzLjY0NjQ4QzAuODM4ODY3IDMuMzEzMTUgMC45MjIyMDEgMy4wMzE5IDEuMDg4ODcgMi44MDI3M0MxLjI1NTUzIDIuNTUyNzMgMS40NDMwMyAyLjMyMzU3IDEuNjUxMzcgMi4xMTUyM0MyLjA2ODAzIDEuNzYxMDcgMi41OTkyOCAxLjQ1ODk4IDMuMjQ1MTIgMS4yMDg5OEMzLjg5MDk1IDAuOTc5ODE4IDQuNjIwMTIgMC44MDI3MzQgNS40MzI2MiAwLjY3NzczNEM2LjI2NTk1IDAuNTUyNzM0IDcuMTUxMzcgMC40OTAyMzQgOC4wODg4NyAwLjQ5MDIzNEM5LjAyNjM3IDAuNDkwMjM0IDkuOTAxMzcgMC41NTI3MzQgMTAuNzEzOSAwLjY3NzczNEMxMS41NDcyIDAuODAyNzM0IDEyLjI4NjggMC45Nzk4MTggMTIuOTMyNiAxLjIwODk4QzEzLjI0NTEgMS4zMzM5OCAxMy41MzY4IDEuNDY5NCAxMy44MDc2IDEuNjE1MjNDMTQuMDk5MyAxLjc0MDIzIDE0LjMzODkgMS45MDY5IDE0LjUyNjQgMi4xMTUyM1pNMTMuNzQ1MSA4Ljk1ODk4QzEyLjc2NiA5LjI5MjMyIDExLjgzODkgOS41NTI3MyAxMC45NjM5IDkuNzQwMjNDMTAuMTA5NyA5LjkyNzczIDkuMTUxMzcgMTAuMDIxNSA4LjA4ODg3IDEwLjAyMTVDNy4xNTEzNyAxMC4wMjE1IDYuMjY1OTUgOS45NTg5OCA1LjQzMjYyIDkuODMzOThDNC42MjAxMiA5LjcwODk4IDMuODkwOTUgOS41MzE5IDMuMjQ1MTIgOS4zMDI3M0MyLjkxMTc4IDkuMTk4NTcgMi42NDA5NSA5LjA4Mzk4IDIuNDMyNjIgOC45NTg5OFYxMC4wODRDMi40NTM0NSAxMC4xMjU3IDIuNDc0MjggMTAuMTY3MyAyLjQ5NTEyIDEwLjIwOUMyLjUxNTk1IDEwLjI1MDcgMi41Nzg0NSAxMC4zMjM2IDIuNjgyNjIgMTAuNDI3N0MyLjk1MzQ1IDEwLjY3NzcgMy4zMTgwMyAxMC44ODYxIDMuNzc2MzcgMTEuMDUyN0M0LjI1NTUzIDExLjIxOTQgNC43NTU1MyAxMS4zNTQ4IDUuMjc2MzcgMTEuNDU5QzUuNzk3MiAxMS41NDIzIDYuMzA3NjIgMTEuNjA0OCA2LjgwNzYyIDExLjY0NjVDNy4zMjg0NSAxMS42ODgyIDcuNzU1NTMgMTEuNzA5IDguMDg4ODcgMTEuNzA5QzkuMDQ3MiAxMS43MDkgOS45ODQ3IDExLjYzNjEgMTAuOTAxNCAxMS40OTAyQzExLjgxOCAxMS4zMjM2IDEyLjY4MjYgMTAuOTY5NCAxMy40OTUxIDEwLjQyNzdDMTMuNjIwMSAxMC4zNDQ0IDEzLjY5MyAxMC4yNzE1IDEzLjcxMzkgMTAuMjA5QzEzLjczNDcgMTAuMTY3MyAxMy43NDUxIDEwLjEyNTcgMTMuNzQ1MSAxMC4wODRWOC45NTg5OFpNMTMuNzQ1MSA1Ljc0MDIzQzEyLjc2NiA2LjA3MzU3IDExLjgzODkgNi4zMzM5OCAxMC45NjM5IDYuNTIxNDhDMTAuMTA5NyA2LjcwODk4IDkuMTUxMzcgNi44MDI3MyA4LjA4ODg3IDYuODAyNzNDNy43NzYzNyA2LjgwMjczIDcuMzU5NyA2Ljc4MTkgNi44Mzg4NyA2Ljc0MDIzQzYuMzE4MDMgNi42OTg1NyA1Ljc3NjM3IDYuNjM2MDcgNS4yMTM4NyA2LjU1MjczQzQuNjUxMzcgNi40Njk0IDQuMTIwMTIgNi4zNjUyMyAzLjYyMDEyIDYuMjQwMjNDMy4xMjAxMiA2LjA5NDQgMi43MjQyOCA1LjkyNzczIDIuNDMyNjIgNS43NDAyM1Y2Ljg2NTIzQzIuNDMyNjIgNi44ODYwNyAyLjQ0MzAzIDYuOTE3MzIgMi40NjM4NyA2Ljk1ODk4QzIuNTA1NTMgNi45Nzk4MiAyLjUzNjc4IDcuMDExMDcgMi41NTc2MiA3LjA1MjczQzIuNTk5MjggNy4wOTQ0IDIuNjQwOTUgNy4xMzYwNyAyLjY4MjYyIDcuMTc3NzNDMi45NTM0NSA3LjQ0ODU3IDMuMzE4MDMgNy42NjczMiAzLjc3NjM3IDcuODMzOThDNC4yNTU1MyA4LjAwMDY1IDQuNzU1NTMgOC4xMzYwNyA1LjI3NjM3IDguMjQwMjNDNS43OTcyIDguMzIzNTcgNi4zMDc2MiA4LjM4NjA3IDYuODA3NjIgOC40Mjc3M0M3LjMyODQ1IDguNDY5NCA3Ljc1NTUzIDguNDkwMjMgOC4wODg4NyA4LjQ5MDIzQzkuMDQ3MiA4LjQ5MDIzIDkuOTg0NyA4LjQwNjkgMTAuOTAxNCA4LjI0MDIzQzExLjgxOCA4LjA3MzU3IDEyLjY4MjYgNy43MTk0IDEzLjQ5NTEgNy4xNzc3M0MxMy42MjAxIDcuMDk0NCAxMy42OTMgNy4wMjE0OCAxMy43MTM5IDYuOTU4OThDMTMuNzM0NyA2LjkxNzMyIDEzLjc0NTEgNi44ODYwNyAxMy43NDUxIDYuODY1MjNWNS43NDAyM1pNMi42ODI2MiAzLjMzMzk4QzIuNTc4NDUgMy4zNzU2NSAyLjUwNTUzIDMuNDQ4NTcgMi40NjM4NyAzLjU1MjczQzIuNDQzMDMgMy41OTQ0IDIuNDMyNjIgMy42MjU2NSAyLjQzMjYyIDMuNjQ2NDhDMi40MzI2MiAzLjY2NzMyIDIuNDQzMDMgMy42OTg1NyAyLjQ2Mzg3IDMuNzQwMjNDMi41MDU1MyAzLjc2MTA3IDIuNTM2NzggMy43OTIzMiAyLjU1NzYyIDMuODMzOThDMi41OTkyOCAzLjg3NTY1IDIuNjQwOTUgMy45MTczMiAyLjY4MjYyIDMuOTU4OThDMi45NTM0NSA0LjIyOTgyIDMuMzE4MDMgNC40NDg1NyAzLjc3NjM3IDQuNjE1MjNDNC4yNTU1MyA0Ljc4MTkgNC43NTU1MyA0LjkxNzMyIDUuMjc2MzcgNS4wMjE0OEM1Ljc5NzIgNS4xMDQ4MiA2LjMwNzYyIDUuMTY3MzIgNi44MDc2MiA1LjIwODk4QzcuMzI4NDUgNS4yNTA2NSA3Ljc1NTUzIDUuMjcxNDggOC4wODg4NyA1LjI3MTQ4QzguOTQzMDMgNS4yNzE0OCA5LjczNDcgNS4yMTk0IDEwLjQ2MzkgNS4xMTUyM0MxMS4xOTMgNC45OTAyMyAxMS44Mjg1IDQuODIzNTcgMTIuMzcwMSA0LjYxNTIzTDEzLjQ5NTEgMy45NTg5OEMxMy42MjAxIDMuODc1NjUgMTMuNjkzIDMuODAyNzMgMTMuNzEzOSAzLjc0MDIzQzEzLjczNDcgMy42OTg1NyAxMy43NDUxIDMuNjY3MzIgMTMuNzQ1MSAzLjY0NjQ4QzEzLjcyNDMgMy42MjU2NSAxMy43MDM1IDMuNTk0NCAxMy42ODI2IDMuNTUyNzNDMTMuNjYxOCAzLjUxMTA3IDEzLjU5OTMgMy40MzgxNSAxMy40OTUxIDMuMzMzOThDMTMuMjI0MyAzLjA2MzE1IDEyLjg0OTMgMi44NDQ0IDEyLjM3MDEgMi42Nzc3M0MxMS45MTE4IDIuNTExMDcgMTEuNDIyMiAyLjM4NjA3IDEwLjkwMTQgMi4zMDI3M0MxMC4zODA1IDIuMTk4NTcgOS44NTk3IDIuMTI1NjUgOS4zMzg4NyAyLjA4Mzk4QzguODM4ODcgMi4wNDIzMiA4LjQyMjIgMi4wMjE0OCA4LjA4ODg3IDIuMDIxNDhDNy4xMzA1MyAyLjAyMTQ4IDYuMTkzMDMgMi4xMDQ4MiA1LjI3NjM3IDIuMjcxNDhDNC4zNTk3IDIuNDM4MTUgMy40OTUxMiAyLjc5MjMyIDIuNjgyNjIgMy4zMzM5OFpNMTMuNDk1MSAxMy42NDY1QzEzLjYyMDEgMTMuNTYzMiAxMy42OTMgMTMuNDkwMiAxMy43MTM5IDEzLjQyNzdDMTMuNzM0NyAxMy4zODYxIDEzLjc0NTEgMTMuMzU0OCAxMy43NDUxIDEzLjMzNFYxMi4xNzc3QzEzLjcyNDMgMTIuMTk4NiAxMy43MDM1IDEyLjIwOSAxMy42ODI2IDEyLjIwOUMxMy42NjE4IDEyLjIwOSAxMy42NTE0IDEyLjIxOTQgMTMuNjUxNCAxMi4yNDAySDEzLjU4ODlDMTMuNTQ3MiAxMi4yNjExIDEzLjUyNjQgMTIuMjcxNSAxMy41MjY0IDEyLjI3MTVDMTMuNTA1NSAxMi4yOTIzIDEzLjQ4NDcgMTIuMzAyNyAxMy40NjM5IDEyLjMwMjdDMTIuNTI2NCAxMi42NTY5IDExLjY0MSAxMi45MDY5IDEwLjgwNzYgMTMuMDUyN0M5Ljk5NTEyIDEzLjE3NzcgOS4wODg4NyAxMy4yNDAyIDguMDg4ODcgMTMuMjQwMkM3Ljc3NjM3IDEzLjI0MDIgNy4zNTk3IDEzLjIxOTQgNi44Mzg4NyAxMy4xNzc3QzYuMzE4MDMgMTMuMTM2MSA1Ljc3NjM3IDEzLjA3MzYgNS4yMTM4NyAxMi45OTAyQzQuNjUxMzcgMTIuOTA2OSA0LjEyMDEyIDEyLjgwMjcgMy42MjAxMiAxMi42Nzc3QzMuMTIwMTIgMTIuNTMxOSAyLjcyNDI4IDEyLjM2NTIgMi40MzI2MiAxMi4xNzc3VjEzLjMzNEMyLjQzMjYyIDEzLjM1NDggMi40NDMwMyAxMy4zODYxIDIuNDYzODcgMTMuNDI3N0MyLjQ4NDcgMTMuNDkwMiAyLjU1NzYyIDEzLjU2MzIgMi42ODI2MiAxMy42NDY1QzIuOTUzNDUgMTMuOTE3MyAzLjMxODAzIDE0LjEzNjEgMy43NzYzNyAxNC4zMDI3QzQuMjU1NTMgMTQuNDY5NCA0Ljc1NTUzIDE0LjYwNDggNS4yNzYzNyAxNC43MDlDNS43OTcyIDE0Ljc5MjMgNi4zMDc2MiAxNC44NTQ4IDYuODA3NjIgMTQuODk2NUM3LjMyODQ1IDE0LjkxNzMgNy43NTU1MyAxNC45Mjc3IDguMDg4ODcgMTQuOTI3N0M5LjA0NzIgMTQuOTI3NyA5Ljk4NDcgMTQuODU0OCAxMC45MDE0IDE0LjcwOUMxMS44MTggMTQuNTQyMyAxMi42ODI2IDE0LjE4ODIgMTMuNDk1MSAxMy42NDY1WiIvPiYjeGE7PGRlZnM+JiN4YTs8bGluZWFyR3JhZGllbnQgZ3JhZGllbnRVbml0cz0idXNlclNwYWNlT25Vc2UiIHkyPSIxNi40NTkiIHgyPSI4LjA4ODg3IiB5MT0iMC40OTAyMzQiIHgxPSI4LjA4ODg3IiBpZD0icGFpbnQwX2xpbmVhcl8yXzI4Nzk5Ij4mI3hhOzxzdG9wIHN0b3AtY29sb3I9IiM1QjczOEIiLz4mI3hhOzxzdG9wIHN0b3AtY29sb3I9IiMyMjM1NDgiIG9mZnNldD0iMSIvPiYjeGE7PC9saW5lYXJHcmFkaWVudD4mI3hhOzwvZGVmcz4mI3hhOzwvc3ZnPg==" parent="1" vertex="1">
          <mxGeometry x="685" y="70" width="48" height="48" as="geometry" />
        </mxCell>
        <mxCell id="_ywG5binYb0rLTDRe6u4-2" style="edgeStyle=orthogonalEdgeStyle;rounded=0;orthogonalLoop=1;jettySize=auto;html=1;entryX=0.512;entryY=0.944;entryDx=0;entryDy=0;entryPerimeter=0;endArrow=blockThin;endFill=1;startArrow=blockThin;startFill=1;exitX=0.494;exitY=0.155;exitDx=0;exitDy=0;exitPerimeter=0;" parent="1" source="OfAU59fTZWmp4iSplw8R-70" target="_ywG5binYb0rLTDRe6u4-1" edge="1">
          <mxGeometry relative="1" as="geometry">
            <mxPoint x="780" y="130" as="sourcePoint" />
          </mxGeometry>
        </mxCell>
        <mxCell id="_ywG5binYb0rLTDRe6u4-3" value="&lt;font size=&quot;1&quot; face=&quot;arial&quot; style=&quot;&quot;&gt;&lt;b style=&quot;font-size: 13px;&quot;&gt;Smart Meter Data&lt;/b&gt;&lt;/font&gt;" style="text;html=1;align=center;verticalAlign=middle;resizable=0;points=[[0,0.5,0,0,0],[0.5,0,0,0,0],[0.5,1,0,0,0],[1,0.5,0,0,0]];autosize=1;strokeColor=none;fillColor=none;fontSize=12;fontColor=#1D2D3E;fontFamily=Helvetica;" parent="1" vertex="1">
          <mxGeometry x="644" y="45" width="130" height="30" as="geometry" />
        </mxCell>
      </root>
    </mxGraphModel>
  </diagram>
</mxfile>
